SplineFontDB: 1.0
FontName: Norasi-BoldOblique
FullName: Norasi Bold Oblique
FamilyName: Norasi
Weight: Bold
Copyright: Copyright (c) National Font Project NECTEC. Yannis Haralambous, Virach Sornlertlamvanich and Anutara Tantraporn, 1999. All rights reserved.\n\nModified by TLWG
Version: 1.1 : May 12, 2003
ItalicAngle: -12
UnderlinePosition: -100
UnderlineWidth: 50
Ascent: 800
Descent: 200
NeedsXUIDChange: 1
FSType: 0
PfmFamily: 17
TTFWeight: 700
TTFWidth: 5
Panose: 2 0 5 6 0 0 0 2 0 4
LineGap: 18
VLineGap: 0
ScriptLang: 3
 1 DFLT 1 dflt 
 1 thai 1 dflt 
 1 latn 1 dflt 
LangName: 1033 "" "" "" "TheOmegaProject(v.beta1).YannisHaralambous,VirachSornlertlamvanichandAnutaraTantraporn: Omega3: 1999" "" "" "" "Norasi Bold is a trademark of NECTEC. Yannis Haralambous, Virach Sornlertlamvanich and Anutara Tantraporn." "" "Yannis Haralambous, Virach Sornlertlamvanich and Anutara Tantraporn" "This font was developed under the National Font Project at NECTEC as to be a free licensed font for Thai users and developers." "www.nectec.or.th/sll/" 
Encoding: custom
UnicodeInterp: none
DisplaySize: -72
AntiAlias: 1
FitToEm: 1
WinInfo: 208 8 2
BeginPrivate: 4
BlueValues 31 [-13 0 315 323 385 393 462 472]
OtherBlues 11 [-163 -151]
ForceBold 4 true
BlueScale 8 0.039625
EndPrivate
BeginChars: 278 244
StartChar: .notdef
Encoding: 0 -1 0
Width: 266
Flags: W
HStem: 0 21G<0 250> 442 20G<98 348>
DStem: 98 462 348 462 0 0 250 0
Fore
250 0 m 1
 0 0 l 1
 98 462 l 1
 348 462 l 5
 250 0 l 1
EndSplineSet
EndChar
StartChar: exclam
Encoding: 33 33 2
Width: 227
Flags: W
HStem: -9 116<111 136> -9 116<111 136> 452 20G<189.973 227.487>
Fore
64.6043 35.4967 m 0
 64.6043 74.9828 103.68 107 136 107 c 0
 163.691 107 182.396 86.7824 182.396 60.6023 c 0
 182.396 20.703 144.054 -9 111 -9 c 0
 83.3093 -9 64.6043 9.72002 64.6043 35.4967 c 0
137.888 375.028 m 0
 137.888 428.349 166.945 472 213 472 c 0
 241.975 472 259.299 455.552 259.299 424.926 c 0
 259.299 418.557 258.549 411.575 257 404 c 0
 245 347 211 335 157 160 c 1
 137 160 l 1
 142.608 209.072 144.442 245.327 144.442 273.352 c 0
 144.442 326.329 137.888 349.894 137.888 375.028 c 0
EndSplineSet
Back
107.91 36.1328 m 0
 105.469 24.9023 99.1211 15.1367 89.8438 7.32422 c 0
 80.5664 0 70.8008 -3.90625 61.0352 -3.90625 c 0
 37.1094 -3.90625 27.832 9.27734 34.1797 36.1328 c 0
 38.5742 61.5234 53.2227 76.1719 78.125 80.0781 c 1
 103.516 80.0781 113.281 65.4297 107.91 36.1328 c 0
183.105 399.902 m 1
 176.758 375 l 1
 97.168 116.211 l 1
 76.1719 116.211 l 1
 83.4961 169.922 89.3555 215.82 93.2617 253.418 c 0
 97.6562 291.016 101.562 324.219 104.98 352.051 c 0
 105.469 359.863 106.445 367.676 106.934 375 c 0
 109.863 396.973 l 0
 120.117 439.453 136.23 460.938 159.18 460.938 c 0
 183.594 460.938 191.895 441.895 184.082 402.832 c 1
 183.105 399.902 l 1
EndSplineSet
EndChar
StartChar: quotedbl
Encoding: 34 34 3
Width: 378
Flags: W
HStem: 472 21G<186.5 211.751 364.5 389.322>
Fore
174 276 m 1
 146 276 l 1
 145.101 298.025 144.606 326.717 144.606 353.086 c 0
 144.606 385.382 145.348 414.192 147 423 c 0
 153 452 173 472 200 472 c 0
 223.503 472 236.437 457.908 236.437 436.231 c 0
 236.437 432.083 235.964 427.658 235 423 c 0
 232 407 195 325 174 276 c 1
351 276 m 1
 323 276 l 1
 322.5 300.5 322 333.25 322 361.875 c 0
 322 390.5 322.5 415 324 423 c 0
 331 452 351 472 378 472 c 0
 400.644 472 413.441 457.932 413.441 436.286 c 0
 413.441 432.122 412.968 427.678 412 423 c 0
 409 407 373 325 351 276 c 1
EndSplineSet
Back
287.109 389.16 m 1
 238.77 262.207 l 1
 209.961 262.207 l 1
 210.449 290.039 211.426 312.5 211.914 329.59 c 0
 212.891 346.68 213.379 359.863 213.867 369.141 c 0
 214.844 378.418 215.332 384.766 215.332 389.16 c 0
 215.82 393.066 216.309 396.484 216.797 398.926 c 0
 221.68 421.875 235.84 433.105 259.766 433.105 c 0
 283.203 433.105 292.969 421.875 289.062 398.926 c 2
 287.109 389.16 l 1
181.152 389.16 m 1
 131.836 262.207 l 1
 104.004 262.207 l 1
 104.492 290.039 105.469 312.5 105.957 329.59 c 0
 106.445 346.68 107.422 359.863 107.91 369.141 c 0
 108.887 378.418 109.375 384.766 109.375 389.16 c 0
 109.863 393.066 110.352 396.484 110.84 398.926 c 0
 115.723 421.875 129.883 433.105 153.809 433.105 c 0
 177.246 433.105 187.012 421.875 183.105 398.926 c 2
 181.152 389.16 l 1
EndSplineSet
EndChar
StartChar: numbersign
Encoding: 35 35 4
Width: 341
Flags: W
HStem: 0 21G<48 102 179 232> 143 50<43 98 170 229 300 348> 285 50<93 149 219 279 350 399>
DStem: 98 143 152 143 48 0 102 0 149 285 202 285 117 193 170 193 217 478 270 478 166 335 219 335 229 143 282 143 179 0 232 0 279 285 333 285 247 193 300 193 348 478 400 478 296 335 350 335
Fore
360 193 m 1
 348 143 l 1
 282 143 l 1
 232 0 l 1
 179 0 l 1
 229 143 l 1
 152 143 l 1
 102 0 l 1
 48 0 l 1
 98 143 l 1
 33 143 l 1
 44 193 l 1
 117 193 l 1
 149 285 l 1
 84 285 l 1
 94 335 l 1
 166 335 l 1
 217 478 l 1
 270 478 l 1
 219 335 l 1
 296 335 l 1
 348 478 l 1
 400 478 l 1
 350 335 l 1
 410 335 l 1
 399 285 l 1
 333 285 l 1
 300 193 l 1
 360 193 l 1
279 285 m 1
 202 285 l 1
 170 193 l 1
 247 193 l 1
 279 285 l 1
EndSplineSet
Back
188.965 195.801 m 1
 256.836 195.801 l 1
 282.227 266.113 l 1
 214.844 266.113 l 1
 188.965 195.801 l 1
407.227 266.113 m 1
 339.844 266.113 l 1
 312.988 195.801 l 1
 375.977 195.801 l 1
 363.77 142.09 l 1
 292.969 142.09 l 1
 244.141 0 l 1
 187.012 0 l 1
 235.84 142.09 l 1
 168.945 142.09 l 1
 118.164 0 l 1
 62.0117 0 l 1
 110.84 142.09 l 1
 43.9453 142.09 l 1
 56.1523 195.801 l 1
 132.812 195.801 l 1
 158.203 266.113 l 1
 88.8672 266.113 l 1
 100.098 319.824 l 1
 178.223 319.824 l 1
 226.074 452.148 l 1
 280.762 452.148 l 1
 233.887 319.824 l 1
 300.781 319.824 l 1
 348.145 452.148 l 1
 403.809 452.148 l 1
 356.934 319.824 l 1
 417.969 319.824 l 1
 407.227 266.113 l 1
EndSplineSet
EndChar
StartChar: dollar
Encoding: 36 36 5
Width: 341
Flags: W
VStem: 89.0672 74.615<312.797 365.503> 269.022 85.3003<112.134 165.056>
DStem: 146 0 184 0 132 -68 170 -68 186 192 220 171 149 20 188 20 239 440 277 438 211 310 246 291 255 512 293 512 244 459 282 460
Fore
220 171 m 1
 188 20 l 1
 207 24 254 32 267 96 c 0
 268.37 101.938 269.022 107.274 269.022 112.134 c 0
 269.022 139.191 248.823 151.502 220 171 c 1
362 328 m 1
 348 328 l 1
 345 355 340 427 277 438 c 1
 246 291 l 1
 302.837 257.772 354.322 227.603 354.322 165.056 c 0
 354.322 156.074 353.26 146.423 351 136 c 0
 330 36 256 12 184 0 c 1
 170 -68 l 1
 132 -68 l 1
 146 0 l 1
 100 2 83 10 37 29 c 1
 60 136 l 1
 75 135 l 1
 80 47 114 27 149 20 c 1
 186 192 l 1
 147.796 213.323 89.0672 247.277 89.0672 312.797 c 0
 89.0672 321.022 89.9925 329.743 92 339 c 0
 109 419 186 456 244 459 c 1
 255 512 l 1
 293 512 l 1
 282 460 l 1
 345 451 366 436 382 425 c 1
 362 328 l 1
211 310 m 1
 239 440 l 1
 209 434 174 420 165 378 c 0
 164.096 373.569 163.682 369.409 163.682 365.503 c 0
 163.682 326.213 205.543 312.729 211 310 c 1
EndSplineSet
Back
208.984 303.223 m 1
 235.84 429.199 l 1
 202.148 420.898 181.152 400.879 173.828 369.141 c 0
 172.852 361.816 172.852 354.492 173.828 347.168 c 0
 175.293 339.844 177.734 334.473 181.152 331.055 c 2
 208.984 303.223 l 1
267.09 110.84 m 0
 270.996 130.371 268.066 147.461 257.812 162.109 c 0
 255.371 164.551 251.465 167.969 247.07 172.363 c 0
 242.188 176.758 235.84 182.617 227.051 189.941 c 1
 194.824 39.0625 l 1
 234.863 47.8516 258.789 71.7773 267.09 110.84 c 0
339.844 126.953 m 0
 324.707 57.6172 273.438 16.1133 187.012 1.95312 c 1
 174.805 -57.1289 l 1
 133.789 -57.1289 l 1
 145.996 0 l 1
 104.004 1.95312 65.918 15.1367 32.2266 39.0625 c 1
 54.1992 141.113 l 1
 81.0547 141.113 l 1
 81.0547 75.6836 105.469 41.0156 153.809 37.1094 c 1
 190.918 212.891 l 1
 175.781 224.121 162.598 234.375 151.855 243.652 c 0
 141.113 252.441 132.324 261.23 125 269.043 c 1
 104.98 295.898 98.1445 324.707 104.98 355.957 c 0
 111.816 390.137 130.859 417.48 162.109 438.965 c 0
 175.293 447.754 188.477 454.102 202.148 458.984 c 0
 215.332 463.867 229.492 466.797 245.117 467.773 c 1
 254.883 511.23 l 1
 295.898 511.23 l 1
 286.133 465.82 l 1
 330.078 458.008 l 2
 340.82 456.055 351.074 451.172 361.328 443.359 c 0
 372.07 436.035 378.906 428.711 381.836 421.875 c 1
 363.77 338.867 l 1
 336.914 338.867 l 1
 338.867 392.09 319.336 422.852 277.832 430.176 c 1
 246.094 278.809 l 1
 293.945 244.141 l 1
 324.219 214.844 l 1
 341.797 190.43 347.168 161.133 339.844 126.953 c 0
EndSplineSet
EndChar
StartChar: percent
Encoding: 37 37 6
Width: 682
Flags: W
HStem: -10 32<453 486> -5 21G<190 227> 219 35<570 586> 399 26<433 448> 399 64<331 446> 431 32<331 347> 452 20G<571 597>
VStem: 144.568 74.0869<256 268.824> 379.845 76.0683<47 60.6826> 613.927 23.9299<181 197>
DStem: 515 415 597 472 190 -5 227 -5
Fore
458 63 m 0
 457.056 58.594 455.914 52.9005 455.914 47.1663 c 0
 455.914 34.6798 461.33 22 486 22 c 0
 534 22 601 117 612 168 c 0
 612.677 172.062 613.927 179.217 613.927 186.906 c 0
 613.927 201.933 609.153 219 586 219 c 0
 533 219 464 89 458 63 c 0
382 81 m 0
 402 175 503 254 570 254 c 0
 618.832 254 637.857 230.155 637.857 195.941 c 0
 637.857 188.116 636.861 179.749 635 171 c 0
 623 113 553 -10 453 -10 c 0
 405.066 -10 379.845 21.5045 379.845 60.6826 c 0
 379.845 67.2756 380.56 74.0859 382 81 c 0
597 472 m 1
 227 -5 l 1
 190 -5 l 1
 515 415 l 1
 514 417 l 1
 492 407 456 399 433 399 c 0
 422 399 415 401 404 403 c 1
 393 330 319 201 214 201 c 0
 175.194 201 144.568 227.028 144.568 268.824 c 0
 144.568 275.495 145.348 282.567 147 290 c 0
 172 409 286 463 331 463 c 0
 398.875 463 373.469 425 446 425 c 0
 504 425 552 457 557 462 c 0
 561 467 566 472 571 472 c 2
 597 472 l 1
246 232 m 0
 300.082 232 378.343 349.837 378.343 397.891 c 0
 378.343 410.505 370.509 415.745 364 419 c 0
 356 422 351 431 345 431 c 0
 305 431 229 309 220 268 c 0
 219.101 264.046 218.655 260.35 218.655 256.948 c 0
 218.655 241.42 227.954 232 246 232 c 0
EndSplineSet
Back
298.828 381.836 m 0
 300.293 387.207 300.293 395.508 298.828 405.762 c 1
 289.062 410.156 279.785 415.039 270.996 420.898 c 2
 264.16 425.781 l 1
 244.141 423.828 220.703 404.785 193.848 368.164 c 0
 181.152 350.098 170.898 333.496 163.086 318.359 c 0
 154.785 303.711 149.902 289.551 146.973 276.855 c 0
 141.113 249.023 148.438 234.863 169.922 234.863 c 0
 196.777 234.863 223.633 252.441 250.977 288.086 c 0
 263.672 304.199 273.926 319.824 282.227 335.449 c 0
 290.039 351.074 295.898 366.699 298.828 381.836 c 0
516.113 180.176 m 0
 519.531 193.359 518.555 204.59 514.16 213.867 c 0
 509.277 223.145 500.977 228.027 488.77 228.027 c 0
 466.309 228.027 439.453 207.52 409.18 166.016 c 1
 384.277 129.883 369.629 101.562 365.234 80.0781 c 0
 358.887 51.7578 367.188 38.0859 390.137 38.0859 c 0
 414.551 38.0859 440.918 55.1758 469.238 89.8438 c 0
 482.422 105.469 492.676 120.117 500 134.766 c 0
 507.324 149.902 512.695 164.551 516.113 180.176 c 0
554.199 185.059 m 0
 544.434 141.602 523.438 101.562 491.211 64.9414 c 0
 453.613 21.4844 413.574 0 371.094 0 c 0
 340.332 0 319.336 9.27734 307.617 27.832 c 0
 295.898 46.875 292.969 70.8008 298.828 101.074 c 0
 307.617 139.648 331.543 177.246 370.117 213.867 c 0
 410.156 250 449.707 268.066 488.77 268.066 c 0
 544.434 268.066 565.918 240.234 554.199 185.059 c 0
528.809 473.145 m 1
 158.203 -6.83594 l 1
 104.98 -6.83594 l 1
 419.922 400.879 l 1
 400.879 395.508 383.301 393.066 368.164 393.066 c 0
 361.816 393.066 356.445 393.066 351.074 393.066 c 0
 345.703 393.066 340.332 393.555 334.961 395.02 c 1
 334.961 379.883 l 1
 331.543 364.746 326.66 349.609 320.312 334.473 c 0
 313.965 319.336 305.176 304.199 293.945 289.062 c 0
 289.551 281.738 281.25 271.973 270.02 259.766 c 0
 231.445 216.797 190.43 194.824 146.973 194.824 c 0
 119.141 194.824 99.6094 204.59 88.3789 224.121 c 0
 77.6367 243.164 75.1953 267.09 81.0547 294.922 c 0
 88.8672 334.961 112.305 373.535 150.879 410.156 c 0
 188.965 445.801 229.004 463.867 270.996 463.867 c 0
 287.109 463.867 303.711 457.52 320.801 443.848 c 1
 342.285 433.105 359.375 428.223 372.07 428.223 c 0
 405.273 428.223 441.895 442.871 481.934 473.145 c 1
 528.809 473.145 l 1
EndSplineSet
EndChar
StartChar: ampersand
Encoding: 38 38 7
Width: 568
Flags: W
HStem: -11 69<426 497> -10 21G<142.195 205.5> 449 23<352 373>
VStem: 62.6358 110.337<81.8072 156.968> 215.525 90.9262<337.871 394.466> 398.807 73.8105<383 403.901>
Fore
472.617 403.901 m 0
 472.617 337.036 390.985 303.37 345 289 c 1
 417 143 l 1
 448.128 171.904 491.278 211.091 491.278 249.699 c 0
 491.278 264.722 480.167 266.667 451 270 c 1
 455 286 l 1
 596 286 l 1
 592 270 l 1
 561 267 551 261 536 242 c 0
 486 182 486 182 429 120 c 1
 450 83 465 58 497 58 c 0
 514 58 531 69 542 84 c 1
 553 76 l 1
 553 75 515 29 513 27 c 0
 478 -6 438 -11 426 -11 c 0
 376 -11 354 20 334 49 c 1
 304 29 240 -10 171 -10 c 0
 113.389 -10 62.6358 19.7156 62.6358 81.8072 c 0
 62.6358 90.8489 63.712 100.577 66 111 c 0
 85 200 183 243 232 265 c 1
 221.143 293.952 215.525 316.094 215.525 337.871 c 0
 215.525 346.181 216.343 354.438 218 363 c 0
 236 445 312 472 373 472 c 0
 447.719 472 472.617 437.277 472.617 403.901 c 0
240 244 m 1
 193.482 220.741 172.973 202.004 172.973 156.968 c 0
 172.973 108.571 200.649 42 256 42 c 0
 277 42 302 55 323 68 c 1
 296.468 118.115 266.264 187.326 240 244 c 1
352 449 m 0
 329.602 449 306.451 431.838 306.451 394.466 c 0
 306.451 362.185 326.604 325.46 337 309 c 1
 360.619 316.086 398.807 332.835 398.807 383.474 c 0
 398.807 414.607 384.345 449 352 449 c 0
EndSplineSet
Back
357.91 376.953 m 0
 361.328 390.137 359.863 401.367 354.004 410.645 c 0
 348.145 419.434 338.867 423.828 326.172 423.828 c 0
 299.316 423.828 282.227 407.715 274.902 375 c 0
 272.461 362.793 270.996 350.586 271.484 337.402 c 0
 271.973 324.707 273.926 310.547 277.832 294.922 c 1
 325.195 318.848 352.051 346.191 357.91 376.953 c 0
182.129 41.9922 m 0
 203.125 41.9922 232.422 54.1992 269.043 78.125 c 1
 258.301 95.2148 248.047 116.211 237.793 140.137 c 0
 228.027 164.062 217.773 190.918 208.008 221.191 c 1
 163.086 188.965 l 1
 151.855 179.199 143.066 168.457 137.207 158.203 c 0
 130.859 147.461 126.953 137.207 125 126.953 c 0
 120.117 104.98 123.535 85.4492 133.789 67.8711 c 0
 144.531 50.7812 160.645 41.9922 182.129 41.9922 c 0
519.043 77.1484 m 1
 511.719 61.5234 501.953 47.8516 490.234 36.1328 c 1
 473.145 21.9727 457.031 11.2305 440.918 3.90625 c 0
 424.805 -3.41797 408.203 -6.83594 391.113 -6.83594 c 0
 356.445 -6.83594 322.754 11.2305 290.039 46.875 c 1
 245.117 18.0664 l 2
 238.281 14.1602 230.469 10.2539 221.68 6.83594 c 0
 212.402 3.90625 203.125 0.976562 192.871 -0.976562 c 0
 183.105 -2.92969 172.852 -4.39453 163.086 -5.37109 c 0
 152.832 -6.34766 143.555 -6.83594 134.766 -6.83594 c 0
 98.1445 -6.83594 71.2891 1.95312 54.1992 20.5078 c 0
 36.6211 39.0625 32.2266 66.4062 40.0391 103.027 c 0
 51.7578 158.203 98.1445 207.031 178.223 249.023 c 2
 199.219 259.766 l 1
 195.801 287.109 194.336 307.129 194.336 318.848 c 0
 194.824 331.055 195.801 340.82 196.777 348.145 c 0
 200.195 363.281 206.055 377.93 214.355 391.602 c 0
 222.656 405.273 232.91 416.992 245.117 427.734 c 0
 256.836 437.988 270.508 445.801 285.156 452.148 c 0
 299.805 458.008 314.941 460.938 331.055 460.938 c 0
 358.398 460.938 379.883 453.613 395.996 438.477 c 0
 412.109 423.34 416.992 401.855 411.133 374.023 c 0
 404.785 343.262 386.719 316.895 355.957 293.945 c 0
 350.586 289.551 342.285 284.18 331.055 277.832 c 0
 319.824 271.973 305.176 265.137 288.086 256.836 c 1
 299.805 214.844 316.895 176.758 337.891 142.09 c 1
 359.375 164.062 375.977 183.594 387.695 201.172 c 0
 398.926 218.262 406.25 232.91 409.18 245.117 c 0
 412.109 258.789 399.902 266.113 372.07 266.113 c 1
 377.93 297.852 l 1
 540.039 297.852 l 1
 534.18 267.09 l 1
 523.926 265.625 515.625 264.16 508.301 262.695 c 0
 501.465 260.742 496.094 259.277 493.164 257.812 c 0
 484.375 254.883 474.121 245.605 461.914 230.957 c 2
 439.941 202.148 l 2
 426.758 184.57 413.086 167.969 398.926 151.855 c 0
 384.766 136.23 371.094 120.605 356.934 105.957 c 1
 365.723 85.4492 381.836 70.3125 405.762 61.0352 c 1
 411.133 57.6172 419.434 56.1523 431.152 56.1523 c 0
 443.848 56.1523 454.102 58.1055 462.891 62.9883 c 0
 467.773 64.4531 472.656 67.8711 478.027 73.2422 c 0
 483.398 78.125 490.723 85.4492 500 94.2383 c 1
 519.043 77.1484 l 1
EndSplineSet
EndChar
StartChar: quotesingle
Encoding: 39 39 8
Width: 189
Flags: W
HStem: 472 21G<181.5 206.322>
Fore
168 276 m 1
 140 276 l 1
 139.5 300.5 139 333.25 139 361.875 c 0
 139 390.5 139.5 415 141 423 c 0
 148 452 168 472 195 472 c 0
 217.644 472 230.441 457.932 230.441 436.286 c 0
 230.441 432.122 229.968 427.678 229 423 c 0
 226 407 190 325 168 276 c 1
EndSplineSet
Back
172.852 438.965 m 0
 171.875 440.43 169.434 441.406 166.504 441.406 c 0
 163.574 441.895 160.156 441.895 157.227 441.895 c 0
 145.508 441.895 134.766 437.988 125 430.176 c 0
 115.234 421.875 108.887 412.109 105.957 399.902 c 0
 103.516 388.672 105.469 379.395 112.305 371.582 c 0
 119.629 363.77 128.906 359.863 140.137 359.863 c 0
 143.555 359.863 145.996 360.352 148.438 360.352 c 0
 155.762 361.816 l 1
 154.785 356.934 l 2
 152.832 347.168 147.461 337.402 138.184 328.125 c 0
 128.906 318.848 119.141 311.035 109.863 305.176 c 0
 105.469 301.758 101.562 299.316 99.1211 298.34 c 0
 96.1914 297.363 95.2148 296.875 95.2148 296.875 c 1
 99.1211 271.973 l 1
 99.1211 271.973 103.516 273.926 111.816 277.832 c 0
 120.605 282.227 130.859 288.086 142.09 296.387 c 0
 153.32 304.688 164.551 315.43 174.805 328.125 c 0
 185.547 340.82 192.871 355.957 196.777 374.023 c 0
 201.172 390.625 200.195 404.297 194.824 415.527 c 0
 189.453 426.27 182.129 434.57 172.852 438.965 c 0
EndSplineSet
EndChar
StartChar: parenleft
Encoding: 40 40 9
Width: 227
Flags: W
VStem: 61.4462 66.2142<32.1078 109.146>
Fore
310 474 m 1
 306 455 l 1
 241 417 191 387 147 179 c 0
 133.754 115.828 127.66 68.575 127.66 32.1078 c 0
 127.66 -38.7973 150.699 -68.9249 189 -96 c 1
 185 -115 l 1
 83.6757 -52.7579 61.4462 40.9127 61.4462 109.146 c 0
 61.4462 135.191 64.6849 157.53 68 173 c 0
 110 372 268 457 310 474 c 1
EndSplineSet
Back
148.926 -121.094 m 1
 101.562 -86.4258 69.8242 -42.4805 53.7109 9.76562 c 0
 37.1094 62.5 36.1328 121.094 49.8047 186.035 c 0
 76.1719 309.57 152.344 407.227 278.809 479.98 c 1
 288.086 455.078 l 1
 247.559 426.27 216.797 398.438 195.801 371.094 c 0
 187.5 360.352 179.199 347.656 171.875 332.52 c 0
 164.551 317.383 157.715 301.758 150.879 285.156 c 0
 144.531 268.555 138.672 251.465 133.301 233.887 c 0
 128.418 216.797 124.512 200.195 121.094 185.059 c 0
 112.305 145.02 106.934 115.723 105.469 96.6797 c 0
 104.004 77.6367 104.004 62.0117 105.957 49.8047 c 0
 110.84 17.0898 117.676 -11.2305 126.465 -35.1562 c 0
 135.742 -59.082 150.879 -79.5898 171.875 -97.168 c 1
 148.926 -121.094 l 1
EndSplineSet
EndChar
StartChar: parenright
Encoding: 41 41 10
Width: 227
Flags: W
VStem: 176.784 65.5022<250.707 326.855>
Fore
-6 -115 m 1
 -2 -96 l 1
 63 -58 113 -28 157 180 c 0
 170.581 243.15 176.784 290.393 176.784 326.855 c 0
 176.784 397.787 153.308 427.92 115 455 c 1
 119 474 l 1
 220.707 412.687 242.286 319.115 242.286 250.707 c 0
 242.286 224.278 239.065 201.606 236 186 c 0
 193 -13 35 -98 -6 -115 c 1
EndSplineSet
Back
7.8125 -122.07 m 1
 70.8008 -87.4023 121.094 -43.457 160.156 8.78906 c 0
 198.73 61.5234 224.609 120.117 237.793 185.059 c 0
 264.16 308.105 229.492 406.25 133.789 479.004 c 1
 115.234 454.102 l 1
 141.602 425.293 160.156 397.461 170.898 370.117 c 0
 174.805 359.375 177.734 346.68 178.711 331.543 c 0
 179.688 316.406 179.688 300.781 179.199 284.18 c 0
 178.223 267.09 176.758 250.488 174.316 232.91 c 0
 172.363 215.82 169.434 199.219 166.016 184.082 c 0
 162.109 164.062 158.203 146.973 154.297 132.324 c 0
 150.879 118.164 147.461 105.957 144.043 95.7031 c 0
 140.625 84.9609 137.695 76.1719 134.277 68.8477 c 0
 131.348 61.5234 127.93 55.1758 124.023 48.8281 c 0
 105.957 16.1133 87.4023 -12.207 67.8711 -36.1328 c 0
 48.8281 -60.0586 24.4141 -80.5664 -4.88281 -98.1445 c 1
 7.8125 -122.07 l 1
EndSplineSet
EndChar
StartChar: asterisk
Encoding: 42 42 11
Width: 341
Flags: W
HStem: 231 72.9345<120 155.759> 452 20G<259.727 281.971>
VStem: 183.04 68.708<202 217>
Fore
228.62 425.896 m 0
 228.62 452.314 248.455 472 271 472 c 0
 292.943 472 298.283 456.542 298.283 444.687 c 0
 298.283 440.874 297.73 437.434 297 435 c 0
 290 400 260 398 251 339 c 1
 256 337 l 1
 321 378 321 416 358 416 c 0
 378.571 416 386.653 399.102 386.653 386.717 c 0
 386.653 384.653 386.429 382.714 386 381 c 0
 385 375 374 354 351 347 c 0
 323 337 306 354 259 325 c 1
 258 320 l 1
 302.452 291.291 363.2 314.041 363.2 276.259 c 0
 363.2 251.94 342.668 234 322 234 c 0
 314 234 298 236 288 256 c 0
 270 296 269 298 248 310 c 1
 242 307 l 1
 240.747 296.975 240.23 288.373 240.23 280.89 c 0
 240.23 245.573 251.748 235.197 251.748 217.832 c 0
 251.748 193.735 231.015 174 208 174 c 0
 188.8 174 183.04 188.72 183.04 202.288 c 0
 183.04 205.68 183.4 209 184 212 c 0
 192 249 216 242 230 307 c 1
 226 310 l 1
 160 272 160 231 120 231 c 0
 109.409 231 94.1431 239.569 94.1431 256.707 c 0
 94.1431 280.929 117.246 303.935 155.759 303.935 c 0
 184.443 303.935 191.445 301.63 222 322 c 1
 224 327 l 1
 171.676 356.375 117.666 332.662 117.666 369.572 c 0
 117.666 372.87 118.098 376.652 119 381 c 0
 124 406 147 414 156 414 c 0
 208 414 179 364 233 337 c 1
 238 339 l 1
 240.72 350.461 241.779 359.809 241.779 367.703 c 0
 241.779 395.528 228.62 405.297 228.62 425.896 c 0
EndSplineSet
Back
320.801 291.016 m 0
 316.406 294.434 310.547 296.875 303.711 298.828 c 0
 296.387 300.781 289.551 303.223 282.715 305.176 c 0
 275.391 307.129 269.043 309.082 262.695 311.523 c 0
 256.348 313.965 250.977 316.406 247.07 318.848 c 1
 252.441 321.777 258.789 323.73 266.113 325.684 c 0
 273.438 327.148 280.762 329.102 289.062 331.055 c 0
 296.875 333.008 304.688 334.961 312.012 337.402 c 0
 319.336 339.844 326.172 342.285 332.031 345.215 c 0
 354.492 356.445 362.793 371.094 355.957 390.137 c 0
 348.633 408.691 333.984 412.109 312.012 399.902 c 0
 306.152 397.461 299.805 393.555 293.457 388.672 c 0
 287.109 383.301 280.762 377.93 273.926 372.559 c 0
 267.09 366.699 260.742 361.328 254.395 356.445 c 0
 248.047 351.562 242.188 347.656 236.816 345.215 c 1
 238.281 350.098 240.723 356.445 244.141 363.281 c 0
 247.559 370.605 250.488 377.441 253.906 384.766 c 0
 257.324 392.09 260.742 399.902 264.16 407.227 c 0
 267.09 414.551 269.531 420.898 270.996 426.758 c 0
 273.438 438.477 272.949 446.777 269.531 453.125 c 0
 265.625 458.984 257.812 461.914 246.094 461.914 c 0
 234.863 461.914 226.074 458.984 220.215 453.125 c 0
 213.867 446.777 209.473 438.477 207.031 426.758 c 0
 204.102 415.039 204.102 401.367 206.055 385.742 c 0
 208.008 369.629 208.008 356.445 206.055 345.215 c 1
 202.148 347.656 198.242 351.562 193.848 356.445 c 0
 189.941 361.328 186.035 366.699 181.641 372.559 c 0
 168.457 388.672 l 0
 164.062 393.555 159.668 397.461 154.785 399.902 c 0
 137.695 412.109 121.094 408.691 105.957 390.137 c 0
 91.7969 371.094 93.75 356.445 110.84 345.215 c 0
 115.723 342.285 121.582 339.844 128.418 337.402 c 0
 135.742 334.961 142.578 333.008 149.414 331.055 c 0
 156.738 329.102 163.574 327.148 169.922 325.684 c 0
 176.758 323.73 182.129 321.777 186.035 318.848 c 1
 180.664 316.406 174.316 313.965 166.504 311.523 c 0
 158.691 309.082 150.879 307.129 143.066 305.176 c 0
 134.766 303.223 127.441 300.781 120.117 298.828 c 0
 112.793 296.875 105.957 294.434 100.098 291.016 c 0
 78.125 279.785 69.8242 264.648 75.1953 246.094 c 0
 82.5195 227.539 97.168 224.121 120.117 235.84 c 0
 125.977 239.258 132.324 243.652 138.672 248.535 c 0
 145.02 253.418 151.367 258.789 158.203 264.16 c 0
 164.551 269.531 171.387 274.414 177.734 279.297 c 0
 183.594 284.668 189.453 288.574 194.824 291.016 c 1
 193.848 285.645 191.406 279.297 187.988 272.461 c 0
 184.57 265.625 181.152 258.301 177.734 250.977 c 0
 173.828 243.652 170.41 236.328 167.48 229.492 c 0
 164.551 222.656 162.109 215.82 161.133 209.961 c 0
 158.203 198.242 158.691 188.965 162.598 183.105 c 0
 166.016 176.758 173.828 173.828 185.059 173.828 c 0
 196.777 173.828 206.055 176.758 211.914 183.105 c 0
 217.773 188.965 222.168 198.242 225.098 209.961 c 0
 226.562 215.82 227.051 222.656 226.562 229.492 c 0
 226.074 236.328 226.074 243.652 225.586 250.977 c 0
 225.098 258.301 224.609 265.625 224.609 272.461 c 0
 224.121 279.297 224.609 285.645 226.074 291.016 c 1
 229.98 288.574 233.887 284.668 237.793 279.297 c 0
 242.188 274.414 246.094 269.043 250.488 263.672 c 0
 254.883 257.812 259.277 252.441 263.672 247.559 c 0
 268.066 242.676 272.461 238.77 276.855 235.84 c 0
 294.434 224.121 310.547 227.539 325.195 246.094 c 0
 333.008 255.859 336.426 264.648 335.449 271.973 c 0
 334.473 279.297 329.59 285.645 320.801 291.016 c 0
EndSplineSet
EndChar
StartChar: plus
Encoding: 43 43 12
Width: 389
Flags: W
HStem: 0 21G<165 225> 143 60<65 195 268 397>
DStem: 195 143 255 143 165 0 225 0 238 345 298 345 208 203 268 203
Fore
208 203 m 1
 238 345 l 1
 298 345 l 1
 268 203 l 1
 410 203 l 1
 397 143 l 1
 255 143 l 1
 225 0 l 1
 165 0 l 1
 195 143 l 1
 53 143 l 1
 66 203 l 1
 208 203 l 1
EndSplineSet
Back
401.855 151.855 m 1
 251.953 151.855 l 1
 220.215 0 l 1
 167.969 0 l 1
 200.195 151.855 l 1
 48.8281 151.855 l 1
 60.0586 203.125 l 1
 210.938 203.125 l 1
 243.164 354.004 l 1
 294.922 354.004 l 1
 263.184 203.125 l 1
 413.086 203.125 l 1
 401.855 151.855 l 1
EndSplineSet
EndChar
StartChar: comma
Encoding: 44 44 13
Width: 170
Flags: W
HStem: -4 21G<67.836 80> -3 21G<89.5 94.7393>
Fore
13 -123 m 1
 8 -108 l 1
 30.6982 -95.1706 102.505 -49.5163 102.505 -14.0576 c 0
 102.505 -7.83337 98.4786 -3 91 -3 c 0
 88 -3 84 -4 76 -4 c 0
 59.6719 -4 35.9587 4.12371 35.9587 33.699 c 0
 35.9587 38.5388 36.5937 43.953 38 50 c 0
 45 85 74 106 106 106 c 0
 145.588 106 160.372 78.5851 160.372 49.0685 c 0
 160.372 42.0511 159.537 34.9148 158 28 c 0
 140 -58 53 -102 13 -123 c 1
EndSplineSet
Back
96.1914 77.1484 m 0
 94.7266 78.125 92.2852 79.1016 89.3555 79.5898 c 0
 86.4258 79.5898 83.4961 80.0781 80.0781 80.0781 c 0
 68.8477 80.0781 58.1055 76.1719 47.8516 67.8711 c 0
 38.0859 60.0586 31.7383 49.8047 28.8086 38.0859 c 0
 26.3672 26.8555 28.3203 17.0898 35.6445 9.27734 c 0
 42.4805 1.95312 51.7578 -1.95312 62.9883 -1.95312 c 0
 66.4062 -1.95312 69.3359 -1.95312 71.2891 -1.46484 c 0
 73.7305 -0.976562 76.1719 -0.488281 79.1016 0 c 1
 78.125 -4.88281 l 2
 76.1719 -15.1367 70.3125 -24.9023 61.0352 -34.1797 c 0
 51.7578 -43.457 42.4805 -50.7812 33.2031 -57.1289 c 0
 28.3203 -60.5469 24.9023 -62.5 21.9727 -63.4766 c 0
 19.5312 -64.4531 18.0664 -64.9414 18.0664 -64.9414 c 1
 21.9727 -89.8438 l 1
 21.9727 -89.8438 26.3672 -87.8906 35.1562 -83.9844 c 0
 43.457 -80.0781 53.7109 -73.7305 65.4297 -65.4297 c 0
 77.1484 -57.1289 88.3789 -46.875 99.1211 -34.1797 c 0
 109.863 -21.4844 117.188 -5.85938 121.094 12.207 c 0
 124.512 28.8086 123.535 42.4805 118.164 53.7109 c 0
 112.793 64.4531 105.469 72.2656 96.1914 77.1484 c 0
EndSplineSet
EndChar
StartChar: hyphen
Encoding: 45 45 14
Width: 227
Flags: W
HStem: 117 79<71 221>
Fore
238 196 m 1
 221 117 l 1
 55 117 l 1
 72 196 l 1
 238 196 l 1
EndSplineSet
Back
265.137 83.0078 m 1
 47.8516 83.0078 l 1
 55.1758 116.211 l 1
 271.973 116.211 l 1
 265.137 83.0078 l 1
EndSplineSet
EndChar
StartChar: period
Encoding: 46 46 15
Width: 170
Flags: W
HStem: -29 20G<69.1547 99.5269>
Fore
36.6043 35.4967 m 0
 36.6043 74.9828 75.6799 107 108 107 c 0
 135.691 107 154.396 86.7824 154.396 60.6023 c 0
 154.396 20.703 116.054 -9 83 -9 c 0
 55.3094 -9 36.6043 9.72002 36.6043 35.4967 c 0
EndSplineSet
Back
105.957 32.2266 m 0
 103.516 21.4844 97.168 12.6953 87.4023 5.37109 c 0
 77.6367 -1.46484 67.8711 -4.88281 58.1055 -4.88281 c 0
 47.8516 -4.88281 40.0391 -1.46484 33.6914 5.37109 c 0
 27.3438 12.6953 25.3906 21.4844 27.832 32.2266 c 0
 29.7852 42.4805 35.6445 51.7578 44.4336 59.5703 c 0
 53.7109 67.3828 63.4766 70.8008 74.2188 70.8008 c 0
 83.9844 70.8008 92.2852 66.8945 99.1211 59.082 c 0
 105.469 50.7812 107.91 41.9922 105.957 32.2266 c 0
EndSplineSet
EndChar
StartChar: slash
Encoding: 47 47 16
Width: 223
Flags: W
HStem: 452 20G<279 340>
DStem: 279 472 340 472 -49 -130 12 -130
Fore
340 472 m 1
 12 -130 l 1
 -49 -130 l 1
 279 472 l 1
 340 472 l 1
EndSplineSet
Back
342.773 477.051 m 1
 29.7852 -117.188 l 1
 -21.9727 -117.188 l 1
 290.039 477.051 l 1
 342.773 477.051 l 1
EndSplineSet
EndChar
StartChar: zero
Encoding: 48 48 17
Width: 341
Flags: W
HStem: -9 19<166 175> 451 19<262 273>
VStem: 55.3349 87.4897<58.0786 148.625> 295.378 87.3815<312.174 403.568>
Fore
249 152 m 2
 282 308 l 2
 290.896 349.651 295.378 381 295.378 403.568 c 0
 295.378 436.809 285.655 451 266 451 c 0
 220 451 202 365 189 308 c 2
 156 152 l 2
 147.4 111.865 142.825 80.7864 142.825 58.0786 c 0
 142.825 25.34 152.334 10 173 10 c 0
 199 10 211 35 218 48 c 0
 224 63 240 107 249 152 c 2
382.759 312.174 m 0
 382.759 160.249 284.126 -9 169 -9 c 0
 98.806 -9 55.3349 53.3535 55.3349 148.625 c 0
 55.3349 172.792 58.1321 199.077 64 227 c 0
 101 399 202 470 271 470 c 0
 329.164 470 382.759 418.446 382.759 312.174 c 0
EndSplineSet
Back
297.852 226.074 m 0
 327.148 360.84 316.895 428.223 267.09 428.223 c 0
 218.262 428.223 179.199 360.84 149.902 226.074 c 0
 122.07 91.7969 132.324 24.9023 181.152 24.9023 c 0
 230.957 24.9023 270.02 91.7969 297.852 226.074 c 0
377.93 226.074 m 0
 372.07 197.266 364.258 170.898 354.492 146.484 c 0
 344.727 122.07 332.52 99.6094 317.871 79.1016 c 0
 277.832 20.9961 229.98 -7.8125 173.828 -7.8125 c 0
 145.508 -7.8125 123.047 -0.488281 106.445 14.1602 c 0
 90.332 28.8086 78.125 47.3633 70.8008 70.3125 c 0
 63.4766 93.2617 60.5469 118.652 61.0352 145.996 c 0
 61.5234 173.34 64.4531 200.195 69.8242 226.074 c 0
 75.1953 251.465 83.4961 277.832 95.2148 305.664 c 0
 106.445 333.008 120.605 358.398 137.695 381.348 c 0
 154.297 404.297 174.316 423.34 197.266 438.477 c 0
 220.703 453.613 246.094 460.938 273.926 460.938 c 0
 330.566 460.938 366.211 431.641 379.883 373.047 c 0
 390.625 331.543 390.137 282.715 377.93 226.074 c 0
EndSplineSet
EndChar
StartChar: one
Encoding: 49 49 18
Width: 341
Flags: W
HStem: 0 16<49 73.2862 285 305> 450 20G<316 328>
DStem: 201 348 328 470 145 85 245 81
Fore
305 16 m 1
 302 0 l 1
 46 0 l 1
 49 16 l 1
 128 16 136 42 145 85 c 2
 201 348 l 2
 202.6 354.8 204.52 363.68 204.52 371.888 c 0
 204.52 384.2 200.2 395 184 395 c 0
 175 395 150 386 124 378 c 1
 128 395 l 1
 316 470 l 1
 328 470 l 1
 245 81 l 2
 242.379 68.9434 240.582 58.7416 240.582 50.2506 c 0
 240.582 26.3454 254.823 16 305 16 c 1
EndSplineSet
Back
207.031 0 m 1
 19.043 0 l 1
 24.9023 26.8555 l 1
 46.3867 26.8555 62.0117 29.7852 71.2891 35.1562 c 0
 81.0547 40.5273 87.8906 51.7578 91.7969 68.8477 c 1
 154.785 367.188 l 1
 157.715 381.836 155.273 389.16 147.949 389.16 c 0
 145.508 389.16 126.953 382.812 92.7734 371.094 c 1
 98.1445 396.973 l 1
 229.98 461.914 l 1
 247.07 458.984 l 1
 161.133 58.1055 l 2
 157.715 42.4805 159.18 33.2031 166.016 29.7852 c 1
 166.016 30.7617 l 1
 173.34 28.3203 188.965 26.8555 212.891 26.8555 c 1
 207.031 0 l 1
EndSplineSet
EndChar
StartChar: two
Encoding: 50 50 19
Width: 341
Flags: W
HStem: 0 91<128 296> 392 78<207 271>
VStem: 271.728 103.066<323.642 375.675>
Fore
374.794 375.675 m 0
 374.794 337.446 361.463 275.143 262 196 c 2
 128 91 l 1
 231 91 l 2
 304 91 312 98 341 144 c 1
 357 144 l 1
 296 0 l 1
 12 0 l 1
 15 16 l 1
 150 134 253 224 270 305 c 0
 270.889 309.222 271.728 315.864 271.728 323.642 c 0
 271.728 350.864 261.444 392 207 392 c 0
 191 392 148 388 110 330 c 1
 91 330 l 1
 113 369 175 470 271 470 c 0
 308.908 470 374.794 451.348 374.794 375.675 c 0
EndSplineSet
Back
349.121 104.004 m 1
 287.109 0 l 1
 21.9727 0 l 1
 25.8789 19.043 l 1
 169.922 146.973 l 2
 235.84 205.566 274.902 259.766 286.133 310.059 c 0
 291.992 337.891 289.551 359.375 277.832 374.023 c 0
 266.602 388.672 247.559 395.996 220.215 395.996 c 0
 198.73 395.996 179.199 387.207 162.109 370.117 c 0
 149.902 358.887 134.766 337.891 116.211 307.129 c 1
 88.8672 314.941 l 1
 105.469 359.863 128.906 395.02 158.691 421.387 c 0
 187.988 447.754 224.121 460.938 266.113 460.938 c 0
 284.18 460.938 299.805 458.008 313.477 451.66 c 0
 327.148 445.312 338.379 436.523 347.656 424.805 c 0
 356.445 413.574 362.305 400.391 365.723 384.277 c 0
 368.652 368.652 368.164 352.051 363.77 333.984 c 0
 354.004 285.156 313.965 229.98 244.141 167.969 c 2
 127.93 65.918 l 1
 261.23 65.918 l 2
 274.414 65.918 285.156 68.8477 293.945 75.1953 c 0
 296.875 77.1484 300.293 81.0547 305.664 86.9141 c 0
 310.547 92.7734 317.383 101.562 326.172 112.793 c 1
 349.121 104.004 l 1
EndSplineSet
EndChar
StartChar: three
Encoding: 51 51 20
Width: 341
Flags: W
HStem: -10 101<72 112> 414 56<209 278>
VStem: 268.38 107.266<363.922 400.477>
Fore
20.8267 42.1836 m 0
 20.8267 72.3991 47.4606 91 72 91 c 0
 130 91 136 25 178 25 c 0
 211 25 251 44 265 106 c 0
 266.957 115.371 267.863 124.073 267.863 132.166 c 0
 267.863 202.661 199.057 226.854 156 243 c 1
 158 255 l 1
 193 265 253 282 266 344 c 0
 267.571 350.981 268.38 357.657 268.38 363.922 c 0
 268.38 393.557 250.274 414 209 414 c 0
 162 414 129 373 116 357 c 1
 103 365 l 1
 132 408 198 470 278 470 c 0
 335.574 470 375.646 447.932 375.646 400.477 c 0
 375.646 393.532 374.787 386.043 373 378 c 0
 362 325 331 308 298 290 c 1
 338.256 273.569 358.939 237.564 358.939 196.403 c 0
 358.939 187.463 357.963 178.279 356 169 c 0
 336 74 235 -10 112 -10 c 0
 61.8385 -10 20.8267 6.6359 20.8267 42.1836 c 0
EndSplineSet
Back
320.801 149.902 m 0
 310.547 99.1211 282.227 59.5703 236.816 29.7852 c 0
 217.773 16.6016 196.289 6.83594 173.34 0.976562 c 0
 150.391 -4.88281 126.465 -7.8125 101.074 -7.8125 c 0
 92.2852 -7.8125 84.4727 -7.32422 78.125 -5.85938 c 0
 71.2891 -4.88281 65.4297 -2.92969 60.0586 -0.976562 c 0
 52.7344 1.46484 45.4102 5.85938 38.5742 12.207 c 0
 31.7383 18.0664 29.2969 26.3672 32.2266 37.1094 c 0
 34.668 48.3398 40.0391 56.1523 47.3633 61.0352 c 0
 55.1758 65.4297 62.9883 67.8711 70.8008 67.8711 c 0
 75.6836 67.8711 81.543 66.8945 88.8672 63.9648 c 0
 96.1914 61.5234 104.492 56.1523 113.77 48.8281 c 0
 123.535 42.4805 131.348 37.5977 138.672 35.1562 c 0
 145.508 32.2266 150.879 30.7617 154.785 30.7617 c 0
 179.199 30.7617 199.707 40.5273 216.797 60.0586 c 0
 234.375 78.125 245.117 99.1211 250 124.023 c 0
 253.418 139.16 253.906 151.367 250.977 160.156 c 0
 245.605 178.223 234.375 191.895 217.285 202.148 c 0
 200.684 211.914 174.805 216.797 140.137 216.797 c 1
 142.09 241.211 l 1
 218.75 263.672 261.719 298.34 270.996 345.215 c 0
 274.902 362.793 272.461 377.441 263.672 388.184 c 0
 254.395 398.438 241.211 403.809 224.121 403.809 c 0
 189.941 403.809 155.273 380.371 120.117 333.008 c 1
 94.2383 340.82 l 1
 135.254 420.898 189.453 460.938 256.836 460.938 c 0
 287.598 460.938 311.523 452.637 329.102 436.523 c 0
 346.191 420.41 351.562 396.484 345.215 365.234 c 0
 336.914 330.566 312.988 299.805 272.949 273.926 c 1
 280.273 269.531 286.621 264.648 292.48 259.766 c 0
 298.34 255.371 303.223 250.488 307.129 246.094 c 0
 316.895 234.863 322.754 220.215 324.219 202.637 c 0
 325.195 185.059 324.219 167.48 320.801 149.902 c 0
EndSplineSet
EndChar
StartChar: four
Encoding: 52 52 21
Width: 341
Flags: W
HStem: 0 174<78 281> 98 76<78 203 318 345> 450 20G<327 381>
DStem: 203 98 302 98 182 0 281 0 264 375 381 470 221 174 318 174
Fore
318 174 m 1
 361 174 l 1
 345 98 l 1
 302 98 l 1
 281 0 l 1
 182 0 l 1
 203 98 l 1
 34 98 l 1
 50 175 l 1
 132 272 246 388 327 470 c 1
 381 470 l 1
 318 174 l 1
221 174 m 1
 264 375 l 1
 262 375 l 1
 78 174 l 1
 221 174 l 1
EndSplineSet
Back
214.844 166.016 m 1
 253.906 346.191 l 1
 90.8203 166.016 l 1
 214.844 166.016 l 1
333.984 107.91 m 1
 271.973 107.91 l 1
 249.023 0 l 1
 181.152 0 l 1
 204.102 107.91 l 1
 26.8555 107.91 l 1
 38.0859 160.156 l 1
 301.758 452.148 l 1
 345.215 452.148 l 1
 284.18 166.016 l 1
 346.191 166.016 l 1
 333.984 107.91 l 1
EndSplineSet
EndChar
StartChar: five
Encoding: 53 53 22
Width: 341
Flags: W
HStem: -5 101<77 112> 375 87<198 372>
VStem: 279.618 65.8616<122.031 191.359>
DStem: 199 462 182 375 83 226 155 320
Fore
25.7558 44.5555 m 0
 25.7558 71.0114 47.4998 96 77 96 c 0
 124 96 151 36 194 36 c 0
 218 36 266 51 278 107 c 0
 279.101 112.136 279.618 117.152 279.618 122.031 c 0
 279.618 157.046 252.965 184.957 224 199 c 0
 183 219 131 223 83 226 c 1
 199 462 l 1
 419 462 l 1
 372 375 l 1
 182 375 l 1
 155 320 l 1
 216 316 257 312 298 286 c 0
 320.367 271.917 345.48 239.991 345.48 191.359 c 0
 345.48 181.286 344.402 170.496 342 159 c 0
 323 70 236 -5 112 -5 c 0
 63.9453 -5 25.7558 12.2639 25.7558 44.5555 c 0
EndSplineSet
Back
394.043 460.938 m 1
 353.027 395.996 l 2
 348.145 389.16 339.844 386.23 327.148 386.23 c 2
 208.008 386.23 l 1
 179.199 345.215 l 1
 213.867 338.867 241.211 329.59 262.207 316.406 c 0
 282.715 303.711 297.852 289.551 307.129 273.926 c 0
 315.43 260.742 320.801 242.188 322.266 219.238 c 0
 324.219 195.801 323.242 174.805 318.848 155.762 c 0
 309.082 105.469 282.227 64.9414 237.793 35.1562 c 0
 195.801 6.34766 151.367 -7.8125 104.004 -7.8125 c 0
 43.9453 -7.8125 17.0898 7.8125 22.9492 39.0625 c 0
 25.8789 50.293 31.7383 58.5938 41.0156 64.4531 c 0
 50.293 70.3125 58.5938 73.2422 65.918 73.2422 c 0
 82.0312 73.2422 98.6328 65.4297 116.211 49.8047 c 0
 122.559 43.9453 128.906 39.5508 134.766 37.1094 c 0
 141.113 34.1797 146.484 33.2031 150.879 33.2031 c 0
 175.781 33.2031 197.266 44.4336 215.82 66.8945 c 0
 225.098 77.6367 232.91 89.3555 238.281 101.562 c 0
 244.141 113.77 248.535 127.441 251.953 142.09 c 0
 262.207 186.035 249.023 219.238 212.891 242.188 c 0
 197.754 251.465 181.152 258.789 163.574 264.16 c 0
 145.996 269.531 127.441 271.973 107.91 271.973 c 0
 98.6328 271.973 95.2148 276.855 97.168 286.133 c 2
 98.1445 291.016 l 1
 206.055 454.102 l 1
 346.191 454.102 l 2
 353.516 454.102 363.77 461.426 377.93 476.074 c 1
 394.043 460.938 l 1
EndSplineSet
EndChar
StartChar: six
Encoding: 54 54 23
Width: 341
Flags: W
HStem: -9 19<171 187> 257 30<218 262>
VStem: 51.9629 94.5285<58.3547 125.011> 257.456 102.731<182 204>
Fore
51.9629 125.011 m 0
 51.9629 306.899 207.849 448.685 421 470 c 1
 417 452 l 1
 346 438 254 401 198 276 c 1
 216 283 229 287 262 287 c 0
 302.28 287 360.187 268.638 360.187 189.112 c 0
 360.187 175.843 358.575 160.872 355 144 c 0
 347 107 296 -9 173 -9 c 0
 121.682 -9 51.9629 18.6021 51.9629 125.011 c 0
244 107 m 0
 252.413 146.262 257.456 178.141 257.456 202.251 c 0
 257.456 238.32 246.17 257 218 257 c 0
 207 257 194 256 185 248 c 0
 185 247 170 209 166 186 c 0
 153.249 127.083 146.491 85.9511 146.491 58.3547 c 0
 146.491 23.1863 157.467 10 181 10 c 0
 223 10 232 53 244 107 c 0
EndSplineSet
Back
259.766 124.023 m 0
 277.832 206.543 261.23 248.047 208.984 248.047 c 0
 198.242 248.047 188.477 247.07 179.688 244.629 c 0
 170.41 242.188 162.109 237.793 154.785 231.934 c 1
 151.855 226.074 147.949 218.262 144.531 208.496 c 0
 140.625 198.73 137.207 187.5 133.789 173.828 c 0
 130.859 158.691 127.93 142.09 126.465 125 c 0
 125 107.91 125.488 91.7969 127.93 77.6367 c 0
 130.859 62.9883 136.23 51.2695 144.043 41.5039 c 0
 151.855 31.7383 164.062 26.8555 180.176 26.8555 c 0
 191.406 26.8555 201.172 29.7852 209.961 35.1562 c 0
 218.75 40.5273 226.562 47.3633 232.91 56.6406 c 0
 239.746 65.4297 245.117 75.6836 249.512 87.4023 c 0
 253.906 99.1211 257.324 111.328 259.766 124.023 c 0
340.82 149.902 m 0
 336.426 127.93 328.613 107.422 317.871 87.8906 c 0
 307.129 68.8477 294.434 51.7578 278.809 37.5977 c 0
 263.672 22.9492 246.094 12.207 226.562 3.90625 c 0
 207.031 -3.90625 185.547 -7.8125 162.109 -7.8125 c 0
 133.789 -7.8125 111.816 -1.95312 96.1914 9.76562 c 0
 80.0781 21.9727 68.3594 37.5977 61.0352 57.1289 c 0
 53.7109 76.1719 50.293 98.1445 50.293 123.047 c 0
 50.7812 147.461 53.7109 172.363 59.082 196.777 c 0
 66.8945 232.91 82.0312 267.09 103.516 298.828 c 0
 125 331.055 151.367 358.887 181.641 382.812 c 0
 211.914 407.227 245.117 425.781 282.227 439.941 c 0
 318.848 454.102 355.469 460.938 392.09 460.938 c 1
 390.137 435.059 l 1
 339.844 426.27 296.387 408.203 258.789 380.371 c 0
 221.68 353.027 192.383 317.383 170.898 273.926 c 1
 176.27 276.855 181.152 278.809 185.547 280.273 c 0
 189.941 282.227 194.824 284.18 200.195 286.133 c 0
 217.285 291.992 232.91 294.922 247.07 294.922 c 0
 266.113 294.922 283.203 291.504 296.875 284.18 c 0
 311.035 276.855 321.777 266.602 330.078 253.418 c 0
 337.891 240.723 342.773 225.098 344.727 207.52 c 0
 346.191 189.941 345.215 170.898 340.82 149.902 c 0
EndSplineSet
EndChar
StartChar: seven
Encoding: 55 55 24
Width: 341
Flags: W
HStem: 0 21G<100 165> 368 94<140 315>
Fore
424 462 m 1
 165 0 l 1
 100 0 l 1
 315 368 l 1
 174 368 l 2
 156 368 122 368 95 310 c 1
 78 310 l 1
 140 462 l 1
 424 462 l 1
EndSplineSet
Back
399.902 431.152 m 1
 168.945 -3.90625 l 1
 107.91 -3.90625 l 1
 317.871 388.184 l 1
 190.918 388.184 l 2
 174.805 388.184 161.133 383.789 148.926 375.977 c 0
 146.484 374.512 141.602 370.117 135.742 362.793 c 0
 129.395 355.469 120.117 345.215 108.887 331.055 c 1
 84.9609 342.773 l 1
 149.902 453.125 l 1
 403.809 453.125 l 1
 399.902 431.152 l 1
EndSplineSet
EndChar
StartChar: eight
Encoding: 56 56 25
Width: 341
Flags: W
HStem: -9 22<158 183> 450 20<262 282>
VStem: 39.3963 81.6493<70 88> 98.5707 98.67<325.705 379.019> 312.481 81.3497<379 400>
Fore
267 450 m 0
 229.083 450 197.241 417.838 197.241 379.019 c 0
 197.241 324.539 259.431 291.655 264 288 c 1
 288.639 312.639 312.481 344.977 312.481 398.019 c 0
 312.481 424.81 302.85 450 267 450 c 0
393.831 388.969 m 0
 393.831 319.084 319.658 288.51 279 276 c 1
 322.454 246.179 352.84 206.92 352.84 156.987 c 0
 352.84 148.316 351.924 139.322 350 130 c 0
 331 44 257 -9 160 -9 c 0
 94.1562 -9 39.3963 22.6685 39.3963 82.4831 c 0
 39.3963 89.8924 40.2365 97.7336 42 106 c 0
 57 180 120 207 169 221 c 1
 129.321 246.015 98.5707 280.703 98.5707 325.705 c 0
 98.5707 332.874 99.351 340.305 101 348 c 0
 115 412 172 470 282 470 c 0
 370.123 470 393.831 426.081 393.831 388.969 c 0
170 13 m 0
 234.658 13 249.251 87.4136 249.251 113.215 c 0
 249.251 156.448 215.886 181.963 181 209 c 1
 150.414 173.883 121.046 136.952 121.046 73.6571 c 0
 121.046 39.3389 135.573 13 170 13 c 0
EndSplineSet
Back
285.156 362.793 m 0
 289.062 380.371 287.109 394.531 279.785 405.762 c 0
 271.973 419.922 258.301 426.758 238.77 426.758 c 0
 223.145 426.758 208.496 421.875 194.824 411.133 c 0
 181.641 400.391 172.852 386.23 168.945 368.164 c 0
 163.086 337.891 179.199 307.129 216.797 274.902 c 1
 226.562 280.762 234.375 286.621 241.211 291.992 c 0
 247.559 297.363 251.465 300.781 252.93 303.223 c 0
 269.531 319.824 280.273 339.844 285.156 362.793 c 0
235.84 90.8203 m 0
 240.723 113.77 238.281 131.348 229.004 144.043 c 0
 224.121 149.902 217.285 157.715 208.496 166.992 c 0
 199.707 176.27 187.5 187.5 172.852 201.172 c 1
 162.109 192.383 154.785 186.035 150.879 182.617 c 0
 146.973 178.711 144.043 175.781 142.09 172.852 c 0
 135.254 165.527 129.395 156.738 124.512 145.508 c 0
 119.629 134.277 115.723 123.047 112.793 110.84 c 0
 107.91 86.9141 109.375 66.8945 118.164 50.7812 c 0
 126.465 35.1562 142.09 26.8555 164.062 26.8555 c 0
 181.152 26.8555 196.777 33.2031 209.961 44.9219 c 0
 223.145 57.1289 231.934 72.2656 235.84 90.8203 c 0
305.176 106.934 m 0
 300.781 86.9141 293.945 69.8242 283.691 55.6641 c 0
 272.949 41.0156 261.23 29.2969 247.07 20.0195 c 0
 232.91 10.7422 217.285 3.90625 200.684 -0.976562 c 0
 183.594 -5.85938 166.016 -7.8125 147.949 -7.8125 c 0
 131.348 -7.8125 116.211 -5.37109 102.051 -0.488281 c 0
 87.8906 4.39453 76.1719 11.7188 66.4062 21.4844 c 0
 56.6406 31.25 49.8047 42.9688 45.4102 56.6406 c 0
 41.0156 70.3125 41.0156 85.9375 44.9219 104.004 c 0
 48.3398 118.652 52.2461 130.859 57.1289 141.113 c 0
 61.5234 150.879 67.3828 159.668 74.2188 167.48 c 0
 80.5664 175.293 88.3789 182.617 97.6562 189.453 c 0
 106.445 196.289 117.188 204.102 128.906 212.891 c 0
 131.836 214.355 134.277 215.82 137.207 217.773 c 0
 139.648 220.215 143.555 222.656 147.949 226.074 c 1
 145.508 229.98 142.578 233.887 140.137 236.816 c 0
 137.207 240.234 134.766 243.652 132.812 247.07 c 0
 125.488 254.883 119.141 262.695 113.77 269.531 c 0
 108.887 276.367 104.492 283.691 102.051 291.504 c 0
 99.1211 299.316 98.1445 307.617 98.1445 316.895 c 0
 98.1445 327.148 99.1211 338.867 102.051 352.051 c 0
 105.469 369.141 111.816 384.766 122.07 397.949 c 0
 131.836 411.133 144.043 422.852 157.715 432.129 c 0
 171.387 441.406 186.035 448.73 202.148 453.613 c 0
 217.773 458.496 233.887 460.938 250 460.938 c 0
 265.137 460.938 279.785 458.984 292.969 455.078 c 0
 306.152 451.172 317.871 444.824 327.148 436.523 c 0
 336.426 428.223 342.773 417.48 346.68 404.785 c 0
 350.098 392.09 350.098 377.441 347.168 359.863 c 0
 340.82 332.52 328.613 311.035 310.547 294.922 c 0
 291.992 278.809 270.508 264.16 245.117 250 c 1
 247.07 247.559 249.512 244.629 252.441 241.699 c 0
 255.371 238.281 258.301 235.84 261.23 232.91 c 0
 269.531 224.121 277.344 215.82 284.668 207.52 c 0
 291.504 199.219 296.875 189.941 300.781 180.664 c 0
 305.176 170.898 307.617 160.156 308.594 148.438 c 0
 309.57 136.719 308.105 123.047 305.176 106.934 c 0
EndSplineSet
EndChar
StartChar: nine
Encoding: 57 57 26
Width: 341
Flags: W
HStem: 173 31<178 223> 451 19<253 269>
VStem: 79.8134 103.44<255 273> 293.835 94.2017<335.989 403.268>
Fore
388.037 335.989 m 0
 388.037 154.101 232.151 12.3151 19 -9 c 1
 23 9 l 1
 94 23 181 57 244 186 c 1
 222.419 177.008 206.371 173 178 173 c 0
 137.72 173 79.8134 192.096 79.8134 271.833 c 0
 79.8134 285.136 81.4253 300.128 85 317 c 0
 93 354 144 470 267 470 c 0
 318.318 470 388.037 442.398 388.037 335.989 c 0
197 354 m 0
 188.481 314.243 183.253 282.057 183.253 257.842 c 0
 183.253 222.367 194.473 204 223 204 c 0
 234 204 253 208 255 213 c 0
 274.453 255.797 293.835 369.208 293.835 403.268 c 0
 293.835 438.013 282.911 451 259 451 c 0
 218 451 209 408 197 354 c 0
EndSplineSet
Back
289.062 268.066 m 1
 311.035 374.023 297.363 426.758 248.047 426.758 c 0
 208.008 426.758 180.176 391.113 165.039 319.824 c 0
 162.109 307.129 160.645 293.945 160.156 279.297 c 0
 159.18 265.137 160.645 252.441 163.574 241.211 c 0
 166.504 229.492 171.875 220.215 179.688 212.402 c 0
 187.012 204.59 198.242 201.172 212.891 201.172 c 0
 232.91 201.172 252.93 208.008 272.949 222.168 c 1
 277.832 224.121 280.762 230.469 283.203 242.188 c 1
 289.062 268.066 l 1
370.117 269.043 m 0
 354.004 192.871 317.383 129.395 259.766 78.125 c 0
 193.359 17.0898 119.141 -13.1836 37.1094 -13.1836 c 1
 39.0625 16.1133 l 1
 62.5 18.5547 84.9609 24.9023 106.445 34.1797 c 0
 127.93 43.457 148.438 55.1758 167.48 69.3359 c 0
 186.523 83.9844 204.102 100.098 220.215 118.164 c 0
 235.84 136.23 249.512 155.273 259.766 175.781 c 1
 233.398 162.598 206.055 155.762 178.223 155.762 c 0
 140.137 155.762 111.816 169.922 94.2383 198.242 c 0
 78.125 223.145 74.2188 255.371 82.0312 293.945 c 0
 87.4023 317.383 95.2148 338.867 105.469 357.91 c 0
 115.723 377.441 128.418 394.531 143.066 410.156 c 0
 176.758 443.848 216.797 460.938 262.207 460.938 c 0
 310.547 460.938 344.238 439.941 362.793 397.949 c 0
 378.418 359.863 380.859 316.895 370.117 269.043 c 0
EndSplineSet
EndChar
StartChar: colon
Encoding: 58 58 27
Width: 227
Flags: W
HStem: -9 116<111 136> -9 116<111 136> 207 115<157 181>
Fore
64.6043 35.4967 m 0
 64.6043 74.9828 103.68 107 136 107 c 0
 163.691 107 182.396 86.7824 182.396 60.6023 c 0
 182.396 20.703 144.054 -9 111 -9 c 0
 83.3093 -9 64.6043 9.72002 64.6043 35.4967 c 0
110.898 253.441 m 0
 110.898 293.163 149.041 322 181 322 c 0
 208.835 322 228.348 302.327 228.348 276.803 c 0
 228.348 237.695 189.894 207 157 207 c 0
 128.957 207 110.898 226.967 110.898 253.441 c 0
EndSplineSet
Back
83.0078 275.879 m 0
 79.5898 263.184 80.5664 252.441 85.9375 244.141 c 0
 91.3086 235.352 99.6094 230.957 110.84 230.957 c 0
 122.559 230.957 132.324 235.352 141.602 244.141 c 0
 150.391 252.441 156.738 263.184 160.156 275.879 c 0
 162.598 288.574 161.133 299.316 155.273 308.105 c 0
 149.902 316.895 141.113 320.801 129.883 320.801 c 0
 118.652 320.801 108.887 316.895 100.098 308.105 c 0
 91.3086 299.316 85.4492 288.574 83.0078 275.879 c 0
32.2266 39.0625 m 0
 29.2969 26.3672 30.7617 15.625 36.1328 6.83594 c 0
 41.5039 -1.46484 49.8047 -5.85938 61.0352 -5.85938 c 0
 72.2656 -5.85938 82.5195 -1.46484 91.3086 6.83594 c 0
 100.586 15.625 106.445 26.3672 108.887 39.0625 c 0
 112.305 51.7578 111.328 62.5 105.469 70.8008 c 0
 99.6094 79.5898 91.3086 83.9844 80.0781 83.9844 c 0
 68.8477 83.9844 58.5938 79.5898 49.8047 70.8008 c 0
 41.5039 62.5 35.1562 51.7578 32.2266 39.0625 c 0
EndSplineSet
EndChar
StartChar: semicolon
Encoding: 59 59 28
Width: 227
Flags: W
HStem: -4 110<106 135> 207 115<157 181>
Fore
65.0782 33.975 m 0
 65.0782 74.8742 98.7362 106 135 106 c 0
 175.436 106 190.365 78.5302 190.365 48.9799 c 0
 190.365 41.991 189.53 34.8858 188 28 c 0
 170 -58 82 -102 42 -123 c 1
 38 -108 l 1
 59.9803 -95.0117 131.592 -49.8083 131.592 -13.4531 c 0
 131.592 -7.5232 128.235 -3 121 -3 c 2
 106 -4 l 2
 103.332 -4 65.0782 -4 65.0782 33.975 c 0
110.898 253.441 m 0
 110.898 293.163 149.041 322 181 322 c 0
 208.835 322 228.348 302.327 228.348 276.803 c 0
 228.348 237.695 189.894 207 157 207 c 0
 128.957 207 110.898 226.967 110.898 253.441 c 0
EndSplineSet
Back
95.2148 82.0312 m 0
 93.75 83.4961 91.3086 83.9844 87.8906 84.4727 c 0
 84.4727 84.9609 81.543 84.9609 78.125 84.9609 c 0
 66.8945 84.9609 56.1523 81.0547 45.8984 73.2422 c 0
 36.1328 64.9414 29.7852 55.1758 26.8555 42.9688 c 0
 24.4141 31.7383 26.3672 21.9727 33.2031 14.1602 c 0
 39.5508 5.85938 48.8281 1.95312 60.0586 1.95312 c 0
 65.4297 1.95312 71.2891 2.44141 78.125 3.90625 c 1
 77.1484 -0.976562 l 2
 75.1953 -11.2305 69.3359 -20.5078 59.5703 -29.7852 c 0
 49.8047 -39.5508 40.5273 -46.875 30.7617 -53.2227 c 0
 25.8789 -56.1523 21.9727 -58.5938 19.5312 -59.5703 c 0
 17.0898 -60.5469 16.1133 -61.0352 16.1133 -61.0352 c 1
 20.0195 -86.9141 l 1
 20.0195 -86.9141 24.4141 -84.9609 33.6914 -81.0547 c 0
 42.4805 -77.1484 52.7344 -70.8008 63.9648 -62.0117 c 0
 75.1953 -53.2227 86.4258 -42.4805 97.168 -29.7852 c 0
 107.91 -17.0898 115.234 -1.95312 119.141 16.1133 c 0
 123.047 33.2031 122.559 47.3633 117.188 58.5938 c 0
 111.816 69.3359 104.492 77.1484 95.2148 82.0312 c 0
79.1016 279.785 m 0
 75.6836 267.09 76.6602 256.836 82.0312 248.047 c 0
 87.4023 239.258 95.7031 234.863 106.934 234.863 c 0
 118.164 234.863 128.418 239.258 137.695 248.047 c 0
 146.484 256.836 152.832 267.09 155.762 279.785 c 0
 158.691 292.48 157.227 303.223 151.367 312.012 c 0
 145.996 320.801 137.207 325.195 125.977 325.195 c 0
 114.746 325.195 104.492 320.801 96.1914 312.012 c 0
 87.4023 303.223 81.543 292.48 79.1016 279.785 c 0
EndSplineSet
EndChar
StartChar: less
Encoding: 60 60 29
Width: 389
Flags: W
DStem: 52 147 136 173 367 -5 380 55 443 351 430 291 63 199 136 173
Fore
380 55 m 1
 367 -5 l 1
 52 147 l 1
 63 199 l 1
 443 351 l 1
 430 291 l 1
 136 173 l 1
 380 55 l 1
EndSplineSet
Back
354.98 -8.78906 m 1
 34.1797 151.855 l 1
 44.9219 203.125 l 1
 435.059 365.234 l 1
 422.852 310.059 l 1
 104.98 178.223 l 1
 367.188 45.8984 l 1
 354.98 -8.78906 l 1
EndSplineSet
EndChar
StartChar: equal
Encoding: 61 61 30
Width: 389
Flags: W
HStem: 73 60<50 383> 212 60<80 412>
Fore
425 272 m 1
 412 212 l 1
 68 212 l 1
 81 272 l 1
 425 272 l 1
395 133 m 1
 383 73 l 1
 39 73 l 1
 51 133 l 1
 395 133 l 1
EndSplineSet
Back
428.223 208.984 m 1
 75.1953 208.984 l 1
 85.9375 256.836 l 1
 438.965 256.836 l 1
 428.223 208.984 l 1
400.879 82.0312 m 1
 47.8516 82.0312 l 1
 59.082 129.883 l 1
 412.109 129.883 l 1
 400.879 82.0312 l 1
EndSplineSet
EndChar
StartChar: greater
Encoding: 62 62 31
Width: 389
Flags: W
DStem: 83 291 96 351 327 173 410 199 327 173 399 147 33 55 20 -5
Fore
33 55 m 1
 327 173 l 1
 83 291 l 1
 96 351 l 1
 410 199 l 1
 399 147 l 1
 20 -5 l 1
 33 55 l 1
EndSplineSet
Back
416.016 151.855 m 1
 26.8555 -8.78906 l 1
 39.0625 45.8984 l 1
 355.957 178.223 l 1
 95.2148 310.059 l 1
 106.934 365.234 l 1
 426.758 203.125 l 1
 416.016 151.855 l 1
EndSplineSet
EndChar
StartChar: question
Encoding: 63 63 32
Width: 341
Flags: W
HStem: -9 116<161 186> -9 116<161 186> 300 20G<140.745 161.5> 446 24<238 271>
VStem: 116.558 89.7297<359 375> 282.298 99.8708<373 394>
Fore
116.558 359.351 m 0
 116.558 409.149 171.895 470 271 470 c 0
 290.92 470 382.169 464.261 382.169 382.258 c 0
 382.169 320.495 340.988 281.359 294 255 c 0
 235.14 222.472 218.38 220.59 207 158 c 1
 186 158 l 1
 188 171 189 180 191 188 c 0
 204.49 250.26 282.298 292.44 282.298 392.906 c 0
 282.298 419.35 273.693 446 238 446 c 0
 230.298 446 191.547 441.47 191.547 414.437 c 0
 191.547 399.992 206.288 395.594 206.288 375.259 c 0
 206.288 371.962 205.901 368.246 205 364 c 0
 198 328 168 320 155 320 c 0
 126.49 320 116.558 339.243 116.558 359.351 c 0
113.607 35.529 m 0
 113.607 75.102 152.781 107 186 107 c 0
 213.691 107 232.396 86.7824 232.396 60.6023 c 0
 232.396 20.703 194.054 -9 161 -9 c 0
 132.432 -9 113.607 9.73564 113.607 35.529 c 0
EndSplineSet
Back
330.078 353.027 m 0
 333.496 367.188 334.473 380.859 333.496 394.043 c 0
 332.52 407.227 328.125 419.922 320.801 432.129 c 0
 311.523 448.242 298.34 458.984 280.273 464.355 c 0
 262.695 470.215 245.605 473.145 229.004 473.145 c 0
 213.867 473.145 198.73 470.703 183.594 465.332 c 0
 168.457 460.449 154.785 453.125 142.09 443.848 c 0
 129.395 434.57 118.652 423.34 109.375 410.645 c 0
 100.586 397.461 94.2383 382.812 90.8203 367.188 c 0
 87.8906 349.609 89.3555 336.914 96.6797 328.613 c 0
 103.516 320.312 111.816 315.918 122.07 315.918 c 0
 131.348 315.918 140.137 318.848 147.949 324.707 c 0
 155.762 330.078 161.133 338.867 163.086 350.098 c 1
 164.062 353.027 l 2
 165.527 357.91 165.527 363.281 164.062 369.629 c 0
 162.598 375.977 160.156 381.348 155.762 386.23 c 0
 152.832 389.16 150.879 392.578 149.902 395.996 c 0
 149.414 399.414 149.414 401.855 149.902 402.832 c 0
 150.879 411.133 157.715 418.457 170.898 425.781 c 0
 176.27 429.199 182.617 431.641 189.453 433.594 c 0
 196.289 435.059 202.637 436.035 208.008 436.035 c 0
 228.027 436.035 241.699 428.711 249.512 414.062 c 0
 257.324 399.414 258.301 380.859 252.93 358.887 c 0
 250.488 345.703 245.605 331.055 238.77 314.453 c 0
 232.422 298.34 222.168 280.273 208.984 261.23 c 1
 183.105 219.238 l 2
 171.875 201.66 162.598 184.082 155.762 166.504 c 0
 149.414 148.926 144.043 130.371 140.137 110.84 c 1
 167.969 110.84 l 1
 183.105 150.391 194.824 174.805 202.148 184.082 c 0
 210.449 194.824 219.238 204.59 228.027 213.867 c 0
 236.816 223.145 245.605 232.91 254.883 242.188 c 0
 278.32 263.184 295.898 283.203 307.617 301.758 c 0
 319.336 320.801 326.66 337.891 330.078 353.027 c 0
96.1914 39.0625 m 0
 93.2617 26.8555 95.2148 16.6016 102.051 8.30078 c 0
 108.887 0 118.164 -3.90625 129.883 -3.90625 c 0
 142.09 -3.90625 153.32 0 163.574 8.30078 c 0
 173.828 16.6016 180.176 26.8555 183.105 39.0625 c 0
 185.547 50.7812 183.594 61.5234 176.758 69.8242 c 0
 170.41 78.6133 161.133 83.0078 148.926 83.0078 c 0
 137.207 83.0078 125.977 78.6133 115.723 69.8242 c 0
 104.98 61.5234 98.6328 50.7812 96.1914 39.0625 c 0
EndSplineSet
EndChar
StartChar: at
Encoding: 64 64 33
Width: 635
Flags: W
HStem: -13 31<322 356> 98 25<452 468> 322 32<423 436> 445 27<418 446>
VStem: 115.934 62.025<162 190> 253.679 53.8686<155 171> 398.724 48.1789<141 148> 588.174 33.5884<290 309>
Fore
453 277 m 1
 454.385 283.923 455.077 290.047 455.077 295.373 c 0
 455.077 313.124 447.385 322 432 322 c 0
 398 322 328 271 310 188 c 0
 308.322 180.356 307.548 173.546 307.548 167.525 c 0
 307.548 141.252 322.288 130 341 130 c 0
 371 130 422 178 453 277 c 1
474 318 m 1
 487 345 l 1
 535 345 l 1
 453 168 l 1
 450.263 162.527 446.903 152.686 446.903 143.599 c 0
 446.903 132.763 451.682 123 468 123 c 0
 521 123 572 204 585 264 c 0
 587.112 273.936 588.174 284.197 588.174 294.548 c 0
 588.174 367.531 535.35 445 425 445 c 0
 323 445 215 367 182 212 c 0
 179.286 198.949 177.959 186.031 177.959 173.43 c 0
 177.959 88.5176 238.248 18 341 18 c 0
 403 18 443 33 488 52 c 1
 491 28 l 1
 441 6 390 -13 335 -13 c 0
 175.492 -13 115.934 89.9555 115.934 178.602 c 0
 115.934 192.214 117.338 205.488 120 218 c 0
 153 370 292 472 430 472 c 0
 543.93 472 621.762 404.411 621.762 307.601 c 0
 621.762 293.946 620.214 279.71 617 265 c 0
 602 193 536 98 452 98 c 0
 409.165 98 398.724 132.056 398.724 144.147 c 0
 398.724 145.587 398.314 148.256 398 147 c 1
 388.315 136.346 343.46 97.9409 303.696 97.9409 c 0
 286.571 97.9409 253.679 107.326 253.679 155.072 c 0
 253.679 163.474 254.698 173.064 257 184 c 0
 268 237 337 354 431 354 c 0
 464 354 468 336 474 318 c 1
EndSplineSet
Back
339.844 191.895 m 0
 348.145 205.566 355.469 218.262 361.816 231.445 c 0
 368.652 244.629 373.535 257.812 376.953 270.996 c 0
 380.859 293.457 377.441 305.176 366.211 305.176 c 0
 343.262 305.176 321.289 291.504 299.805 264.16 c 0
 290.039 250.488 281.738 237.793 274.414 225.586 c 0
 267.578 213.379 262.695 200.195 259.766 187.012 c 0
 253.418 156.25 260.742 141.113 282.227 141.113 c 0
 297.852 141.113 317.383 158.203 339.844 191.895 c 0
548.828 258.789 m 0
 541.016 218.262 522.461 182.129 493.164 149.902 c 0
 460.449 111.816 423.34 92.7734 381.836 92.7734 c 0
 370.605 92.7734 361.328 95.2148 354.004 99.6094 c 0
 346.68 104.004 340.332 109.863 334.961 117.188 c 0
 333.496 119.629 332.52 122.07 331.055 124.512 c 0
 329.59 126.953 328.613 129.395 328.125 131.836 c 1
 309.082 117.188 l 2
 299.805 110.352 289.551 104.492 278.809 100.098 c 0
 268.555 95.2148 258.301 92.7734 249.023 92.7734 c 0
 227.051 92.7734 210.938 101.074 201.172 116.699 c 0
 190.918 132.324 188.965 154.785 194.824 185.059 c 0
 201.66 216.309 219.727 250 249.023 286.133 c 0
 284.18 330.078 325.195 352.051 371.094 352.051 c 0
 382.812 352.051 391.113 349.121 395.996 344.238 c 0
 400.879 338.867 403.809 333.984 405.762 330.078 c 1
 412.109 341.797 l 1
 479.004 341.797 l 1
 394.043 165.039 l 1
 390.137 148.926 l 2
 387.207 138.184 391.113 132.812 400.879 132.812 c 0
 413.574 132.812 425.781 137.207 437.012 145.996 c 0
 448.242 154.785 458.496 165.527 467.285 178.223 c 0
 476.562 190.43 484.375 204.102 490.723 219.238 c 0
 497.07 233.887 501.465 246.582 503.906 257.812 c 0
 509.277 281.25 508.789 303.223 502.441 323.73 c 0
 496.094 343.75 486.328 361.328 472.656 376.465 c 0
 458.984 391.602 442.383 403.32 422.363 411.621 c 0
 402.832 419.922 381.836 423.828 359.863 423.828 c 0
 330.078 423.828 303.223 417.969 278.809 406.738 c 0
 254.883 395.02 233.887 379.395 214.844 359.375 c 0
 196.289 339.844 180.664 316.895 167.969 291.016 c 0
 155.273 265.137 145.996 237.793 140.137 208.984 c 0
 134.766 184.57 134.277 161.133 139.648 139.648 c 0
 144.531 117.676 153.32 99.1211 166.504 83.4961 c 0
 179.688 67.8711 195.801 55.6641 215.82 46.3867 c 0
 235.84 37.5977 258.301 33.2031 283.203 33.2031 c 0
 323.73 33.2031 370.605 44.4336 423.828 67.8711 c 1
 432.129 32.2266 l 1
 397.949 18.5547 368.164 8.78906 342.285 1.95312 c 0
 316.895 -4.88281 294.434 -7.8125 274.902 -7.8125 c 0
 194.336 -7.8125 134.766 17.0898 96.1914 67.8711 c 0
 79.1016 89.8438 68.8477 113.281 64.9414 138.672 c 0
 61.0352 163.574 61.5234 188.965 66.8945 214.844 c 0
 81.543 285.645 117.676 344.238 174.805 391.113 c 0
 233.887 437.5 297.852 460.938 368.164 460.938 c 0
 428.223 460.938 476.074 442.871 512.207 407.227 c 0
 549.805 369.629 562.5 320.312 548.828 258.789 c 0
EndSplineSet
EndChar
StartChar: A
Encoding: 65 65 34
Width: 492
Flags: W
HStem: 0 16.9555<468 472> 135 26<163 301> 451 20G<325 344>
DStem: 263 327 344 471 296 161 420 112 325 471 263 327 94 97 163 161
Fore
470 0 m 1
 249 0 l 1
 253 17 l 1
 281.841 18.3734 314.128 14.8124 314.128 55.514 c 0
 314.128 79.2952 304.37 118.15 301 135 c 1
 148 135 l 1
 138 119 102 61 99 46 c 0
 98.5583 44.0125 98.3497 42.1659 98.3497 40.4498 c 0
 98.3497 18.8528 131.399 17.9264 149 17 c 1
 145 0 l 1
 6 0 l 1
 10 17 l 1
 53 23 72 62 94 97 c 2
 325 471 l 1
 344 471 l 1
 420 112 l 2
 425.911 81.4611 429.881 16.9556 472.063 16.9555 c 0
 472.7 16.9555 473.346 16.9703 474 17 c 1
 470 0 l 1
296 161 m 1
 263 327 l 1
 163 161 l 1
 296 161 l 1
EndSplineSet
Back
207.031 184.082 m 1
 329.102 184.082 l 1
 299.805 328.125 l 1
 207.031 184.082 l 1
484.863 0 m 1
 296.875 0 l 1
 303.223 28.8086 l 1
 330.078 28.8086 l 2
 335.938 28.8086 340.82 30.7617 344.727 34.1797 c 0
 348.145 37.1094 350.098 40.5273 351.074 42.9688 c 0
 352.539 48.3398 352.539 54.6875 351.562 62.5 c 0
 350.586 70.3125 349.121 77.1484 348.145 83.9844 c 2
 335.938 139.16 l 1
 180.176 139.16 l 1
 138.184 68.8477 l 1
 135.254 65.4297 133.301 62.0117 131.836 58.5938 c 0
 130.859 54.6875 129.395 51.2695 127.93 47.8516 c 0
 125.977 35.1562 139.16 28.8086 167.969 28.8086 c 1
 162.109 0 l 1
 11.2305 0 l 1
 17.0898 28.8086 l 1
 28.3203 28.8086 39.5508 32.7148 50.293 39.5508 c 0
 61.5234 46.3867 70.8008 55.1758 78.125 65.918 c 2
 323.242 452.148 l 1
 359.863 452.148 l 1
 442.871 81.0547 l 1
 448.242 60.5469 454.102 46.3867 459.961 39.5508 c 0
 465.82 32.7148 476.562 28.8086 491.211 28.8086 c 1
 484.863 0 l 1
EndSplineSet
EndChar
StartChar: B
Encoding: 66 66 35
Width: 455
Flags: W
HStem: 0 22<218 235> 234 21<234 253> 441 21<109 322>
VStem: 335.738 116.989<148 164> 365.834 110.716<372 387>
DStem: 155 396 267 408 85 66 234 255 155 396 230 234 85 66 194 64
Fore
450 127 m 0
 429 28 310 0 231 0 c 2
 11 0 l 1
 15 17 l 1
 50 20 76 23 85 66 c 2
 155 396 l 2
 156.292 402.029 156.904 407.275 156.904 411.847 c 0
 156.904 439.128 135.12 442.431 106 445 c 1
 109 462 l 1
 320 462 l 6
 385.762 462 476.55 447.818 476.55 374.5 c 0
 476.55 367.545 475.733 360.058 474 352 c 0
 459.415 284.282 391.331 261.667 347 249 c 1
 401.818 239.274 452.727 208.441 452.727 150.972 c 0
 452.727 143.443 451.853 135.456 450 127 c 0
362 353 m 0
 364.411 364.573 365.834 375.682 365.834 385.876 c 0
 365.834 417.964 351.739 441 310 441 c 0
 285 441 272 433 267 408 c 2
 234 255 l 1
 314 255 345 272 362 353 c 0
331 124 m 0
 334.138 138.319 335.738 151.253 335.738 162.794 c 0
 335.738 210.092 308.877 234 251 234 c 2
 230 234 l 1
 194 64 l 2
 192.576 57.8966 191.855 52.5382 191.855 47.8743 c 0
 191.855 29.614 202.9 22 226 22 c 0
 291 22 319 67 331 124 c 0
EndSplineSet
Back
384.766 329.102 m 0
 396.973 383.789 367.676 411.133 296.875 411.133 c 2
 268.066 411.133 l 2
 265.137 411.133 263.184 407.227 261.23 398.926 c 1
 230.957 256.836 l 1
 284.18 257.812 l 2
 341.309 259.277 375 283.203 384.766 329.102 c 0
355.957 126.953 m 0
 365.234 170.41 348.145 197.266 305.176 208.008 c 0
 289.062 211.914 261.23 213.867 221.191 213.867 c 1
 188.965 61.0352 l 2
 187.012 52.2461 188.965 46.3867 194.824 42.9688 c 2
 193.848 42.9688 l 2
 200.684 41.5039 211.426 41.0156 226.074 41.0156 c 0
 300.781 41.0156 344.238 69.8242 355.957 126.953 c 0
453.125 124.023 m 0
 443.848 85.4492 422.363 55.1758 389.16 33.2031 c 0
 355.469 11.2305 315.43 0 269.043 0 c 2
 22.9492 0 l 1
 28.8086 29.7852 l 1
 41.5039 29.7852 52.2461 30.7617 60.5469 32.2266 c 0
 68.8477 33.2031 75.6836 35.6445 81.543 39.5508 c 0
 87.4023 42.9688 91.7969 48.3398 95.2148 54.6875 c 0
 98.1445 61.0352 101.074 69.3359 103.027 80.0781 c 1
 165.039 372.07 l 1
 168.457 385.254 169.922 395.996 169.434 404.297 c 0
 168.945 412.598 163.574 417.48 151.855 418.945 c 2
 112.793 423.828 l 1
 119.141 452.148 l 1
 321.777 452.148 l 2
 441.406 452.148 492.676 412.109 476.074 333.008 c 0
 472.656 315.43 466.309 300.781 456.543 288.086 c 0
 446.777 275.391 435.547 264.16 422.852 254.883 c 0
 418.945 251.465 414.062 249.023 408.691 246.582 c 0
 402.832 244.141 396.484 241.699 390.137 238.77 c 1
 443.848 218.262 464.844 180.176 453.125 124.023 c 0
EndSplineSet
EndChar
StartChar: C
Encoding: 67 67 36
Width: 492
Flags: W
HStem: -13 33<274 299> 310 128<500 523> 438 11<376 500> 449 23<361 378> 450 20G<538 557>
VStem: 74.8447 117.382<139 170.143>
Fore
487 87 m 1
 423 27 359 -13 276 -13 c 0
 152.774 -13 74.8447 58.2855 74.8447 170.143 c 0
 74.8447 188.093 76.8515 207.087 81 227 c 0
 111 367 234 472 375 472 c 0
 428 472 475 438 500 438 c 0
 518 438 531 455 538 470 c 1
 557 470 l 1
 523 310 l 1
 506 310 l 1
 493 373 451 449 376 449 c 0
 263 449 221 314 203 229 c 0
 196.955 201.004 192.227 169.668 192.227 139.95 c 0
 192.227 76.2573 213.95 20 291 20 c 0
 359 20 417 55 471 104 c 1
 487 87 l 1
EndSplineSet
Back
453.125 83.0078 m 1
 438.965 64.9414 418.945 48.3398 393.066 33.2031 c 0
 371.094 19.5312 347.656 9.27734 323.242 2.44141 c 0
 298.34 -4.39453 272.949 -7.8125 247.07 -7.8125 c 0
 211.426 -7.8125 180.664 -2.92969 154.297 7.32422 c 0
 127.93 18.0664 107.422 33.2031 91.7969 54.1992 c 0
 62.0117 96.6797 54.1992 152.344 67.8711 221.191 c 0
 75.1953 252.93 86.9141 283.203 103.027 311.035 c 0
 119.141 338.867 141.113 365.234 168.945 389.16 c 0
 194.336 411.133 221.191 427.246 249.023 437.988 c 0
 276.855 448.73 305.176 454.102 333.984 454.102 c 0
 343.262 454.102 353.027 453.613 362.793 452.637 c 0
 373.047 451.66 382.324 450.684 390.625 449.707 c 0
 398.926 448.73 405.762 447.266 412.109 446.289 c 0
 417.969 445.312 421.875 444.824 423.828 443.848 c 2
 461.914 432.129 l 1
 470.703 432.617 478.516 439.453 485.84 453.125 c 1
 520.02 453.125 l 1
 492.188 291.992 l 1
 456.055 291.992 l 1
 456.055 330.078 446.289 359.375 427.734 379.395 c 0
 408.691 399.902 381.348 410.156 346.191 410.156 c 0
 301.758 410.156 264.648 390.137 233.887 351.074 c 0
 219.238 333.008 206.543 313.477 195.801 291.992 c 0
 185.547 270.508 177.246 246.094 171.875 219.238 c 0
 160.156 168.457 162.598 125.488 180.176 89.8438 c 0
 188.477 73.2422 200.195 60.0586 214.844 50.293 c 0
 229.492 41.0156 249.512 36.1328 274.902 36.1328 c 0
 323.242 36.1328 375.488 59.082 433.105 104.98 c 1
 453.125 83.0078 l 1
EndSplineSet
EndChar
StartChar: D
Encoding: 68 68 37
Width: 492
Flags: W
HStem: 0 16.9428<13 225> 0 24<206.621 235> 438 24<108 318>
VStem: 409.948 118.223<287 312>
DStem: 151 399 263 406 79 62 191 64
Fore
522 238 m 0
 489 87 373 0 225 0 c 2
 10 0 l 1
 14 17 l 1
 15.1009 16.962 16.2018 16.9428 17.3015 16.9428 c 0
 45.1701 16.9428 72.2657 29.2907 79 62 c 2
 151 399 l 2
 152.057 403.887 152.555 408.234 152.555 412.104 c 0
 152.555 437.533 131.037 442.396 105 445 c 1
 108 462 l 1
 316 462 l 2
 439.476 462 528.171 406.804 528.171 293.123 c 0
 528.171 276.069 526.174 257.698 522 238 c 0
401 231 m 0
 406.235 255.723 409.948 283.576 409.948 310.646 c 0
 409.948 376.648 387.878 438 312 438 c 0
 284 438 269 435 263 406 c 2
 191 64 l 2
 189.305 56.7351 188.372 50.643 188.372 45.5818 c 0
 188.372 29.7431 197.507 24 221 24 c 0
 339 24 381 135 401 231 c 0
EndSplineSet
Back
440.918 225.098 m 0
 453.613 287.109 445.312 333.496 416.016 365.234 c 0
 401.367 380.371 383.789 392.09 362.793 399.902 c 0
 342.285 408.203 315.43 412.109 283.203 412.109 c 0
 273.438 412.109 267.578 411.133 264.648 409.668 c 0
 261.719 407.715 259.277 402.344 257.812 393.066 c 1
 187.012 61.0352 l 2
 185.059 51.7578 187.5 45.8984 193.848 43.9453 c 0
 200.684 41.9922 207.031 41.0156 212.891 41.0156 c 0
 277.832 41.0156 328.613 56.1523 365.723 86.9141 c 0
 402.344 117.676 427.734 163.574 440.918 225.098 c 0
541.992 225.098 m 0
 529.297 166.992 501.465 118.164 458.008 78.125 c 0
 401.367 25.8789 326.172 0 231.934 0 c 2
 24.9023 0 l 1
 30.7617 29.7852 l 1
 42.4805 29.7852 51.7578 30.7617 60.0586 32.2266 c 0
 67.8711 33.2031 74.707 35.6445 79.5898 39.0625 c 0
 84.4727 42.4805 88.8672 47.3633 91.7969 54.1992 c 0
 95.2148 60.5469 98.1445 69.3359 100.098 80.0781 c 1
 162.109 373.047 l 1
 165.527 387.207 166.992 397.949 166.504 406.738 c 0
 166.016 415.039 160.645 419.434 149.902 420.898 c 2
 115.234 423.828 l 1
 121.094 453.125 l 1
 317.871 453.125 l 2
 398.438 453.125 458.496 435.547 498.047 400.879 c 0
 521.484 381.836 536.621 357.422 543.457 328.125 c 0
 550.293 298.828 549.805 264.16 541.992 225.098 c 0
EndSplineSet
EndChar
StartChar: E
Encoding: 69 69 38
Width: 455
Flags: W
HStem: 0 21<218 410> 225 23<230 252> 324 21G<457 474> 438 24<109 348>
DStem: 155 396 268 406 85 66 235 248 155 396 384 350 85 66 335 119 155 396 230 225 85 66 195 59
Fore
324 438 m 0
 294.925 438 275.89 439.532 268 406 c 2
 235 248 l 1
 236.286 247.983 237.56 247.974 238.82 247.974 c 0
 311.062 247.974 341.429 276.286 366 350 c 1
 384 350 l 1
 335 119 l 1
 317 119 l 1
 318.308 130.046 319.004 140.12 319.004 149.271 c 0
 319.004 203.087 294.954 225 230 225 c 1
 195 59 l 2
 193.977 54.2675 193.493 50.124 193.493 46.4962 c 0
 193.493 21.7605 215.965 21 243 21 c 0
 333 21 396 58 449 142 c 1
 468 142 l 1
 410 0 l 1
 11 0 l 1
 15 17 l 1
 51 20 76 23 85 66 c 2
 155 396 l 2
 156.292 402.029 156.904 407.275 156.904 411.847 c 0
 156.904 439.128 135.12 442.431 106 445 c 1
 109 462 l 1
 503 462 l 1
 474 324 l 1
 457 324 l 1
 457.241 328.729 457.361 333.267 457.361 337.622 c 0
 457.361 423.507 410.609 438 324 438 c 0
EndSplineSet
Back
460.938 127.93 m 1
 399.902 0 l 1
 24.9023 0 l 1
 30.7617 29.7852 l 1
 53.2227 29.7852 68.8477 33.6914 78.125 40.5273 c 0
 87.4023 47.3633 94.2383 60.5469 98.1445 80.0781 c 2
 160.156 373.047 l 2
 163.574 388.184 164.551 399.414 164.062 405.762 c 0
 163.574 412.598 158.203 416.992 147.949 418.945 c 2
 115.234 423.828 l 1
 121.094 453.125 l 1
 492.188 453.125 l 1
 467.773 340.82 l 1
 430.176 340.82 l 1
 432.617 374.512 428.223 394.531 416.992 401.855 c 0
 405.762 408.691 384.766 412.109 354.98 412.109 c 2
 274.902 412.109 l 2
 270.508 412.109 266.113 410.156 263.184 405.762 c 0
 259.766 401.855 257.812 397.461 256.836 393.066 c 1
 228.027 259.766 l 1
 312.988 259.766 l 2
 337.891 259.766 353.516 263.184 359.863 269.043 c 0
 369.141 276.367 378.906 293.945 389.16 321.777 c 1
 429.199 321.777 l 1
 394.043 152.832 l 1
 354.004 152.832 l 1
 355.957 182.129 354.492 199.707 349.121 205.078 c 0
 343.75 210.938 328.125 213.867 303.223 213.867 c 2
 217.773 213.867 l 1
 186.035 62.0117 l 2
 184.57 56.1523 186.035 51.2695 189.453 47.3633 c 0
 193.359 43.9453 200.684 41.9922 211.914 41.9922 c 2
 265.137 41.9922 l 2
 303.223 41.9922 331.543 46.875 350.098 57.1289 c 0
 361.328 62.9883 373.047 71.7773 384.277 83.4961 c 0
 395.996 95.2148 407.715 109.863 418.945 127.93 c 1
 460.938 127.93 l 1
EndSplineSet
EndChar
StartChar: F
Encoding: 70 70 39
Width: 417
Flags: W
HStem: 0 21G<11 257> 225 22.9229<230 242> 324 21G<451 467> 438 24<109 348>
DStem: 155 396 268 406 85 66 235 248 155 396 377 350 85 66 328 119 155 396 230 225 85 66 196 66
Fore
324 438 m 0
 294.925 438 275.89 439.532 268 406 c 2
 235 248 l 1
 236.929 247.949 238.824 247.923 240.686 247.923 c 0
 311.236 247.923 334.669 284.723 360 350 c 1
 377 350 l 1
 328 119 l 1
 311 119 l 1
 311.907 129.275 312.448 138.866 312.448 147.744 c 0
 312.448 197.617 295.365 225 230 225 c 1
 196 66 l 2
 194.662 59.9161 194.034 54.6021 194.034 49.9589 c 0
 194.034 16.4423 226.745 17.8783 261 17 c 1
 257 0 l 1
 11 0 l 1
 15 17 l 1
 51 20 76 23 85 66 c 2
 155 396 l 2
 156.292 402.029 156.904 407.275 156.904 411.847 c 0
 156.904 439.128 135.12 442.431 106 445 c 1
 109 462 l 1
 496 462 l 1
 467 324 l 1
 451 324 l 1
 451.015 325.359 451.022 326.704 451.022 328.032 c 0
 451.022 417.609 417.611 438 324 438 c 0
EndSplineSet
Back
471.191 340.82 m 1
 432.129 340.82 l 1
 436.035 373.535 431.641 393.555 418.945 400.879 c 0
 407.715 407.715 387.207 411.133 356.934 411.133 c 2
 269.043 411.133 l 2
 262.207 411.133 257.812 405.762 255.859 395.996 c 2
 227.051 259.766 l 1
 310.059 259.766 l 2
 332.52 259.766 349.121 264.16 359.375 272.461 c 0
 369.629 280.762 378.906 296.875 386.23 320.801 c 1
 423.828 320.801 l 1
 388.184 151.855 l 1
 350.098 151.855 l 1
 353.516 176.758 351.562 193.359 344.727 202.637 c 0
 337.402 211.426 323.242 215.82 300.781 215.82 c 2
 217.773 215.82 l 1
 188.965 80.0781 l 2
 185.059 60.5469 186.035 47.3633 192.383 40.5273 c 0
 198.73 33.6914 212.891 29.7852 234.863 29.7852 c 1
 229.004 0 l 1
 23.9258 0 l 1
 29.7852 29.7852 l 1
 55.1758 29.7852 72.7539 34.1797 82.0312 41.9922 c 0
 88.8672 49.3164 94.2383 64.4531 99.1211 87.8906 c 1
 159.18 372.07 l 1
 161.133 382.812 161.621 391.113 161.621 396.973 c 0
 161.133 402.832 160.156 407.715 158.691 411.133 c 0
 156.738 414.551 154.785 416.504 152.344 417.48 c 0
 150.391 418.457 148.438 418.945 146.973 418.945 c 2
 113.77 423.828 l 1
 120.117 452.148 l 1
 493.164 452.148 l 1
 471.191 340.82 l 1
EndSplineSet
EndChar
StartChar: G
Encoding: 71 71 40
Width: 531
Flags: W
HStem: -13 23<267 291> 310 128<492 515> 438 11<367 492> 449 23<367 382> 450 20G<530 549>
VStem: 66.5377 116.891<135 168.634>
Fore
554 179 m 1
 505 175 492 166 482 116 c 2
 463 29 l 1
 417 2 317 -13 269 -13 c 0
 145.24 -13 66.5377 56.4323 66.5377 168.634 c 0
 66.5377 186.985 68.6427 206.479 73 227 c 0
 103 367 226 472 367 472 c 0
 420 472 466 438 492 438 c 0
 510 438 522 455 530 470 c 1
 549 470 l 1
 515 310 l 1
 498 310 l 1
 485 373 443 449 367 449 c 0
 255 449 213 313 194 228 c 0
 188.194 199.615 183.428 166.86 183.428 135.508 c 0
 183.428 69.6606 204.449 10 281 10 c 0
 320 10 353 15 363 59 c 2
 378 131 l 2
 379.317 137.191 379.94 142.567 379.94 147.236 c 0
 379.94 178.017 352.863 178.132 319 179 c 1
 323 196 l 1
 558 196 l 1
 554 179 l 1
EndSplineSet
Back
532.227 217.773 m 1
 509.766 215.82 498.047 213.867 496.094 211.914 c 0
 487.793 204.59 481.934 192.383 478.027 174.805 c 1
 451.172 45.8984 l 2
 450.195 41.9922 446.777 37.5977 439.941 33.6914 c 0
 433.105 29.2969 424.805 25.3906 415.039 21.4844 c 0
 404.785 18.0664 394.043 14.6484 381.836 11.7188 c 0
 370.117 8.30078 357.91 5.85938 346.191 2.92969 c 0
 328.613 -0.488281 313.965 -2.92969 301.758 -4.88281 c 0
 290.039 -6.83594 279.297 -7.8125 270.02 -7.8125 c 0
 187.5 -7.8125 128.418 15.625 92.7734 62.9883 c 0
 75.6836 86.9141 65.918 112.305 63.9648 139.648 c 0
 62.0117 166.504 64.4531 196.289 71.7773 229.004 c 0
 85.9375 294.434 119.629 348.145 172.852 391.113 c 0
 199.219 411.621 227.539 427.246 258.789 437.988 c 0
 290.527 448.73 322.754 454.102 355.957 454.102 c 0
 368.164 454.102 381.836 453.125 397.949 451.66 c 0
 414.062 449.707 425.293 447.754 432.129 444.824 c 2
 469.238 432.129 l 1
 473.145 432.129 477.539 434.082 481.934 437.988 c 0
 486.816 441.895 490.723 447.266 494.141 454.102 c 1
 529.785 454.102 l 1
 501.953 299.805 l 1
 466.797 299.805 l 1
 453.125 374.023 416.016 411.133 355.957 411.133 c 0
 330.566 411.133 308.105 406.25 288.574 396.484 c 0
 269.043 386.719 250.488 371.094 232.91 350.098 c 0
 217.773 331.543 205.078 311.035 195.312 289.062 c 0
 186.035 267.09 178.223 242.676 172.852 215.82 c 0
 167.48 189.941 165.527 166.016 166.504 144.043 c 0
 167.48 122.07 173.34 103.516 184.082 87.8906 c 0
 195.801 69.8242 208.984 56.6406 223.633 47.3633 c 0
 237.793 38.5742 257.812 34.1797 283.203 34.1797 c 0
 290.527 34.1797 298.828 34.668 308.105 36.1328 c 0
 317.383 37.1094 326.172 39.0625 334.961 41.0156 c 0
 355.469 46.3867 367.188 53.7109 369.141 62.9883 c 2
 392.09 167.969 l 2
 395.508 183.105 396.484 194.336 395.508 201.172 c 0
 394.531 207.52 389.16 212.402 379.883 214.844 c 0
 374.023 216.797 362.793 217.773 346.191 217.773 c 1
 353.027 250.977 l 1
 539.062 250.977 l 1
 532.227 217.773 l 1
EndSplineSet
EndChar
StartChar: H
Encoding: 72 72 41
Width: 531
Flags: W
HStem: 223 32<237 395>
DStem: 156 396 267 396 86 66 237 255 156 396 230 223 86 66 197 66 395 223 542 396 362 66 472 66 432 396 542 396 402 255 472 66
Fore
518 0 m 1
 286 0 l 1
 290 17 l 1
 324 21 353 23 362 66 c 2
 395 223 l 1
 230 223 l 1
 197 66 l 2
 195.779 60.1661 195.202 55.087 195.202 50.6551 c 0
 195.202 22.4205 218.613 20.4573 248 17 c 1
 244 0 l 1
 14 0 l 1
 18 17 l 1
 52 21 77 25 86 66 c 2
 156 396 l 2
 157.334 402.075 157.965 407.338 157.965 411.909 c 0
 157.965 438.185 137.11 441.593 109 445 c 1
 112 462 l 1
 342 462 l 1
 339 445 l 1
 304 442 276 438 267 396 c 2
 237 255 l 1
 402 255 l 1
 432 396 l 2
 433.221 401.698 433.798 406.697 433.798 411.089 c 0
 433.798 439.067 410.387 442.407 381 445 c 1
 384 462 l 1
 616 462 l 1
 613 445 l 1
 578 442 551 438 542 396 c 2
 472 66 l 2
 470.744 60.1407 470.151 55.0403 470.151 50.5905 c 0
 470.151 23.1435 492.743 20.442 522 17 c 1
 518 0 l 1
EndSplineSet
Back
589.844 424.805 m 1
 596.191 453.125 l 1
 387.207 453.125 l 1
 380.859 424.805 l 1
 381.836 424.805 384.766 424.805 390.625 424.316 c 0
 395.996 424.316 402.832 423.34 411.133 421.387 c 0
 418.945 419.922 424.316 417.48 426.758 414.062 c 0
 430.176 410.156 432.129 404.785 433.105 398.438 c 0
 433.594 392.09 432.129 382.324 429.199 369.141 c 1
 404.785 252.93 l 1
 229.98 252.93 l 1
 253.906 369.141 l 1
 257.324 382.324 260.254 392.09 263.184 398.438 c 0
 265.625 404.785 269.531 410.156 274.902 414.062 c 0
 279.785 417.48 286.133 419.922 294.434 421.387 c 0
 302.734 423.34 310.059 424.316 315.43 424.316 c 0
 321.289 424.805 324.219 424.805 325.195 424.805 c 1
 331.055 453.125 l 1
 122.07 453.125 l 1
 116.211 424.805 l 1
 117.188 424.805 121.094 424.805 126.953 424.316 c 0
 132.812 424.316 140.137 423.34 148.438 421.387 c 0
 156.738 419.922 162.109 417.48 165.039 414.062 c 0
 168.457 410.645 169.434 405.762 168.945 399.414 c 0
 168.457 393.066 167.48 388.184 166.992 383.789 c 2
 103.027 85.9375 l 2
 100.098 74.2188 97.6562 64.4531 95.7031 57.6172 c 0
 93.2617 50.293 89.3555 44.4336 83.9844 39.0625 c 0
 80.5664 36.1328 74.707 34.1797 65.918 33.2031 c 0
 57.1289 31.7383 49.8047 30.7617 43.457 30.2734 c 0
 37.1094 30.2734 33.2031 29.7852 32.2266 29.7852 c 1
 25.8789 0 l 1
 234.863 0 l 1
 241.211 29.7852 l 1
 239.746 29.7852 235.84 30.2734 229.98 30.2734 c 0
 224.121 30.7617 216.797 31.7383 208.496 33.2031 c 0
 200.195 34.1797 194.824 36.1328 192.871 39.0625 c 0
 190.918 42.4805 189.941 47.3633 189.453 53.7109 c 0
 188.965 60.0586 190.918 72.2656 194.824 90.8203 c 2
 220.215 207.031 l 1
 395.02 207.031 l 1
 370.117 90.8203 l 2
 366.211 72.2656 362.793 60.0586 359.863 53.7109 c 0
 357.422 47.3633 353.516 42.4805 349.121 39.0625 c 0
 345.703 36.1328 339.844 34.1797 331.055 33.2031 c 0
 322.266 31.7383 314.941 30.7617 308.594 30.2734 c 0
 302.246 30.2734 298.34 29.7852 296.875 29.7852 c 1
 291.016 0 l 1
 500 0 l 1
 505.859 29.7852 l 1
 505.371 29.7852 501.953 30.2734 495.605 30.2734 c 0
 489.258 30.7617 481.934 31.7383 474.121 33.2031 c 0
 465.82 34.1797 460.938 36.1328 458.984 39.0625 c 0
 455.078 44.4336 453.125 50.293 454.102 57.6172 c 0
 454.59 64.4531 456.543 74.2188 458.984 85.9375 c 2
 521.973 379.883 l 2
 522.461 383.301 524.414 389.16 526.855 396.973 c 0
 529.785 404.785 533.203 410.645 537.109 414.062 c 0
 541.016 417.48 547.363 419.922 556.641 421.387 c 0
 565.43 423.34 573.242 424.316 579.59 424.316 c 0
 585.938 424.805 589.355 424.805 589.844 424.805 c 1
EndSplineSet
EndChar
StartChar: I
Encoding: 73 73 42
Width: 265
Flags: W
HStem: 0 21G<14 253> 442 20G<112 351>
DStem: 161 396 272 396 91 66 202 66
Fore
253 0 m 1
 14 0 l 1
 18 17 l 1
 52 20 82 23 91 66 c 2
 161 396 l 2
 162.159 401.538 162.705 406.413 162.705 410.709 c 0
 162.705 439.773 137.75 442.386 109 445 c 1
 112 462 l 1
 351 462 l 1
 348 445 l 1
 311 443 282 440 272 396 c 2
 202 66 l 2
 200.642 59.8905 200.004 54.592 200.004 49.9894 c 0
 200.004 20.6916 225.888 19.5927 257 17 c 1
 253 0 l 1
EndSplineSet
Back
228.027 0 m 1
 19.043 0 l 1
 24.9023 29.7852 l 1
 48.3398 29.7852 64.4531 33.2031 74.2188 39.5508 c 0
 83.4961 45.8984 90.332 59.5703 95.2148 80.0781 c 1
 157.227 372.07 l 2
 159.18 381.836 160.156 390.625 161.133 397.949 c 0
 161.621 405.273 161.133 410.645 159.18 414.062 c 0
 157.227 418.457 151.367 421.387 141.602 421.875 c 0
 131.836 422.852 121.094 422.852 108.887 422.852 c 1
 115.234 452.148 l 1
 324.219 452.148 l 1
 317.871 422.852 l 1
 304.688 422.852 293.457 422.852 284.668 421.875 c 0
 275.391 421.387 268.555 418.457 264.16 414.062 c 0
 257.812 408.203 252.441 394.043 247.07 372.07 c 1
 185.059 80.0781 l 2
 180.176 58.5938 181.152 44.9219 187.988 39.0625 c 0
 194.824 33.2031 209.961 29.7852 233.887 29.7852 c 1
 228.027 0 l 1
EndSplineSet
EndChar
StartChar: J
Encoding: 74 74 43
Width: 341
Flags: W
HStem: -66 23<99 107> 442 20G<185 425>
VStem: 4.44813 101.462<6.17847 32.4756> 4.44813 71.185<-25.7571 6.17847>
DStem: 240 396 347 382 159 16 284 84
Fore
4.44813 6.17847 m 0
 4.44813 44.1296 34.545 74 67 74 c 0
 90.689 74 105.91 54.7555 105.91 32.4756 c 0
 105.91 0.195947 75.6331 -3.48453 75.6331 -25.7571 c 0
 75.6331 -38.7949 90.0781 -43 102 -43 c 0
 141 -43 153 -15 159 16 c 2
 240 396 l 2
 241.263 401.934 241.856 407.119 241.856 411.653 c 0
 241.856 443.032 213.455 443.253 182 445 c 1
 185 462 l 1
 425 462 l 1
 422 445 l 1
 373 441 358 434 347 382 c 2
 284 84 l 2
 263 -15 201 -66 103 -66 c 0
 58.3009 -66 4.44813 -42.6996 4.44813 6.17847 c 0
EndSplineSet
Back
355.957 422.852 m 1
 323.242 422.852 303.223 415.527 295.898 400.879 c 0
 293.457 395.02 290.527 385.742 287.109 373.047 c 1
 234.863 128.906 l 1
 227.051 89.8438 211.426 57.1289 187.988 32.2266 c 1
 161.133 5.37109 127.441 -7.8125 86.9141 -7.8125 c 0
 68.3594 -7.8125 54.1992 -4.39453 43.9453 2.92969 c 0
 27.832 13.6719 21.9727 28.3203 25.8789 46.875 c 0
 27.832 56.1523 33.6914 65.4297 42.9688 75.1953 c 0
 52.2461 84.4727 62.5 88.8672 74.2188 88.8672 c 0
 89.8438 88.8672 100.586 83.9844 105.469 73.7305 c 0
 110.352 62.9883 111.816 52.2461 108.887 41.0156 c 0
 107.91 37.1094 107.91 34.668 108.887 34.1797 c 0
 110.352 33.2031 111.816 33.2031 112.793 33.2031 c 0
 122.559 33.2031 129.395 44.4336 133.789 67.8711 c 1
 199.219 373.047 l 2
 203.613 394.531 202.637 408.203 195.801 414.062 c 0
 189.453 419.922 174.316 422.852 150.879 422.852 c 1
 157.227 453.125 l 1
 361.816 453.125 l 1
 355.957 422.852 l 1
EndSplineSet
EndChar
StartChar: K
Encoding: 75 75 44
Width: 531
Flags: W
HStem: 0 17<300 325> 442 20G<118 349 403 601>
DStem: 164 396 272 382 94 66 241 236 164 396 233 199 94 66 205 66
Fore
309 16.92 m 0
 325.133 16.92 357.124 18.4014 357.124 32.5268 c 0
 357.124 58.8564 266.75 195.437 255 216 c 1
 233 199 l 1
 205 66 l 2
 203.711 59.9856 203.099 54.771 203.099 50.2387 c 0
 203.099 23.1203 225.012 20.4272 255 17 c 1
 251 0 l 1
 20 0 l 1
 24 17 l 1
 60 20 85 23 94 66 c 2
 164 396 l 2
 165.327 402.191 165.958 407.557 165.958 412.216 c 0
 165.958 439.158 144.84 442.442 115 445 c 1
 118 462 l 1
 349 462 l 1
 346 445 l 1
 298 441 283 433 272 382 c 2
 241 236 l 1
 421 384 l 2
 433.462 395.424 453.411 408.687 453.411 425.767 c 0
 453.411 445.787 415.111 444.056 400 445 c 1
 403 462 l 1
 601 462 l 1
 598 445 l 1
 504 439 417 350 345 290 c 1
 499 31 l 2
 504 20 515 18 529 17 c 1
 525 0 l 1
 296 0 l 1
 300 17 l 1
 301.8 17 305 16.92 309 16.92 c 0
EndSplineSet
Back
508.789 0 m 1
 288.086 0 l 1
 293.945 29.7852 l 1
 321.289 29.7852 336.914 32.2266 340.82 36.1328 c 0
 341.797 36.6211 341.797 37.1094 341.797 38.0859 c 0
 341.797 38.5742 342.285 39.5508 342.773 41.0156 c 0
 343.75 44.9219 342.773 49.8047 339.844 55.6641 c 0
 337.402 61.0352 333.984 66.8945 330.078 73.2422 c 2
 231.934 205.078 l 1
 223.145 198.242 l 1
 198.242 80.0781 l 2
 195.801 70.8008 194.824 62.5 193.848 55.6641 c 0
 193.359 48.3398 194.824 43.457 198.242 40.0391 c 0
 201.172 34.668 208.008 31.7383 217.773 30.7617 c 0
 228.027 30.2734 236.816 29.7852 245.117 29.7852 c 1
 238.77 0 l 1
 29.7852 0 l 1
 36.1328 29.7852 l 1
 63.4766 29.7852 82.5195 34.1797 92.7734 42.9688 c 0
 95.7031 44.9219 98.1445 49.8047 100.586 58.1055 c 0
 103.027 65.918 105.469 76.1719 107.91 87.8906 c 2
 167.969 372.07 l 1
 172.852 392.09 171.875 405.273 165.039 412.598 c 0
 158.203 419.434 143.555 422.852 120.117 422.852 c 1
 125.977 453.125 l 1
 336.914 453.125 l 1
 331.055 422.852 l 1
 319.824 422.852 308.594 422.363 298.34 420.41 c 0
 288.086 418.945 280.762 416.016 275.879 412.109 c 0
 271.973 408.691 269.043 403.809 266.602 396.973 c 0
 264.16 390.137 262.207 381.836 259.766 372.07 c 2
 235.84 259.766 l 1
 382.812 372.07 l 2
 403.809 388.184 415.039 400.879 416.992 411.133 c 0
 418.945 418.945 404.785 422.852 374.023 422.852 c 1
 379.883 453.125 l 1
 573.242 453.125 l 1
 566.895 422.852 l 1
 557.617 422.852 548.828 422.852 540.039 421.875 c 0
 531.25 421.387 522.461 418.945 513.184 415.039 c 0
 505.859 411.621 497.559 406.738 487.793 399.902 c 0
 478.516 393.555 467.285 384.766 454.102 374.023 c 2
 311.035 256.836 l 1
 459.961 47.8516 l 2
 463.867 42.4805 471.191 38.5742 481.445 35.1562 c 0
 491.699 31.7383 502.93 29.7852 515.137 29.7852 c 1
 508.789 0 l 1
EndSplineSet
EndChar
StartChar: L
Encoding: 76 76 45
Width: 455
Flags: W
HStem: 0 20.9976<220 408> 442 20G<111 349>
DStem: 156 396 263 382 86 66 195 59
Fore
469 155 m 1
 408 0 l 1
 13 0 l 1
 17 17 l 1
 52 21 77 23 86 66 c 2
 156 396 l 2
 157.33 402.207 157.961 407.585 157.961 412.251 c 0
 157.961 439.16 136.975 442.443 108 445 c 1
 111 462 l 1
 349 462 l 1
 346 445 l 1
 294 442 275 439 263 382 c 2
 195 59 l 2
 193.869 54.0978 193.338 49.8276 193.338 46.108 c 0
 193.338 21.6791 216.236 20.9976 242.343 20.9976 c 0
 243.885 20.9976 245.439 21 247 21 c 0
 345 21 397 71 449 155 c 1
 469 155 l 1
EndSplineSet
Back
463.867 131.836 m 1
 399.902 0 l 1
 25.8789 0 l 1
 32.2266 29.7852 l 1
 54.1992 29.7852 69.8242 33.6914 79.1016 40.5273 c 0
 88.3789 47.3633 95.2148 60.5469 99.1211 80.0781 c 2
 161.133 373.047 l 1
 163.574 383.789 165.039 393.066 165.527 400.391 c 0
 166.016 408.203 164.551 412.598 161.133 414.062 c 2
 116.211 423.828 l 1
 122.07 453.125 l 1
 331.055 453.125 l 1
 325.195 423.828 l 1
 286.133 419.922 l 2
 282.227 419.434 277.344 417.48 271.973 414.062 c 0
 264.648 408.691 258.301 395.02 252.93 373.047 c 1
 187.012 62.0117 l 1
 185.547 58.1055 185.547 55.1758 186.035 53.7109 c 0
 186.523 51.7578 187.988 49.8047 189.941 46.875 c 0
 191.406 45.8984 194.824 44.4336 201.172 43.457 c 0
 207.031 42.4805 212.891 41.9922 217.773 41.9922 c 2
 237.793 41.9922 l 2
 292.48 41.9922 328.125 45.8984 345.215 54.1992 c 0
 371.094 64.4531 397.461 90.8203 424.805 131.836 c 1
 463.867 131.836 l 1
EndSplineSet
EndChar
StartChar: M
Encoding: 77 77 46
Width: 644
Flags: W
HStem: 0 21G<10 169 272 291 402 629> 402 60<109 187>
DStem: 156 396 185 402 87 72 118 85 187 402 282 462 272 0 350 139 551 412 650 382 477 68 586 80 555 462 550 412 350 139 291 0
Fore
629 0 m 1
 402 0 l 1
 406 17 l 1
 445 20 468 23 477 68 c 2
 551 412 l 1
 550 412 l 1
 291 0 l 1
 272 0 l 1
 187 402 l 1
 185 402 l 1
 118 85 l 2
 115.761 74.2108 114.599 65.1207 114.599 57.4597 c 0
 114.599 27.4873 132.382 19.3893 173 17 c 1
 169 0 l 1
 10 0 l 1
 14 17 l 1
 57 21 77 25 87 72 c 2
 156 396 l 2
 157.323 402.176 157.955 407.53 157.955 412.18 c 0
 157.955 439.155 136.706 442.441 106 445 c 1
 109 462 l 1
 282 462 l 1
 350 139 l 1
 555 462 l 1
 727 462 l 1
 724 445 l 1
 676 441 661 433 650 382 c 2
 586 80 l 2
 583.44 67.8964 582.071 58.3392 582.071 50.723 c 0
 582.071 25.6182 596.94 21.6034 633 17 c 1
 629 0 l 1
EndSplineSet
Back
618.164 0 m 1
 409.18 0 l 1
 415.039 29.7852 l 1
 429.199 29.7852 440.918 30.7617 450.684 32.7148 c 0
 459.961 34.1797 466.797 37.1094 471.191 41.0156 c 0
 476.562 46.875 481.934 62.5 487.793 87.8906 c 1
 541.016 336.914 l 1
 316.895 0 l 1
 293.945 0 l 1
 213.867 324.219 l 1
 166.992 104.98 l 1
 161.133 75.6836 159.18 56.1523 162.109 46.875 c 0
 166.016 35.6445 183.105 29.7852 212.891 29.7852 c 1
 207.031 0 l 1
 26.8555 0 l 1
 33.2031 29.7852 l 1
 64.4531 29.7852 83.4961 34.668 89.8438 43.9453 c 1
 99.1211 54.1992 106.934 74.2188 112.793 104.98 c 1
 169.922 371.094 l 2
 174.805 392.09 174.316 406.25 168.945 413.086 c 0
 166.992 415.039 162.598 416.504 155.762 417.969 c 2
 119.141 422.852 l 1
 125 452.148 l 1
 275.879 452.148 l 1
 353.027 134.766 l 1
 559.082 452.148 l 1
 713.867 452.148 l 1
 708.008 421.875 l 1
 685.547 421.875 669.434 418.457 660.156 411.133 c 0
 650.879 403.809 644.043 390.137 640.137 371.094 c 2
 578.125 80.0781 l 1
 571.777 54.1992 576.172 38.5742 589.844 33.2031 c 1
 624.023 28.8086 l 1
 618.164 0 l 1
EndSplineSet
EndChar
StartChar: N
Encoding: 78 78 47
Width: 492
Flags: W
HStem: -12 21G<403 422> 0 21G<11 166> 445 17<108 114>
DStem: 155 395 177 358 86 72 119 85 178 358 255 462 403 -12 430 170 475 377 508 390 431 170 422 -12
Fore
574 445 m 1
 532 440 517 431 508 390 c 2
 422 -12 l 1
 403 -12 l 1
 178 358 l 1
 177 358 l 1
 119 85 l 2
 116.669 74.1923 115.461 65.1809 115.461 57.6327 c 0
 115.461 29.5624 132.172 21.7285 170 17 c 1
 166 0 l 1
 11 0 l 1
 15 17 l 1
 56 22 77 27 86 72 c 2
 155 395 l 1
 147 408 128 445 108 445 c 1
 111 462 l 1
 255 462 l 1
 430 170 l 1
 431 170 l 1
 475 377 l 2
 477.268 387.888 478.508 397.13 478.508 404.959 c 0
 478.508 431.642 464.112 441.907 427 445 c 1
 430 462 l 1
 577 462 l 1
 574 445 l 1
EndSplineSet
Back
601.074 422.852 m 1
 586.914 422.852 575.195 421.387 564.941 417.48 c 0
 555.176 414.062 547.852 409.18 542.969 403.809 c 0
 533.691 392.09 526.367 373.047 520.996 347.168 c 2
 445.801 -5.85938 l 1
 415.039 -5.85938 l 1
 212.891 335.938 l 1
 165.039 105.957 l 1
 158.203 76.6602 156.25 57.1289 159.18 46.875 c 0
 161.621 35.6445 178.223 29.7852 208.984 29.7852 c 1
 203.125 0 l 1
 23.9258 0 l 1
 29.7852 29.7852 l 1
 61.5234 29.7852 81.543 36.1328 89.8438 47.8516 c 0
 97.168 56.1523 104.492 75.1953 110.84 105.957 c 2
 171.875 394.043 l 1
 160.156 413.574 140.625 422.852 113.77 422.852 c 1
 120.117 453.125 l 1
 252.93 453.125 l 1
 425.781 154.785 l 1
 466.797 347.168 l 2
 470.215 362.305 472.656 374.512 474.121 383.789 c 0
 475.098 393.555 475.098 400.391 474.121 404.785 c 0
 469.238 416.992 451.66 422.852 420.898 422.852 c 1
 426.758 453.125 l 1
 606.934 453.125 l 1
 601.074 422.852 l 1
EndSplineSet
EndChar
StartChar: O
Encoding: 79 79 48
Width: 531
Flags: W
HStem: -13 23<257 275> 449 23<353 371>
VStem: 66.6268 113.873<124.111 171.121> 446.094 116.175<286 326.919>
Fore
556 229 m 0
 526 88 404 -13 263 -13 c 4
 141.314 -13 66.6268 61.1693 66.6268 171.121 c 0
 66.6268 189.476 68.7083 208.829 73 229 c 0
 103 370 225 472 366 472 c 0
 486.278 472 562.269 396.714 562.269 286.092 c 0
 562.269 267.952 560.226 248.863 556 229 c 0
435 229 m 0
 440.673 256.655 446.094 292.355 446.094 326.919 c 0
 446.094 389.842 428.127 449 361 449 c 0
 256 449 210 307 194 229 c 0
 187.25 198.625 180.5 160.234 180.5 124.111 c 0
 180.5 63.9062 199.25 10 268 10 c 0
 377 10 417 148 435 229 c 0
EndSplineSet
Back
74.2188 226.074 m 0
 67.3828 193.359 66.8945 162.598 71.7773 134.277 c 0
 77.1484 105.957 87.8906 81.543 103.516 60.5469 c 0
 119.141 39.5508 139.16 22.9492 164.062 10.7422 c 0
 188.477 -1.95312 216.309 -7.8125 247.07 -7.8125 c 0
 278.32 -7.8125 308.594 -1.95312 338.379 10.7422 c 0
 368.164 22.9492 395.508 39.5508 419.922 60.5469 c 0
 444.824 81.543 465.82 105.957 483.887 134.277 c 0
 501.953 162.598 514.16 193.359 520.996 226.074 c 0
 528.32 258.789 529.297 289.062 523.438 317.383 c 0
 518.066 345.703 506.836 370.605 491.211 392.09 c 0
 475.098 413.574 454.59 430.176 430.664 442.383 c 0
 406.25 454.59 378.418 460.938 347.168 460.938 c 0
 316.406 460.938 286.133 454.59 255.859 442.383 c 0
 226.074 430.176 198.73 413.574 174.316 392.09 c 0
 150.391 370.605 129.395 345.703 111.328 317.383 c 0
 93.75 289.062 81.543 258.789 74.2188 226.074 c 0
170.898 226.074 m 0
 176.758 252.441 185.547 277.344 196.777 300.293 c 0
 208.496 323.73 221.68 343.262 236.328 360.352 c 0
 251.465 377.441 267.578 391.113 285.156 400.879 c 0
 302.246 411.133 319.824 416.016 337.891 416.016 c 0
 355.469 416.016 370.605 411.133 383.789 400.879 c 0
 397.461 391.113 408.203 377.441 416.016 360.352 c 0
 423.828 343.262 428.711 323.73 430.664 300.293 c 0
 432.129 277.344 430.176 252.441 423.828 226.074 c 0
 417.969 199.219 409.18 174.316 397.949 150.879 c 0
 386.719 127.441 373.535 107.422 358.398 90.332 c 0
 343.262 73.7305 327.148 60.0586 309.57 49.8047 c 0
 291.992 40.0391 274.414 35.1562 256.836 35.1562 c 0
 238.77 35.1562 223.145 40.0391 209.961 49.8047 c 0
 196.777 60.0586 186.035 73.7305 178.711 90.332 c 0
 170.898 107.422 166.016 127.441 164.551 150.879 c 0
 162.598 174.316 165.039 199.219 170.898 226.074 c 0
EndSplineSet
EndChar
StartChar: P
Encoding: 80 80 49
Width: 417
Flags: W
HStem: 0 21G<11 239> 207 23.9702<223 239.628> 207 24<223 252> 438 24<109 316>
VStem: 369.082 115.223<364 380>
DStem: 149 382 267 414 85 80 228 231 149 382 223 207 85 80 196 80
Fore
481 336 m 0
 454 209 313 208 223 207 c 1
 196 80 l 2
 193.373 67.3426 191.944 57.4799 191.944 49.7172 c 0
 191.944 24.9754 206.463 21.5671 243 17 c 1
 239 0 l 1
 11 0 l 1
 15 17 l 1
 61 25 74 27 85 80 c 2
 149 382 l 2
 151.459 393.802 152.829 403.306 152.829 411.004 c 0
 152.829 434.615 139.936 441.229 106 445 c 1
 109 462 l 1
 329 462 l 2
 402.622 462 484.305 441.847 484.305 364.631 c 0
 484.305 355.845 483.248 346.319 481 336 c 0
363 334 m 0
 366.683 351.283 369.082 367.121 369.082 380.946 c 0
 369.082 415.914 353.734 438 305 438 c 0
 288 438 271 433 267 414 c 2
 228 231 l 1
 231.872 231 235.806 230.97 239.628 230.97 c 0
 315.259 230.97 346.336 255.581 363 334 c 0
EndSplineSet
Back
366.211 325.195 m 0
 372.07 353.516 367.676 375.488 353.516 390.137 c 0
 339.355 404.785 312.5 412.109 273.926 412.109 c 0
 267.09 412.109 262.695 411.133 259.766 409.668 c 0
 257.324 407.715 255.371 403.809 253.906 397.949 c 2
 219.238 234.863 l 1
 221.68 234.375 225.586 233.887 230.957 233.887 c 2
 249.023 233.887 l 2
 314.453 233.887 353.516 264.16 366.211 325.195 c 0
461.914 326.172 m 0
 456.543 301.758 446.289 280.762 431.152 262.695 c 0
 415.527 244.141 396.484 229.004 373.047 216.797 c 0
 354.98 207.52 335.449 200.684 313.965 196.289 c 0
 292.48 192.383 269.531 189.941 244.141 189.941 c 2
 208.984 189.941 l 1
 186.035 80.0781 l 2
 182.129 60.0586 183.594 46.875 191.406 40.0391 c 0
 199.219 33.2031 214.355 29.7852 236.816 29.7852 c 1
 230.957 0 l 1
 24.9023 0 l 1
 30.7617 29.7852 l 1
 43.457 29.7852 54.6875 30.7617 63.4766 32.7148 c 0
 72.2656 34.1797 78.6133 36.6211 82.0312 40.0391 c 0
 85.4492 43.9453 88.3789 49.8047 90.332 57.6172 c 0
 92.7734 64.9414 95.7031 75.1953 99.1211 87.8906 c 1
 159.18 373.047 l 1
 163.574 393.066 163.086 406.25 157.715 413.086 c 0
 151.855 419.434 137.695 422.852 115.234 422.852 c 1
 121.094 453.125 l 1
 307.129 453.125 l 2
 352.539 453.125 390.137 444.824 419.922 428.223 c 0
 458.008 405.273 472.168 371.094 461.914 326.172 c 0
EndSplineSet
EndChar
StartChar: Q
Encoding: 81 81 50
Width: 531
Flags: W
HStem: -120 130<268 350> 449 23<348 370>
VStem: 65.5602 114.94<124.111 171.216> 446.094 116.175<286.092 326.919>
Fore
562.269 286.092 m 0
 562.269 143.24 456.562 26.6405 334 -4 c 1
 344 -53 379 -88 434 -88 c 0
 449 -88 465 -85 481 -80 c 1
 483 -96 l 1
 436 -112 396 -120 350 -120 c 0
 270 -120 202 -77 186 -1 c 1
 110.147 23.1729 65.5602 90.4238 65.5602 171.216 c 0
 65.5602 187.349 67.3381 204.022 71 221 c 0
 101 364 219 472 366 472 c 0
 486.278 472 562.269 396.714 562.269 286.092 c 0
435 229 m 0
 440.673 256.655 446.094 292.355 446.094 326.919 c 0
 446.094 389.842 428.127 449 361 449 c 0
 256 449 210 307 194 229 c 0
 187.25 198.625 180.5 160.234 180.5 124.111 c 0
 180.5 63.9062 199.25 10 268 10 c 0
 377 10 417 148 435 229 c 0
EndSplineSet
Back
63.9648 227.051 m 0
 58.5938 200.195 57.1289 174.805 59.5703 150.879 c 0
 62.0117 126.953 67.8711 104.98 77.6367 85.4492 c 0
 87.4023 65.918 99.6094 48.8281 115.723 34.668 c 0
 131.348 20.0195 149.414 8.78906 169.922 0.976562 c 1
 184.082 -27.832 l 1
 200.195 -53.2227 222.168 -72.7539 250.977 -86.4258 c 0
 279.785 -100.098 314.453 -106.934 355.957 -106.934 c 2
 416.016 -106.934 l 1
 422.852 -77.1484 l 1
 411.133 -77.1484 398.438 -76.1719 385.742 -74.707 c 0
 372.559 -72.7539 359.863 -69.3359 347.656 -63.9648 c 0
 334.961 -58.5938 323.73 -51.2695 312.988 -41.5039 c 0
 302.246 -31.7383 293.457 -19.5312 286.133 -3.90625 c 1
 312.012 1.95312 337.402 12.207 361.328 25.8789 c 0
 385.742 40.0391 408.203 57.1289 428.223 77.6367 c 0
 448.242 97.6562 465.332 120.605 479.492 145.996 c 0
 493.652 171.387 503.906 198.242 509.766 227.051 c 0
 517.09 259.766 518.066 290.527 512.695 318.848 c 0
 506.836 347.656 496.094 373.047 480.469 394.531 c 0
 464.844 416.016 444.824 433.105 420.41 445.312 c 0
 395.996 458.008 368.652 463.867 337.891 463.867 c 0
 307.129 463.867 277.344 458.008 247.559 445.312 c 0
 217.773 433.105 190.43 416.016 165.527 394.531 c 0
 140.625 373.047 119.141 347.656 101.562 318.848 c 0
 83.9844 290.527 71.2891 259.766 63.9648 227.051 c 0
163.086 226.074 m 0
 168.457 251.953 176.758 276.367 187.988 299.316 c 0
 199.219 322.266 212.402 342.285 227.539 359.375 c 0
 242.676 376.465 258.789 390.137 275.879 399.902 c 0
 293.457 410.156 310.547 415.039 328.125 415.039 c 0
 345.215 415.039 360.352 410.156 373.535 399.902 c 0
 386.719 390.137 396.484 376.465 403.809 359.375 c 0
 411.133 342.285 416.016 322.266 417.48 299.316 c 0
 418.945 276.367 417.48 251.953 412.109 226.074 c 0
 406.738 200.195 398.438 175.293 387.207 152.344 c 0
 375.488 129.395 362.305 109.375 347.656 92.2852 c 0
 332.52 75.6836 316.406 62.0117 299.316 51.7578 c 0
 282.715 41.9922 265.137 37.1094 248.047 37.1094 c 0
 230.469 37.1094 215.332 41.9922 202.148 51.7578 c 0
 188.477 62.0117 178.223 75.6836 170.898 92.2852 c 0
 163.574 109.375 159.18 129.395 157.715 152.344 c 0
 155.762 175.293 157.715 200.195 163.086 226.074 c 0
EndSplineSet
EndChar
StartChar: R
Encoding: 82 82 51
Width: 492
Flags: W
HStem: 0 21G<18 249 348 488> 214 22<238 252> 438 24<116 338>
VStem: 389.826 115.048<364 380>
DStem: 159 382 275 410 95 80 238 236 159 382 233 214 95 80 205 80 252 214 371 225 348 0 466 30
Fore
488 0 m 1
 348 0 l 1
 252 214 l 1
 233 214 l 1
 205 80 l 2
 202.516 68.257 201.205 58.9109 201.205 51.4089 c 0
 201.205 25.6907 216.614 21.645 253 17 c 1
 249 0 l 1
 18 0 l 1
 22 17 l 1
 72 23 84 27 95 80 c 2
 159 382 l 2
 161.64 394.238 163.07 404.058 163.07 411.957 c 0
 163.07 436.974 148.722 442.72 113 445 c 1
 116 462 l 1
 336 462 l 2
 407.983 462 504.875 446.225 504.875 366.259 c 0
 504.875 358.464 503.954 350.059 502 341 c 0
 487 270 435 243 371 225 c 1
 466 30 l 2
 470.505 20.9902 478.257 16.851 488.525 16.851 c 0
 489.653 16.851 490.812 16.901 492 17 c 1
 488 0 l 1
385 340 m 0
 388.092 353.795 389.826 366.571 389.826 378.033 c 0
 389.826 414.764 372.016 438 324 438 c 0
 301 438 281 437 275 410 c 2
 238 236 l 1
 322 236 366 247 385 340 c 0
EndSplineSet
Back
372.07 331.055 m 0
 377.93 357.91 374.023 377.93 359.863 391.602 c 0
 346.191 405.273 323.242 412.109 291.992 412.109 c 0
 276.855 412.109 267.578 411.133 265.137 410.156 c 0
 263.672 408.691 262.207 407.227 261.23 405.273 c 0
 259.766 403.809 258.301 400.879 256.836 395.996 c 1
 225.098 243.164 l 1
 243.652 243.164 259.277 244.141 271.973 246.582 c 0
 284.668 249.023 296.387 251.953 307.129 255.859 c 0
 342.285 269.531 363.77 294.434 372.07 331.055 c 0
470.215 0 m 1
 345.215 0 l 1
 231.934 202.148 l 1
 215.82 201.172 l 1
 189.941 80.0781 l 2
 186.035 60.5469 187.012 47.3633 193.359 40.5273 c 0
 199.707 33.6914 214.355 29.7852 236.816 29.7852 c 1
 230.957 0 l 1
 25.8789 0 l 1
 32.2266 29.7852 l 1
 45.4102 29.7852 56.6406 31.25 65.4297 33.6914 c 0
 74.707 35.6445 80.5664 38.5742 83.9844 41.0156 c 0
 86.4258 42.9688 89.3555 47.8516 91.3086 56.1523 c 0
 93.75 63.9648 96.6797 74.707 100.098 87.8906 c 1
 160.156 373.047 l 1
 165.527 394.531 166.016 407.715 162.109 413.086 c 0
 155.762 419.434 140.625 422.852 116.211 422.852 c 1
 122.07 453.125 l 1
 316.895 453.125 l 2
 435.547 453.125 485.84 412.109 467.773 330.078 c 0
 455.566 271.484 409.18 232.422 330.078 212.891 c 1
 422.852 58.1055 l 2
 434.57 39.5508 452.148 29.7852 476.074 29.7852 c 1
 470.215 0 l 1
EndSplineSet
EndChar
StartChar: S
Encoding: 83 83 52
Width: 379
Flags: W
HStem: -13 23<176 198> -13 169<57 76.1051> 10 146<57 66> 324 21G<380 399> 451 21<260 289>
VStem: 98.5451 85.8399<306.104 371.151> 288.539 92.9885<100.04 162.065>
Fore
274 451 m 0
 231.604 451 184.385 419.977 184.385 371.151 c 0
 184.385 280.336 381.527 292.667 381.527 162.065 c 0
 381.527 152.223 380.408 141.57 378 130 c 0
 357 35 265 -13 178 -13 c 0
 129 -13 91 10 66 10 c 0
 53 10 45 -2 41 -13 c 1
 21 -13 l 1
 57 156 l 1
 77 156 l 1
 76.9817 154.662 76.9724 153.324 76.9724 151.987 c 0
 76.9724 80.349 103.539 10 186 10 c 0
 233 10 277 37 287 86 c 0
 288.043 90.9415 288.539 95.6117 288.539 100.04 c 0
 288.539 186.717 98.5451 180.898 98.5451 306.104 c 0
 98.5451 315.614 99.6412 325.88 102 337 c 0
 121 426 196 472 281 472 c 0
 336.639 472 392.986 420.959 410 472 c 1
 430 472 l 1
 399 324 l 1
 380 324 l 1
 377 387 345 451 274 451 c 0
EndSplineSet
Back
361.816 118.164 m 0
 354.004 80.5664 331.543 49.3164 294.922 23.9258 c 1
 261.719 3.41797 225.098 -6.83594 186.035 -6.83594 c 0
 178.711 -6.83594 170.41 -6.34766 161.133 -4.88281 c 0
 151.855 -3.90625 141.113 -1.46484 129.883 1.95312 c 0
 110.84 9.27734 97.168 13.1836 89.8438 13.1836 c 0
 82.5195 13.1836 78.125 6.34766 76.1719 -6.83594 c 1
 42.9688 -6.83594 l 1
 55.1758 146.973 l 1
 84.9609 146.973 l 1
 92.7734 107.91 104.492 78.6133 119.141 59.5703 c 0
 133.789 40.5273 154.297 30.7617 181.152 30.7617 c 0
 199.707 30.7617 216.797 37.1094 232.91 49.3164 c 0
 249.023 62.0117 258.789 77.1484 262.207 96.1914 c 0
 267.09 120.117 261.23 141.602 244.141 161.133 c 0
 240.723 165.039 234.375 170.898 224.609 178.223 c 0
 214.844 185.547 202.148 193.848 187.012 204.102 c 0
 172.852 213.867 160.645 223.145 150.391 231.934 c 0
 140.137 240.723 131.836 248.535 125.977 255.859 c 0
 108.887 280.762 103.516 309.082 109.863 340.82 c 0
 113.77 358.887 121.094 375.488 130.859 390.137 c 0
 141.113 404.785 152.832 417.48 166.992 428.223 c 0
 181.152 438.477 196.289 446.777 213.379 452.637 c 0
 230.469 458.008 248.047 460.938 266.113 460.938 c 0
 272.461 460.938 280.273 459.961 289.062 458.496 c 0
 297.852 457.031 308.105 454.102 320.801 450.195 c 2
 353.027 438.965 l 1
 357.91 440.43 363.281 447.754 370.117 460.938 c 1
 400.879 460.938 l 1
 382.812 304.199 l 1
 350.098 304.199 l 1
 349.121 321.289 347.168 336.426 344.238 350.098 c 0
 340.82 363.281 334.961 375.488 327.148 386.23 c 0
 310.547 406.738 288.574 416.992 262.207 416.992 c 0
 246.582 416.992 233.398 412.109 222.656 402.344 c 0
 211.426 393.066 204.102 379.883 201.172 363.77 c 0
 196.289 340.82 208.496 317.871 236.816 294.922 c 2
 325.195 227.051 l 2
 359.863 200.195 372.07 164.062 361.816 118.164 c 0
EndSplineSet
EndChar
StartChar: T
Encoding: 84 84 53
Width: 455
Flags: W
HStem: 0 21G<107 350> 324 21G<90 110 483 503> 442 20G<121 531>
DStem: 267 440 377 440 190 80 300 80
Fore
503 324 m 1
 483 324 l 1
 483.743 331.991 484.115 339.465 484.115 346.45 c 0
 484.115 414.642 448.659 436.372 377 440 c 1
 300 80 l 2
 297.425 67.7706 296.094 58.027 296.094 50.2357 c 0
 296.094 21.7127 313.942 19.3563 354 17 c 1
 350 0 l 1
 107 0 l 1
 111 17 l 1
 161 21 178 24 190 80 c 2
 267 440 l 1
 186 436 139 410 110 324 c 1
 90 324 l 1
 121 462 l 1
 531 462 l 1
 503 324 l 1
EndSplineSet
Back
485.84 324.219 m 1
 449.219 324.219 l 1
 450.195 361.816 445.801 384.766 436.035 393.066 c 0
 429.199 397.461 421.875 401.367 413.086 404.297 c 0
 404.297 407.715 392.09 409.18 375.977 409.18 c 2
 350.098 409.18 l 1
 279.785 80.0781 l 1
 275.879 60.0586 276.855 46.875 283.203 40.0391 c 0
 289.062 33.2031 304.199 29.7852 328.125 29.7852 c 1
 321.777 0 l 1
 112.793 0 l 1
 119.141 29.7852 l 1
 134.277 29.7852 145.996 31.25 153.32 33.6914 c 0
 161.133 35.6445 167.48 38.5742 172.852 41.9922 c 2
 171.875 41.9922 l 2
 178.223 46.875 184.082 62.0117 189.941 87.8906 c 1
 257.812 409.18 l 1
 232.91 409.18 l 2
 216.309 409.18 202.637 407.715 192.383 405.273 c 0
 182.129 403.32 173.34 399.414 166.016 394.043 c 0
 152.832 385.254 138.184 361.816 122.07 324.219 c 1
 85.9375 324.219 l 1
 118.164 453.125 l 1
 507.812 453.125 l 1
 485.84 324.219 l 1
EndSplineSet
EndChar
StartChar: U
Encoding: 85 85 54
Width: 492
Flags: W
HStem: -13 33<250 278> 442 20G<109 340 426 577>
VStem: 94.5002 105.732<96 116>
DStem: 148 382 256 382 100 154 206 148 475 377 507 386 431 169 461 169
Fore
574 445 m 1
 532 439 516 429 507 386 c 2
 461 169 l 2
 436 54 369 -13 250 -13 c 0
 153.749 -13 94.5002 22.5506 94.5002 106.012 c 0
 94.5002 120.535 96.2944 136.51 100 154 c 2
 148 382 l 2
 150.837 394.64 152.411 404.618 152.411 412.552 c 0
 152.411 435.377 139.392 441.29 106 445 c 1
 109 462 l 1
 340 462 l 1
 337 445 l 1
 285 442 268 438 256 382 c 2
 206 148 l 2
 202.435 130.941 200.232 114.271 200.232 98.8974 c 0
 200.232 53.8917 219.114 20 278 20 c 0
 375 20 413 85 431 169 c 2
 475 377 l 2
 477.381 387.824 478.638 397.007 478.638 404.784 c 0
 478.638 432.932 462.176 442.649 423 445 c 1
 426 462 l 1
 577 462 l 1
 574 445 l 1
EndSplineSet
Back
591.797 423.828 m 1
 576.66 422.852 563.965 420.41 554.199 417.48 c 0
 543.945 414.551 537.109 410.156 534.18 404.785 c 0
 527.344 395.508 520.996 376.465 515.137 347.168 c 1
 478.027 175.781 l 1
 472.656 152.832 466.309 131.348 458.984 112.305 c 0
 451.66 93.2617 442.871 77.1484 433.105 63.9648 c 0
 413.574 40.0391 388.672 21.9727 358.398 9.76562 c 0
 328.125 -1.95312 293.457 -7.8125 253.906 -7.8125 c 0
 195.801 -7.8125 155.273 6.34766 131.348 35.6445 c 0
 107.91 64.4531 102.051 108.398 113.77 166.992 c 1
 158.203 373.047 l 1
 162.598 393.066 161.621 406.25 154.297 413.086 c 0
 147.461 419.434 132.324 422.852 108.887 422.852 c 1
 115.234 453.125 l 1
 326.172 453.125 l 1
 319.824 422.852 l 1
 308.105 422.852 297.852 422.363 290.039 420.898 c 0
 282.227 419.434 275.391 416.992 269.531 413.574 c 0
 263.672 409.668 259.277 404.785 255.859 398.438 c 0
 252.441 392.09 250 383.789 248.047 373.047 c 1
 203.125 162.109 l 1
 186.523 78.6133 212.891 37.1094 283.203 37.1094 c 0
 328.125 37.1094 365.234 53.2227 393.066 84.9609 c 0
 404.785 99.1211 415.527 126.953 423.828 168.945 c 1
 461.914 347.168 l 2
 468.75 377.441 470.215 396.484 465.82 403.809 c 0
 459.961 416.504 443.359 422.852 416.016 422.852 c 1
 421.875 453.125 l 1
 598.145 453.125 l 1
 591.797 423.828 l 1
EndSplineSet
EndChar
StartChar: V
Encoding: 86 86 55
Width: 492
Flags: W
HStem: -12 21G<240 259> 442 20G<109 338 431 577>
DStem: 152 397 278 357 240 -12 322 141 456 366 500 389 322 141 259 -12
Fore
574 445 m 1
 533 440 521 423 500 389 c 2
 259 -12 l 1
 240 -12 l 1
 152 397 l 2
 146 431 140 439 106 445 c 1
 109 462 l 1
 338 462 l 1
 335 445 l 1
 307.914 442.743 269.338 446.419 269.338 408.144 c 0
 269.338 392.167 275.461 368.851 278 357 c 2
 322 141 l 1
 456 366 l 2
 465 380 476 397 480 413 c 0
 480.59 415.698 480.868 418.154 480.868 420.392 c 0
 480.868 444.691 448.145 443.169 428 445 c 1
 431 462 l 1
 577 462 l 1
 574 445 l 1
EndSplineSet
Back
576.172 423.828 m 1
 563.965 423.828 555.176 422.852 549.805 420.898 c 0
 540.527 417.48 534.18 413.574 529.785 409.18 c 0
 525.879 404.297 522.461 400.391 520.02 396.973 c 1
 275.879 -5.85938 l 1
 243.164 -5.85938 l 1
 155.762 359.863 l 1
 149.902 387.207 144.043 404.785 138.184 413.086 c 0
 132.812 418.457 126.953 421.387 120.605 422.363 c 0
 114.258 423.34 106.934 423.828 99.1211 423.828 c 1
 104.98 453.125 l 1
 304.199 453.125 l 1
 297.852 423.828 l 1
 286.133 423.828 276.367 423.828 269.043 422.852 c 0
 261.719 422.363 255.859 420.898 250.977 417.969 c 0
 249.512 417.48 248.535 416.016 248.047 414.062 c 0
 247.559 412.109 246.582 410.156 246.094 408.203 c 0
 245.117 404.785 249.512 382.812 258.789 341.797 c 2
 305.176 140.137 l 1
 439.941 360.84 l 1
 443.359 367.676 446.777 374.512 450.684 380.859 c 0
 454.102 387.695 457.52 394.531 459.961 401.855 c 0
 463.867 416.504 449.707 423.828 416.992 423.828 c 1
 422.852 453.125 l 1
 582.031 453.125 l 1
 576.172 423.828 l 1
EndSplineSet
EndChar
StartChar: W
Encoding: 87 87 56
Width: 682
Flags: W
HStem: -10 21G<203 222 466 484> 442 20G<111 312 362 575 644 768>
DStem: 145 401 259 393 203 -10 287 147 412 355 414 309 288 147 222 -10 419 309 519 381 466 -10 544 154 670 386 708 401 545 154 484 -10
Fore
765 445 m 1
 739 442 720 423 708 401 c 2
 484 -10 l 1
 466 -10 l 1
 419 309 l 1
 414 309 l 1
 222 -10 l 1
 203 -10 l 1
 145 401 l 2
 141 429 138 440 108 445 c 1
 111 462 l 1
 312 462 l 1
 309 445 l 1
 283.38 442.671 257.343 440.936 257.343 406.431 c 0
 257.343 402.029 257.828 397.686 259 393 c 1
 287 147 l 1
 288 147 l 1
 412 355 l 1
 406 407 416 442 359 445 c 1
 362 462 l 1
 575 462 l 1
 572 445 l 1
 546.952 442.495 516.172 446.817 516.172 408.117 c 0
 516.172 398.642 517.586 388.071 519 381 c 2
 544 154 l 1
 545 154 l 1
 670 386 l 1
 676.002 396.803 681.878 407.62 681.878 421.836 c 0
 681.878 443.02 659.007 443.199 641 445 c 1
 644 462 l 1
 768 462 l 1
 765 445 l 1
EndSplineSet
Back
755.859 424.805 m 1
 738.77 421.875 726.074 417.48 718.262 413.086 c 0
 710.938 408.203 703.125 400.391 695.801 389.16 c 1
 471.191 -5.85938 l 1
 438.965 -5.85938 l 1
 435.547 18.5547 430.176 53.2227 422.363 97.168 c 0
 415.039 141.113 405.273 193.359 394.043 253.906 c 1
 243.164 -5.85938 l 1
 214.844 -5.85938 l 1
 161.133 352.051 l 1
 157.227 379.883 153.32 396.484 149.902 401.855 c 0
 144.043 414.551 129.395 421.875 105.957 423.828 c 1
 111.816 453.125 l 1
 298.828 453.125 l 1
 292.969 422.852 l 1
 285.645 422.852 280.273 422.852 276.367 422.363 c 0
 272.949 422.363 269.531 421.875 266.113 420.898 c 0
 263.184 420.41 260.742 419.434 257.812 418.945 c 0
 255.371 418.457 252.441 417.48 249.023 416.016 c 1
 247.559 410.645 247.07 405.762 246.582 400.879 c 0
 246.094 396.484 246.582 390.137 248.047 382.812 c 2
 288.086 158.203 l 1
 382.812 318.848 l 1
 374.023 370.117 l 1
 368.652 392.578 364.258 406.738 360.84 412.109 c 0
 354.492 419.434 339.355 422.852 315.918 422.852 c 1
 321.777 453.125 l 1
 523.926 453.125 l 1
 518.066 422.852 l 1
 484.863 422.852 466.309 417.969 462.891 408.203 c 1
 462.891 395.02 l 1
 504.883 157.227 l 1
 623.047 356.934 l 2
 628.418 366.211 632.324 374.512 634.766 381.836 c 0
 637.695 389.16 639.648 395.996 641.113 401.855 c 0
 643.066 410.645 641.602 416.504 637.207 418.945 c 1
 601.074 423.828 l 1
 606.934 453.125 l 1
 762.207 453.125 l 1
 755.859 424.805 l 1
EndSplineSet
EndChar
StartChar: X
Encoding: 88 88 57
Width: 492
Flags: W
HStem: 0 21G<11 182 245 477> 442 20G<110 346 397 568>
Fore
477 0 m 1
 245 0 l 1
 249 17 l 1
 264.417 18.0278 308.351 16.5095 308.351 42.8089 c 0
 308.351 71.7664 262.62 167.854 255 185 c 1
 236 165 141 72 136 46 c 0
 135.558 44.0861 135.35 42.3023 135.35 40.6393 c 0
 135.35 19.711 168.399 17.9264 186 17 c 1
 182 0 l 1
 11 0 l 1
 15 17 l 1
 47 22 67 29 94 55 c 2
 245 206 l 1
 152 405 l 2
 143 426 134 443 107 445 c 1
 110 462 l 1
 346 462 l 1
 343 445 l 1
 325 443 289 447 284 422 c 0
 283.827 421.177 283.744 420.223 283.744 419.149 c 0
 283.744 395.421 324.346 313.134 332 294 c 1
 354 317 431 391 437 421 c 0
 437.49 422.961 437.72 424.749 437.72 426.379 c 0
 437.72 444.7 408.693 443.163 394 445 c 1
 397 462 l 1
 568 462 l 1
 565 445 l 1
 500 439 468 401 422 353 c 2
 344 269 l 1
 427 76 l 2
 438 51 448 19 481 17 c 1
 477 0 l 1
EndSplineSet
Back
511.23 0 m 1
 291.016 0 l 1
 296.875 28.8086 l 1
 316.895 30.2734 331.055 32.7148 338.867 36.1328 c 0
 347.168 39.5508 351.562 42.4805 352.051 44.9219 c 0
 353.516 50.293 352.539 56.6406 349.609 64.4531 c 0
 346.68 72.2656 341.309 83.4961 333.984 98.1445 c 1
 296.875 181.152 l 1
 208.984 95.2148 l 2
 183.105 68.8477 169.434 52.2461 167.969 44.9219 c 0
 166.016 35.1562 181.152 29.7852 212.891 29.7852 c 1
 207.031 0 l 1
 29.7852 0 l 1
 36.1328 28.8086 l 1
 47.3633 30.2734 57.1289 31.7383 64.9414 33.2031 c 0
 73.2422 34.1797 79.1016 37.1094 83.9844 41.0156 c 2
 113.77 67.8711 l 1
 112.793 67.8711 l 1
 273.926 224.121 l 1
 227.051 324.219 l 1
 205.566 371.094 188.965 399.902 176.758 410.156 c 0
 173.828 413.574 167.48 416.016 159.18 417.969 c 0
 150.391 419.922 139.648 421.875 126.953 423.828 c 1
 132.812 453.125 l 1
 356.934 453.125 l 1
 351.074 422.852 l 1
 338.867 422.852 328.613 422.852 319.824 422.363 c 0
 311.523 422.363 306.152 421.875 305.176 420.898 c 0
 303.223 419.434 300.781 418.457 297.852 416.992 c 0
 295.41 415.527 293.945 414.062 293.945 412.109 c 0
 292.48 405.762 295.41 395.02 302.734 379.395 c 0
 309.57 363.77 319.824 343.262 333.008 317.871 c 1
 346.191 290.039 l 1
 455.078 395.996 l 2
 459.473 400.879 462.402 405.762 462.891 411.133 c 0
 464.844 418.945 450.684 422.852 419.922 422.852 c 1
 425.781 453.125 l 1
 605.957 453.125 l 1
 600.098 422.852 l 1
 587.402 422.852 575.195 420.898 563.477 416.504 c 0
 551.758 412.109 544.922 409.18 542.969 408.203 c 0
 539.551 406.738 533.203 401.855 523.438 393.066 c 0
 513.672 384.277 503.906 375 493.164 365.234 c 2
 372.07 248.047 l 1
 452.148 75.1953 l 1
 458.008 60.5469 466.797 49.3164 478.027 41.9922 c 0
 489.258 34.668 502.441 30.2734 517.09 28.8086 c 1
 511.23 0 l 1
EndSplineSet
EndChar
StartChar: Y
Encoding: 89 89 58
Width: 492
Flags: W
HStem: 0 21G<126 363> 445.198 16.8025<108 334>
Fore
318.927 445.198 m 0
 300.273 445.198 272.886 439.164 272.886 419.47 c 0
 272.886 396.343 327.077 233.769 330 225 c 1
 337 234 465 380 472 414 c 0
 472.591 416.619 472.869 419.003 472.869 421.173 c 0
 472.869 444.691 440.31 443.169 422 445 c 1
 425 462 l 1
 575 462 l 1
 572 445 l 1
 551 442 535 436 520 418 c 2
 344 206 l 1
 317 80 l 2
 314.258 67.4318 312.821 57.579 312.821 49.7971 c 0
 312.821 23.5245 329.197 20.8574 367 17 c 1
 363 0 l 1
 126 0 l 1
 130 17 l 1
 180 22 195 25 207 80 c 2
 228 180 l 1
 152 407 l 2
 144 427 129 443 105 445 c 1
 108 462 l 1
 337 462 l 1
 334 445 l 1
 329.556 445 324.37 445.198 318.927 445.198 c 0
EndSplineSet
Back
578.125 424.805 m 1
 558.594 421.875 543.945 417.48 534.18 413.086 c 0
 526.855 409.18 518.066 401.855 507.324 392.09 c 0
 497.07 381.836 484.863 368.652 470.215 352.051 c 2
 344.238 207.031 l 1
 316.895 80.0781 l 2
 314.941 70.8008 313.477 62.5 312.988 55.1758 c 0
 312.5 47.8516 313.477 42.4805 315.918 39.0625 c 0
 319.336 35.1562 325.684 32.7148 334.961 31.7383 c 0
 344.238 30.2734 357.422 29.7852 374.023 29.7852 c 1
 368.164 0 l 1
 140.137 0 l 1
 145.996 29.7852 l 1
 178.223 29.7852 199.219 34.1797 209.961 41.9922 c 0
 214.844 45.4102 220.215 60.5469 226.074 87.8906 c 2
 250 201.172 l 1
 229.98 242.188 213.867 275.879 202.148 300.781 c 0
 189.941 326.172 180.176 346.191 172.852 360.84 c 0
 165.527 375.488 160.156 386.23 155.762 393.066 c 0
 151.855 399.902 148.438 404.785 145.02 409.18 c 0
 139.648 415.039 133.789 418.945 127.441 420.898 c 0
 121.094 422.852 113.281 423.828 104.004 423.828 c 1
 109.863 453.125 l 1
 316.895 453.125 l 1
 311.035 423.828 l 1
 280.273 423.828 264.16 419.922 263.184 412.109 c 0
 261.719 408.691 261.719 405.273 263.184 401.855 c 0
 264.16 398.438 266.113 394.531 268.066 389.16 c 2
 327.148 253.906 l 1
 444.824 395.02 l 2
 446.777 397.461 448.73 400.391 450.684 402.832 c 0
 452.148 405.762 453.125 408.203 454.102 411.133 c 0
 456.055 419.434 441.895 423.828 412.109 423.828 c 1
 417.969 453.125 l 1
 583.984 453.125 l 1
 578.125 424.805 l 1
EndSplineSet
EndChar
StartChar: Z
Encoding: 90 90 59
Width: 455
Flags: W
HStem: 0 23<159 415> 321 21G<108 127> 442 20G<153 510>
DStem: 373 438 508 451 21 11 159 24
Fore
468 165 m 1
 415 0 l 1
 19 0 l 1
 21 11 l 1
 373 438 l 1
 250 434 201 452 127 321 c 1
 108 321 l 1
 153 462 l 1
 510 462 l 1
 508 451 l 1
 159 24 l 1
 206 23 l 2
 326 23 392 38 450 165 c 1
 468 165 l 1
EndSplineSet
Back
464.844 132.812 m 1
 417.969 0 l 1
 26.8555 0 l 1
 30.7617 20.0195 l 1
 395.02 412.109 l 1
 265.137 412.109 l 2
 226.562 412.109 197.754 403.809 179.199 387.207 c 0
 170.41 379.883 159.18 358.887 145.02 324.219 c 1
 108.887 324.219 l 1
 150.879 453.125 l 1
 518.066 453.125 l 1
 514.16 433.105 l 1
 157.227 41.9922 l 1
 307.129 41.9922 l 2
 342.773 41.9922 370.117 50.293 389.16 66.8945 c 0
 393.555 71.7773 399.414 79.5898 406.738 90.332 c 0
 413.574 101.562 421.875 115.723 431.152 132.812 c 1
 464.844 132.812 l 1
EndSplineSet
EndChar
StartChar: bracketleft
Encoding: 91 91 60
Width: 227
Flags: W
HStem: -102 23<120.632 184> 440 23<144 300>
DStem: 144 463 201 393 24 -102 108 -43
Fore
304 463 m 1
 300 440 l 1
 257 440 l 2
 218 440 209 433 201 393 c 2
 108 -43 l 2
 106.374 -50.1526 104.96 -56.4595 104.96 -61.7147 c 0
 104.96 -72.6235 111.054 -79 134 -79 c 2
 189 -79 l 1
 184 -102 l 1
 24 -102 l 1
 144 463 l 1
 304 463 l 1
EndSplineSet
Back
151.855 -83.9844 m 1
 4.88281 -83.9844 l 1
 125.977 485.84 l 1
 272.949 485.84 l 1
 266.113 452.148 l 1
 201.172 452.148 l 2
 189.453 452.148 182.129 444.824 178.223 430.176 c 1
 82.0312 -22.9492 l 2
 78.125 -41.0156 83.0078 -49.8047 97.168 -49.8047 c 2
 159.18 -49.8047 l 1
 151.855 -83.9844 l 1
EndSplineSet
EndChar
StartChar: backslash
Encoding: 92 92 61
Width: 223
Flags: W
HStem: -13 21G<141 204> 452 20G<83 146>
DStem: 83 472 146 472 141 -13 204 -13
Fore
141 -13 m 1
 83 472 l 1
 146 472 l 1
 204 -13 l 1
 141 -13 l 1
EndSplineSet
Back
217.773 -117.188 m 1
 165.039 -117.188 l 1
 104.004 477.051 l 1
 155.762 477.051 l 1
 217.773 -117.188 l 1
EndSplineSet
EndChar
StartChar: bracketright
Encoding: 93 93 62
Width: 227
Flags: W
HStem: -102 23<4 160> 440 23<119 177>
DStem: 195 393 280 463 102 -43 160 -102
Fore
0 -102 m 1
 5 -79 l 1
 59 -79 l 2
 94 -79 97 -66 102 -43 c 2
 195 393 l 2
 196.973 402.865 198.094 410.722 198.094 416.963 c 0
 198.094 436.027 187.629 440 159 440 c 2
 116 440 l 1
 120 463 l 1
 280 463 l 1
 160 -102 l 1
 0 -102 l 1
EndSplineSet
Back
129.883 -83.9844 m 1
 -17.0898 -83.9844 l 1
 -9.76562 -49.8047 l 1
 54.1992 -49.8047 l 2
 67.3828 -49.8047 75.1953 -42.9688 78.125 -28.8086 c 1
 173.828 424.805 l 2
 178.223 442.871 172.852 452.148 159.18 452.148 c 2
 97.168 452.148 l 1
 104.004 485.84 l 1
 250.977 485.84 l 1
 129.883 -83.9844 l 1
EndSplineSet
EndChar
StartChar: asciicircum
Encoding: 94 94 63
Width: 396
Flags: W
HStem: 442 20G<269 324>
DStem: 269 462 284 398 95 212 156 212 284 398 324 462 332 212 393 212
Fore
156 212 m 1
 95 212 l 1
 269 462 l 1
 324 462 l 1
 393 212 l 1
 332 212 l 1
 284 398 l 1
 156 212 l 1
EndSplineSet
Back
358.887 193.848 m 1
 300.781 193.848 l 1
 248.047 384.766 l 1
 112.793 193.848 l 1
 55.1758 193.848 l 1
 234.863 449.219 l 1
 287.109 449.219 l 1
 358.887 193.848 l 1
EndSplineSet
EndChar
StartChar: underscore
Encoding: 95 95 64
Width: 341
Flags: W
HStem: -85 34<-12 323>
Fore
323 -85 m 1
 -18 -85 l 1
 -11 -51 l 1
 330 -51 l 1
 323 -85 l 1
EndSplineSet
Back
338.867 -56.1523 m 1
 -11.2305 -56.1523 l 1
 -2.92969 -20.9961 l 1
 347.168 -20.9961 l 1
 338.867 -56.1523 l 1
EndSplineSet
EndChar
StartChar: grave
Encoding: 96 96 65
Width: 200
Flags: W
HStem: 445.128 20G<169.108 191.466>
Fore
128.915 411.273 m 0
 128.915 436.93 154.448 465.128 183.769 465.128 c 0
 199.164 465.128 211.85 455.766 218 438 c 0
 223 425 231 344 235 296 c 1
 208 282 l 1
 181 319 138 380 132 394 c 0
 129.927 399.758 128.915 405.568 128.915 411.273 c 0
EndSplineSet
Back
173.828 204.102 m 1
 136.23 204.102 l 1
 79.1016 245.117 l 1
 70.3125 249.023 66.8945 256.836 67.8711 268.066 c 0
 70.8008 281.25 79.1016 288.086 94.2383 288.086 c 0
 101.562 288.086 108.887 284.18 116.211 276.855 c 1
 173.828 204.102 l 1
EndSplineSet
EndChar
StartChar: a
Encoding: 97 97 66
Width: 341
Flags: W
HStem: -10 21G<71.9621 110.5 238 271> 301 22<205 227>
VStem: 28.9151 104.743<46.2619 71.3103> 79.1405 91.7026<223 238.137> 254.696 90.3354<247 263>
DStem: 235 167 343 229 214 68 305 51
Fore
170.843 238.137 m 0
 170.843 208.454 139.169 192 116 192 c 0
 92.1671 192 79.1405 202.806 79.1405 223.309 c 0
 79.1405 227.754 79.7528 232.655 81 238 c 0
 94 302 176 323 227 323 c 0
 281.481 323 345.032 305.686 345.032 247.848 c 0
 345.032 241.989 344.38 235.715 343 229 c 2
 305 51 l 2
 304.56 49.0218 304.314 47.0918 304.314 45.2846 c 0
 304.314 38.8696 307.418 34 316 34 c 0
 322 34 329 40 332 44 c 1
 339 29 l 1
 315 7 286 -10 256 -10 c 0
 220 -10 209 5 209 38 c 1
 174 10 131 -10 90 -10 c 0
 53.9241 -10 28.9151 12.1339 28.9151 46.2619 c 0
 28.9151 142.366 182.899 174.378 242 191 c 1
 246.496 213.479 254.696 239.041 254.696 263.118 c 0
 254.696 289.407 239.509 301 205 301 c 0
 191.973 301 158.677 293.22 158.677 273.986 c 0
 158.677 263.279 170.843 255.385 170.843 238.137 c 0
214 68 m 1
 235 167 l 1
 192.107 157.585 133.658 125.173 133.658 71.3103 c 0
 133.658 54.4802 140.328 39 160 39 c 0
 180 39 199 54 214 68 c 1
EndSplineSet
Back
241.211 187.988 m 1
 171.875 165.527 133.301 136.719 125.977 102.051 c 0
 122.559 87.4023 124.512 75.1953 130.859 64.9414 c 0
 132.812 61.5234 135.742 58.5938 139.16 56.6406 c 0
 142.09 54.1992 147.461 53.2227 153.809 53.2227 c 0
 178.711 53.2227 198.242 61.0352 212.891 77.1484 c 0
 214.844 79.1016 216.797 82.0312 218.262 86.4258 c 0
 220.215 90.8203 221.191 94.2383 222.168 97.168 c 2
 241.211 187.988 l 1
334.961 34.1797 m 1
 307.129 7.8125 280.273 -4.88281 254.883 -4.88281 c 0
 224.121 -4.88281 209.473 8.78906 210.938 36.1328 c 1
 168.457 8.78906 133.789 -4.88281 106.934 -4.88281 c 0
 82.5195 -4.88281 63.4766 2.44141 50.7812 17.5781 c 0
 38.5742 32.7148 34.668 51.7578 40.0391 76.1719 c 0
 47.8516 113.281 70.8008 143.555 108.887 166.016 c 0
 116.211 169.922 131.348 176.758 154.297 186.523 c 0
 177.734 196.289 208.984 208.496 249.023 224.121 c 1
 256.836 263.184 l 2
 263.672 296.387 252.441 312.988 223.145 312.988 c 0
 196.289 312.988 180.176 303.711 174.805 285.156 c 0
 174.316 283.203 173.828 278.809 173.828 272.949 c 0
 173.828 267.09 173.828 262.207 172.852 258.789 c 0
 172.363 255.859 170.898 251.465 167.969 246.582 c 0
 165.527 241.699 161.133 236.328 155.762 230.957 c 0
 151.367 227.051 145.996 224.121 139.648 222.168 c 0
 133.301 220.215 127.441 219.238 123.047 219.238 c 0
 111.816 219.238 103.027 222.168 97.168 229.004 c 0
 90.8203 235.84 89.3555 245.605 91.7969 258.789 c 0
 98.1445 286.133 118.164 309.082 151.855 327.148 c 0
 165.527 334.473 178.711 339.355 192.383 342.285 c 0
 206.055 345.703 220.703 347.168 235.84 347.168 c 0
 277.832 347.168 305.664 337.402 318.848 317.383 c 0
 332.52 297.852 334.473 266.602 325.195 224.121 c 2
 294.922 83.9844 l 1
 291.016 62.5 292.48 51.7578 298.828 51.7578 c 0
 302.246 51.7578 307.617 54.1992 314.941 58.1055 c 0
 322.266 62.0117 332.52 68.8477 345.215 78.125 c 1
 334.961 34.1797 l 1
EndSplineSet
EndChar
StartChar: b
Encoding: 98 98 67
Width: 379
Flags: W
HStem: -10 22<190 205> 286 37<253 296> 442 20G<110 242>
VStem: 296.588 99.1307<207 224>
DStem: 135 406 242 462 47 -9 205 285 135 406 196 246 47 -9 158 66
Fore
391 165 m 0
 370 67 298 -10 195 -10 c 0
 163 -10 136 8 117 29 c 1
 55 -9 l 1
 47 -9 l 1
 135 406 l 2
 136.192 411.762 136.792 416.616 136.792 420.726 c 0
 136.792 437.305 127.033 441.795 107 445 c 1
 110 462 l 1
 242 462 l 1
 205 285 l 1
 233 309 262 323 296 323 c 0
 367.038 323 395.719 270.215 395.719 209.361 c 0
 395.719 194.831 394.084 179.841 391 165 c 0
288 154 m 0
 291.768 172.004 296.588 198.072 296.588 222.295 c 0
 296.588 255.925 287.297 286 253 286 c 0
 226 286 210 268 196 246 c 1
 158 66 l 2
 156.957 61.1335 156.428 56.3273 156.428 51.7076 c 0
 156.428 29.7475 168.388 12 194 12 c 0
 258 12 278 110 288 154 c 0
EndSplineSet
Back
324.219 157.227 m 0
 328.125 174.805 330.566 191.406 331.055 206.055 c 0
 331.543 220.703 330.566 233.887 327.148 246.094 c 0
 318.848 275.879 300.781 291.016 272.949 291.016 c 0
 257.812 291.016 243.164 286.621 229.98 277.832 c 0
 213.867 267.09 204.59 255.859 202.148 243.164 c 2
 163.086 61.0352 l 1
 162.109 56.1523 163.574 52.2461 166.992 48.8281 c 0
 170.41 45.8984 174.805 42.9688 180.176 40.5273 c 0
 185.547 38.0859 191.406 36.6211 198.242 35.6445 c 0
 204.59 34.668 210.449 34.1797 214.844 34.1797 c 0
 270.996 34.1797 307.129 75.1953 324.219 157.227 c 0
414.062 183.105 m 0
 409.18 161.621 401.367 140.625 390.137 120.605 c 0
 378.906 100.098 364.258 81.0547 347.168 62.9883 c 0
 305.176 17.5781 252.93 -4.88281 190.918 -4.88281 c 0
 178.223 -4.88281 166.016 -4.39453 154.297 -2.92969 c 0
 143.066 -1.46484 131.836 1.46484 122.07 6.83594 c 0
 107.422 14.1602 96.6797 20.9961 89.3555 26.3672 c 0
 82.5195 32.2266 79.5898 39.5508 81.0547 48.8281 c 1
 162.109 426.758 l 2
 165.527 442.383 166.504 450.684 165.039 452.148 c 0
 162.109 455.566 158.203 457.031 151.855 457.031 c 2
 121.094 454.102 l 1
 125.977 481.934 l 1
 138.184 485.352 154.785 490.234 176.758 496.582 c 0
 199.219 502.93 222.656 509.766 248.047 517.09 c 1
 258.789 513.184 l 1
 217.773 317.871 l 1
 231.445 328.613 246.582 337.402 264.16 343.262 c 0
 281.25 349.609 297.363 353.027 312.012 353.027 c 0
 357.422 353.027 388.184 334.473 404.785 297.852 c 0
 412.109 281.25 416.992 263.672 418.457 244.629 c 0
 420.41 225.586 418.457 205.078 414.062 183.105 c 0
EndSplineSet
EndChar
StartChar: c
Encoding: 99 99 68
Width: 303
Flags: W
HStem: -10 46<161 216> 302 21<233 247>
VStem: 44.0205 102.838<110 132.429> 252.206 86.1745<232.642 261.43>
Fore
235 302 m 0
 171.997 302 146.859 187.041 146.859 132.429 c 0
 146.859 83.9284 162.876 36 216 36 c 0
 250 36 271 51 297 74 c 1
 307 62 l 1
 267 19 215 -10 161 -10 c 0
 86.9232 -10 44.0205 42.9236 44.0205 110.499 c 0
 44.0205 122.288 45.3262 134.522 48 147 c 0
 69 244 145 323 247 323 c 0
 287.251 323 338.381 303.753 338.381 261.43 c 0
 338.381 227.96 312.975 205 282 205 c 0
 258.04 205 252.206 217.043 252.206 232.642 c 0
 252.206 259.312 272.55 302 235 302 c 0
EndSplineSet
Back
340.82 118.164 m 1
 286.133 36.1328 227.051 -4.88281 163.086 -4.88281 c 0
 141.602 -4.88281 123.047 -0.976562 106.445 7.32422 c 0
 90.332 15.625 77.1484 29.2969 67.8711 47.8516 c 0
 60.5469 63.4766 55.6641 80.5664 53.2227 99.6094 c 0
 50.293 118.652 51.7578 139.648 57.1289 163.086 c 0
 66.8945 212.891 90.8203 255.859 128.906 291.992 c 0
 168.945 328.613 213.867 347.168 264.16 347.168 c 0
 293.457 347.168 316.406 340.82 333.008 329.102 c 0
 345.215 321.777 353.027 312.5 357.422 300.781 c 0
 361.816 289.551 362.793 278.32 360.84 267.09 c 0
 358.398 255.859 352.539 246.094 342.773 237.793 c 0
 333.496 229.98 322.754 226.074 310.059 226.074 c 0
 299.316 226.074 291.016 229.98 285.156 237.305 c 0
 278.809 245.117 275.879 254.883 274.902 266.113 c 0
 273.438 282.227 271.484 293.457 268.555 299.805 c 0
 265.625 306.641 257.324 310.059 244.141 310.059 c 0
 218.75 310.059 195.312 296.875 173.828 270.996 c 0
 154.785 247.559 142.09 221.191 136.23 190.918 c 0
 127.93 154.785 130.371 125.488 143.066 102.051 c 0
 156.25 75.1953 177.734 62.0117 207.031 62.0117 c 0
 227.539 62.0117 247.559 68.3594 266.113 81.0547 c 0
 279.297 88.8672 297.363 106.445 319.824 132.812 c 1
 340.82 118.164 l 1
EndSplineSet
EndChar
StartChar: d
Encoding: 100 100 69
Width: 379
Flags: W
HStem: -10 39<135 179> 285 38<218 237> 442 20G<276 422>
VStem: 43.9746 96.9288<84 107.175>
DStem: 280 242 422 462 245 76 339 69 315 406 422 462 289 281 339 69
Fore
368 14 m 1
 322 8 277 3 229 -9 c 1
 239 36 l 1
 203 4 180 -10 135 -10 c 0
 70.0316 -10 43.9746 48.6967 43.9746 107.175 c 0
 43.9746 120.705 45.3695 134.223 48 147 c 0
 65 227 125 323 218 323 c 0
 253 323 272 305 289 281 c 1
 315 406 l 2
 316.238 411.883 316.83 416.831 316.83 421 c 0
 316.83 443.762 299.201 443.31 273 445 c 1
 276 462 l 1
 422 462 l 1
 339 69 l 2
 337.785 63.1257 337.144 58.031 337.144 53.6328 c 0
 337.144 36.318 347.077 29.7974 371 29 c 1
 368 14 l 1
245 76 m 2
 280 242 l 2
 280.376 243.505 280.554 245.026 280.554 246.554 c 0
 280.554 265.33 253.646 285 237 285 c 0
 180 285 160 197 151 157 c 0
 147.262 139.243 140.903 110.133 140.903 84.1562 c 0
 140.903 54.5414 149.168 29 179 29 c 0
 197 29 241 57 245 76 c 2
EndSplineSet
Back
288.086 250.977 m 1
 290.527 270.996 287.109 287.598 276.855 300.781 c 0
 272.461 306.152 266.602 310.059 259.277 312.5 c 0
 252.441 314.941 245.117 315.918 236.816 315.918 c 0
 221.68 315.918 208.008 312.012 195.801 304.199 c 0
 184.082 295.898 173.828 285.645 165.039 273.438 c 0
 156.25 261.23 148.926 247.559 143.555 232.91 c 0
 137.695 218.262 133.789 204.102 130.859 190.918 c 0
 127.441 174.805 125.488 158.691 125 141.602 c 0
 124.512 124.512 125.977 109.375 129.883 95.7031 c 0
 133.789 82.0312 140.625 70.3125 150.391 61.5234 c 0
 160.156 52.7344 173.828 47.8516 190.918 47.8516 c 0
 220.215 47.8516 241.211 60.5469 252.93 84.9609 c 1
 288.086 250.977 l 1
369.141 33.2031 m 1
 247.07 -5.85938 l 1
 234.863 0.976562 l 1
 240.234 23.9258 l 1
 213.379 4.88281 183.105 -4.88281 149.902 -4.88281 c 0
 120.605 -4.88281 94.7266 3.90625 71.7773 20.9961 c 0
 56.6406 33.2031 46.875 51.2695 42.4805 76.6602 c 0
 38.0859 101.562 39.5508 130.859 46.875 165.039 c 0
 57.6172 215.82 80.0781 258.301 113.77 292.969 c 0
 153.32 333.008 196.777 353.027 244.141 353.027 c 0
 266.602 353.027 287.109 346.191 306.152 333.008 c 1
 326.172 426.758 l 1
 329.102 440.43 330.566 448.242 329.102 450.195 c 0
 326.172 454.102 321.777 456.055 314.941 456.055 c 2
 284.18 453.125 l 1
 290.039 481.934 l 1
 308.594 487.305 324.219 491.699 336.914 495.117 c 0
 349.609 498.535 360.352 501.465 369.141 503.906 c 0
 377.441 506.836 384.766 508.789 391.113 511.23 c 0
 396.973 513.184 402.832 515.137 409.18 517.09 c 1
 422.852 513.184 l 1
 333.984 91.7969 l 1
 330.566 78.6133 330.078 69.8242 332.52 65.4297 c 0
 334.961 61.0352 341.309 59.082 352.051 59.082 c 2
 375 61.0352 l 1
 369.141 33.2031 l 1
EndSplineSet
EndChar
StartChar: e
Encoding: 101 101 70
Width: 303
Flags: W
HStem: -10 50<154 206> 167 26<153 322> 302 21<220 229>
VStem: 45.2948 100.151<101 121> 255.007 71.5164<215.878 260.725>
Fore
45.2948 108.182 m 0
 45.2948 219.196 125.533 323 227 323 c 0
 301.72 323 326.523 276.243 326.523 215.878 c 0
 326.523 200.302 324.872 183.819 322 167 c 1
 150 167 l 1
 147.44 152.207 145.446 135.553 145.446 119.294 c 0
 145.446 78.3983 158.06 40 206 40 c 0
 240 40 268 61 292 85 c 1
 307 76 l 1
 262 24 218 -10 154 -10 c 0
 77.736 -10 45.2948 42.8453 45.2948 108.182 c 0
244 193 m 1
 247.562 209.282 255.007 237.214 255.007 260.725 c 0
 255.007 283.422 248.068 302 224 302 c 0
 175 302 160 226 153 193 c 1
 244 193 l 1
EndSplineSet
Back
226.074 305.176 m 0
 191.895 305.176 165.039 283.203 145.02 240.234 c 1
 269.043 240.234 l 1
 271.484 283.203 257.324 305.176 226.074 305.176 c 0
352.051 125.977 m 1
 345.215 112.793 336.914 99.1211 327.148 85.9375 c 0
 316.895 72.7539 305.176 60.0586 291.992 47.8516 c 0
 251.953 12.6953 208.984 -4.88281 163.086 -4.88281 c 0
 123.047 -4.88281 93.75 6.83594 75.1953 30.2734 c 0
 56.1523 54.1992 48.3398 85.9375 50.7812 125.977 c 0
 51.7578 130.859 52.7344 136.23 53.7109 142.09 c 0
 54.6875 147.949 56.1523 154.785 58.1055 163.086 c 0
 67.8711 212.402 88.8672 253.906 121.094 288.086 c 0
 158.203 327.148 201.172 347.168 250 347.168 c 0
 292.48 347.168 322.754 333.984 339.844 307.617 c 0
 357.422 281.25 360.84 245.117 351.074 199.219 c 1
 131.836 199.219 l 1
 115.234 106.445 140.137 60.0586 207.031 60.0586 c 0
 226.562 60.0586 246.094 66.8945 266.113 80.0781 c 0
 286.133 93.2617 307.617 112.793 331.055 139.16 c 1
 352.051 125.977 l 1
EndSplineSet
EndChar
StartChar: f
Encoding: 102 102 71
Width: 227
Flags: W
HStem: 0 21G<10 199> 285 30<76 109 210 264> 451 21<273 275>
VStem: 266.119 87.1967<390.428 415.979> 290.239 63.0773<415.979 440.498>
DStem: 109 285 204 285 60 57 158 70
Fore
353.316 415.979 m 0
 353.316 384.091 327.594 361 300 361 c 0
 281.509 361 266.119 372.63 266.119 390.428 c 0
 266.119 412.504 287.874 426.308 290 438 c 0
 290.162 438.891 290.239 439.722 290.239 440.498 c 0
 290.239 449.311 280.352 451 273 451 c 0
 242 451 232 421 228 398 c 2
 210 315 l 1
 270 315 l 1
 264 285 l 1
 204 285 l 1
 158 70 l 2
 155.751 59.6567 154.565 51.3358 154.565 44.628 c 0
 154.565 21.504 168.669 17.5503 202 16 c 1
 199 0 l 1
 10 0 l 1
 13 16 l 1
 42 20 54 26 60 57 c 2
 109 285 l 1
 71 285 l 1
 77 315 l 1
 115 315 l 1
 134 406 164 472 273 472 c 0
 309.426 472 353.316 454.585 353.316 415.979 c 0
EndSplineSet
Back
387.207 462.891 m 0
 384.766 451.66 379.883 442.383 371.582 435.059 c 0
 363.281 427.734 352.051 423.828 337.891 423.828 c 0
 332.031 423.828 326.172 425.781 320.312 430.176 c 0
 314.941 434.082 310.547 440.43 307.129 449.219 c 0
 300.781 468.262 293.457 478.027 285.156 478.027 c 0
 263.184 478.027 247.559 458.984 238.77 420.898 c 1
 224.121 346.191 l 1
 310.059 346.191 l 1
 300.781 306.152 l 1
 215.82 306.152 l 1
 168.945 83.9844 l 1
 163.574 61.5234 162.598 46.875 166.016 41.0156 c 0
 170.898 32.2266 189.453 27.832 222.168 27.832 c 1
 215.82 0 l 1
 14.1602 0 l 1
 20.0195 27.832 l 1
 40.5273 29.2969 54.1992 30.7617 61.0352 32.7148 c 0
 67.8711 34.1797 71.7773 35.6445 73.2422 37.1094 c 0
 79.5898 44.9219 85.4492 60.5469 90.8203 83.9844 c 1
 138.184 306.152 l 1
 80.0781 306.152 l 1
 88.8672 346.191 l 1
 146.973 346.191 l 1
 172.852 459.961 229.98 517.09 317.871 517.09 c 0
 327.148 517.09 335.449 516.113 342.773 515.137 c 0
 350.098 513.672 357.91 510.742 365.234 505.859 c 0
 373.535 500.488 379.883 494.141 383.789 486.328 c 0
 388.184 479.004 389.16 471.191 387.207 462.891 c 0
EndSplineSet
EndChar
StartChar: g
Encoding: 103 103 72
Width: 341
Flags: W
HStem: -141 22<118 158> 272 36<305 387> 302 21<224 236>
VStem: 1.12786 61.0728<-89 -79> 34.3323 85.1656<17.1004 66.5434> 68.0207 88.7884<163.404 194.322> 260.566 86.1343<226.563 259.721>
Fore
34.3323 17.1004 m 0
 34.3323 72.2604 105.042 102.712 132 110 c 1
 94.7601 124.723 68.0207 153.696 68.0207 194.322 c 0
 68.0207 200.606 68.6604 207.168 70 214 c 0
 87 290 169 323 234 323 c 0
 260 323 284 318 305 308 c 1
 394 308 l 1
 387 272 l 1
 332 272 l 1
 341.8 258.7 346.7 243.44 346.7 226.563 c 0
 346.7 219.33 345.8 211.8 344 204 c 0
 334 156 300 126 253 111 c 0
 220 101 131 120 120 71 c 0
 119.662 69.4147 119.498 67.9314 119.498 66.5434 c 0
 119.498 17.5242 324.397 87.413 324.397 -16.8342 c 0
 324.397 -23.2147 323.629 -30.2476 322 -38 c 0
 303 -129 194 -141 124 -141 c 0
 88.9844 -141 1.12786 -134.731 1.12786 -87.4416 c 0
 1.12786 -48.8247 47.1177 -29.9878 76 -27 c 1
 76 -26 l 1
 53.6941 -17.4208 34.3323 -8.1056 34.3323 17.1004 c 0
254 212 m 0
 256.932 225.403 260.566 243.368 260.566 259.721 c 0
 260.566 282.412 253.57 302 228 302 c 0
 183 302 171 244 164 212 c 0
 160.968 198.137 156.809 179.771 156.809 163.404 c 0
 156.809 141.99 163.928 124 190 124 c 0
 235 124 247 180 254 212 c 0
261 -70 m 0
 261.527 -67.365 261.776 -64.9306 261.776 -62.6818 c 0
 261.776 -39.3282 234.892 -36 213 -36 c 2
 95 -36 l 1
 78.96 -46.6933 62.2007 -60.1571 62.2007 -81.3026 c 0
 62.2007 -112.916 110.964 -119 138 -119 c 0
 170 -119 251 -117 261 -70 c 0
EndSplineSet
Back
268.066 211.914 m 0
 271.973 231.934 272.461 251.953 270.02 271.973 c 0
 266.113 300.781 252.93 314.941 230.957 314.941 c 0
 203.613 314.941 186.035 296.875 178.223 261.23 c 0
 163.574 188.965 175.781 152.832 215.82 152.832 c 0
 242.676 152.832 259.766 172.852 268.066 211.914 c 0
291.016 -19.043 m 0
 292.48 -13.6719 291.016 -8.78906 287.109 -4.88281 c 0
 283.203 -0.976562 277.344 1.95312 270.02 3.90625 c 0
 260.742 7.32422 250 9.27734 237.793 9.76562 c 0
 226.074 10.7422 214.355 11.2305 203.125 11.2305 c 2
 141.113 11.2305 l 2
 131.836 11.2305 123.535 12.207 116.211 14.1602 c 1
 92.7734 -10.7422 80.0781 -27.832 78.125 -38.0859 c 0
 71.7773 -64.4531 100.098 -78.125 162.109 -78.125 c 0
 174.805 -78.125 187.5 -76.6602 200.195 -74.2188 c 0
 212.891 -71.2891 225.098 -67.8711 237.793 -63.9648 c 0
 269.531 -54.1992 287.109 -39.0625 291.016 -19.043 c 0
398.926 285.156 m 1
 346.191 285.156 l 1
 348.633 267.09 348.145 248.535 344.238 229.98 c 0
 340.82 213.379 334.473 198.242 326.172 184.57 c 0
 317.383 170.898 306.641 159.18 293.945 149.414 c 0
 281.25 139.648 267.09 132.324 251.953 126.953 c 0
 236.816 121.582 220.215 119.141 203.125 119.141 c 0
 196.289 119.141 189.453 119.141 182.617 119.629 c 0
 175.293 119.629 169.922 120.605 166.016 122.07 c 2
 164.062 122.07 l 2
 161.133 122.07 158.691 120.605 155.273 118.164 c 0
 152.344 115.234 148.926 112.305 145.02 108.887 c 0
 132.812 98.1445 126.953 91.3086 126.953 87.8906 c 0
 125.488 82.5195 140.137 79.1016 170.898 77.1484 c 2
 255.859 71.7773 l 2
 282.227 70.8008 302.246 62.9883 316.406 48.3398 c 0
 331.055 34.1797 335.449 15.1367 330.078 -8.78906 c 0
 326.172 -29.7852 315.918 -47.8516 299.316 -63.4766 c 0
 283.203 -79.1016 264.648 -92.2852 243.652 -103.027 c 0
 222.656 -113.77 200.684 -121.582 178.711 -126.953 c 0
 156.25 -132.324 136.23 -134.766 119.141 -134.766 c 0
 106.934 -134.766 93.75 -133.789 79.5898 -131.348 c 0
 64.9414 -129.395 52.2461 -125 40.5273 -119.141 c 0
 28.8086 -112.793 19.5312 -104.98 13.1836 -95.7031 c 0
 6.34766 -85.9375 4.39453 -73.7305 6.83594 -59.082 c 0
 12.207 -35.1562 38.0859 -7.8125 83.9844 22.9492 c 1
 76.1719 29.7852 69.8242 35.6445 65.918 41.5039 c 0
 62.0117 47.3633 60.5469 53.7109 62.0117 61.0352 c 0
 65.918 78.125 89.3555 103.027 131.836 134.766 c 1
 99.1211 154.785 86.9141 186.035 95.2148 228.027 c 0
 99.1211 246.094 105.957 262.695 115.723 277.832 c 0
 125 293.457 136.719 306.641 150.391 317.383 c 0
 164.062 328.613 179.199 336.914 195.801 342.773 c 0
 212.891 349.121 229.98 352.051 248.047 352.051 c 0
 265.137 352.051 287.109 346.68 313.965 335.938 c 0
 325.195 332.031 336.426 330.078 347.168 330.078 c 2
 408.203 330.078 l 1
 398.926 285.156 l 1
EndSplineSet
EndChar
StartChar: h
Encoding: 104 104 73
Width: 379
Flags: W
HStem: 0 16<362 368> 277 46<258 309> 442 20G<109 240>
VStem: 286.519 95.5048<236 257>
DStem: 133 406 240 462 59 57 199 270 133 406 193 238 59 57 154 55
Fore
365 0 m 1
 204 0 l 1
 207 16 l 1
 232 18 243 33 248 55 c 2
 283 221 l 2
 284.977 229.565 286.519 238.565 286.519 246.783 c 0
 286.519 263.511 280.128 277 258 277 c 0
 243 277 196 253 193 238 c 2
 154 55 l 2
 152.866 49.5557 152.246 44.729 152.246 40.4847 c 0
 152.246 26.0189 159.444 18.3195 178 16 c 1
 175 0 l 1
 11 0 l 1
 14 16 l 1
 44 22 53 27 59 57 c 2
 133 406 l 2
 134.665 413.136 135.538 418.801 135.538 423.359 c 0
 135.538 437.96 126.577 441.189 106 445 c 1
 109 462 l 1
 240 462 l 1
 199 270 l 1
 232 300 267 323 309 323 c 0
 365.035 323 382.024 292.576 382.024 250.884 c 0
 382.024 186.654 341.704 95.6814 341.704 47.9967 c 0
 341.704 28.3086 348.577 16 368 16 c 1
 365 0 l 1
EndSplineSet
Back
383.789 0 m 1
 214.844 0 l 1
 221.191 25.8789 l 1
 232.422 27.3438 241.699 28.8086 248.535 30.7617 c 0
 255.371 33.2031 260.742 35.1562 264.16 38.0859 c 0
 267.09 40.5273 270.508 45.8984 272.949 54.1992 c 0
 275.879 62.0117 278.32 71.7773 280.762 83.0078 c 1
 311.035 228.027 l 1
 320.801 273.926 311.035 296.875 280.762 296.875 c 0
 260.254 296.875 234.375 283.203 203.125 255.859 c 1
 166.992 83.0078 l 1
 164.551 71.7773 162.598 62.0117 161.621 54.1992 c 0
 160.645 45.8984 161.621 40.5273 165.039 37.1094 c 0
 166.504 35.1562 178.711 30.7617 202.148 24.9023 c 1
 196.777 0 l 1
 23.9258 0 l 1
 29.7852 25.8789 l 1
 41.9922 27.3438 51.7578 29.7852 59.082 33.2031 c 0
 66.4062 36.1328 71.2891 39.5508 74.2188 42.9688 c 0
 78.125 46.875 82.5195 60.5469 87.8906 83.0078 c 1
 165.039 449.219 l 1
 160.156 452.148 155.762 454.102 150.879 454.102 c 2
 121.094 452.148 l 1
 126.953 480.957 l 1
 247.07 517.09 l 1
 256.836 508.789 l 1
 214.844 311.035 l 1
 248.535 338.867 283.203 353.027 318.848 353.027 c 0
 384.277 353.027 408.691 311.523 392.09 229.004 c 1
 360.84 83.0078 l 2
 356.445 61.5234 354.492 48.3398 355.957 42.9688 c 0
 358.887 37.1094 369.629 30.2734 389.16 22.9492 c 1
 383.789 0 l 1
EndSplineSet
EndChar
StartChar: i
Encoding: 105 105 74
Width: 189
Flags: W
HStem: 0 21G<11 174> 295 20G<78 209> 366 106<172 194>
DStem: 102 258 209 315 59 57 154 55
Fore
237.15 429.947 m 0
 237.15 393.509 203.006 366 172 366 c 0
 145.875 366 128.85 383.442 128.85 407.759 c 0
 128.85 444.675 164.21 472 194 472 c 0
 220.125 472 237.15 453.8 237.15 429.947 c 0
174 0 m 1
 11 0 l 1
 14 16 l 1
 43 23 53 27 59 57 c 2
 102 258 l 2
 103.249 264.035 103.891 269.117 103.891 273.418 c 0
 103.891 289.783 94.5894 294.832 74 298 c 1
 78 315 l 1
 209 315 l 1
 154 55 l 2
 152.855 49.7325 152.234 44.9896 152.234 40.7711 c 0
 152.234 26.57 159.267 18.3129 177 16 c 1
 174 0 l 1
EndSplineSet
Back
192.871 0 m 1
 199.219 25.8789 l 1
 172.852 29.7852 159.18 34.1797 157.227 38.0859 c 0
 155.762 41.5039 155.273 47.3633 155.273 55.6641 c 0
 155.762 63.9648 157.227 72.7539 159.18 82.0312 c 2
 216.797 351.074 l 1
 206.055 354.98 l 1
 82.0312 309.082 l 1
 76.1719 284.18 l 1
 113.77 289.062 l 1
 123.535 288.574 125.488 276.367 120.117 252.93 c 1
 83.0078 82.0312 l 1
 79.1016 60.5469 73.2422 46.3867 64.9414 38.5742 c 0
 57.1289 30.7617 41.5039 26.8555 19.043 26.8555 c 1
 13.1836 0 l 1
 192.871 0 l 1
155.762 472.168 m 0
 153.32 458.496 155.273 447.266 161.621 438.477 c 0
 167.969 429.688 177.734 424.805 190.918 424.805 c 0
 203.613 424.805 215.332 429.688 225.586 438.477 c 0
 235.84 447.266 242.188 458.496 245.117 472.168 c 0
 248.535 485.352 246.582 496.094 240.234 504.883 c 0
 233.398 513.672 223.633 518.066 210.938 518.066 c 0
 197.754 518.066 186.035 513.672 175.781 504.883 c 0
 166.016 496.094 159.18 485.352 155.762 472.168 c 0
EndSplineSet
EndChar
StartChar: j
Encoding: 106 106 75
Width: 227
Flags: W
HStem: -139 22<20 33> 295 20G<107 245> 366 106<204 226>
VStem: -55.4369 60.386<-106.899 -82.3053> 161.803 108.303<407.326 429.548>
DStem: 138 258 245 315 69 -66 177 -3
Fore
270.105 429.548 m 0
 270.105 393.081 234.72 366 204 366 c 0
 178.031 366 161.803 383.235 161.803 407.326 c 0
 161.803 444.218 195.91 472 226 472 c 0
 252.27 472 270.105 453.597 270.105 429.548 c 0
-55.4369 -82.3053 m 0
 -55.4369 -49.7259 -29.9753 -29 -3 -29 c 0
 15.491 -29 30.8807 -40.6298 30.8807 -58.428 c 0
 30.8807 -82.0294 4.94915 -93.8385 4.94915 -106.899 c 0
 4.94915 -115.134 18.2393 -117 25 -117 c 0
 55 -117 64 -89 69 -66 c 2
 138 258 l 2
 139.247 264.058 139.86 269.163 139.86 273.475 c 0
 139.86 293.362 126.833 296.356 103 298 c 1
 107 315 l 1
 245 315 l 1
 177 -3 l 2
 160 -87 113 -139 22 -139 c 0
 -15.904 -139 -55.4369 -121.082 -55.4369 -82.3053 c 0
EndSplineSet
Back
275.879 354.004 m 1
 266.113 357.91 l 1
 139.16 312.012 l 1
 133.789 286.133 l 1
 172.852 291.016 l 1
 181.152 290.527 182.617 278.32 178.223 254.883 c 1
 119.141 -21.9727 l 1
 110.84 -63.4766 104.98 -87.4023 101.074 -94.2383 c 0
 97.6562 -100.586 93.2617 -105.957 88.3789 -110.352 c 0
 83.4961 -114.746 79.1016 -117.188 75.1953 -117.188 c 0
 73.2422 -117.188 69.8242 -115.234 65.4297 -111.328 c 0
 61.0352 -107.91 57.6172 -102.539 55.1758 -95.2148 c 0
 51.7578 -85.4492 46.875 -79.5898 41.0156 -76.6602 c 0
 35.1562 -73.7305 28.3203 -71.7773 20.9961 -71.7773 c 0
 19.5312 -71.7773 16.1133 -72.7539 9.76562 -74.707 c 0
 3.90625 -76.1719 -0.488281 -78.125 -3.90625 -81.0547 c 0
 -7.32422 -84.4727 -10.7422 -88.3789 -14.1602 -92.7734 c 0
 -17.0898 -97.6562 -19.5312 -102.539 -20.9961 -107.91 c 0
 -23.4375 -121.094 -20.0195 -133.301 -10.7422 -143.555 c 0
 -0.976562 -153.809 15.625 -159.18 39.0625 -159.18 c 0
 80.5664 -159.18 114.746 -145.508 142.578 -119.141 c 0
 170.41 -92.2852 189.453 -51.7578 201.172 1.95312 c 2
 275.879 354.004 l 1
214.844 475.098 m 0
 211.426 461.426 213.379 450.684 220.703 441.895 c 0
 227.539 433.105 237.305 429.199 250 429.199 c 0
 262.695 429.199 273.926 433.105 284.668 441.895 c 0
 294.922 450.684 301.758 461.426 305.176 475.098 c 0
 308.105 488.281 306.641 499.512 299.316 508.301 c 0
 292.48 517.578 282.715 521.973 270.02 521.973 c 0
 257.324 521.973 245.605 517.578 235.352 508.301 c 0
 225.098 499.512 218.262 488.281 214.844 475.098 c 0
EndSplineSet
EndChar
StartChar: k
Encoding: 107 107 76
Width: 379
Flags: W
HStem: 0 16<18 27.0079 214 226.188 369 374> 295 20G<271 417> 445 17<110 116>
DStem: 135 407 241 462 60 57 178 167
Fore
371 0 m 1
 211 0 l 1
 214 16 l 1
 222.467 16 246.204 17.9804 246.204 30.9483 c 0
 246.204 51.8443 193.862 146.207 190 152 c 1
 172 135 l 1
 155 57 l 2
 153.331 48.653 152.281 42.1639 152.281 37.0374 c 0
 152.281 23.7386 159.347 19.6088 181 16 c 1
 178 0 l 1
 15 0 l 1
 18 16 l 1
 42 16 56 36 60 57 c 2
 135 407 l 2
 135.751 410.941 136.149 414.741 136.149 418.315 c 0
 136.149 433.782 128.684 445 110 445 c 1
 113 462 l 1
 241 462 l 1
 178 167 l 1
 192 178 299 259 303 279 c 0
 303.272 280.291 303.4 281.489 303.4 282.603 c 0
 303.4 297.878 279.185 297.136 268 299 c 1
 271 315 l 1
 417 315 l 1
 414 299 l 1
 358 290 309 251 266 210 c 1
 360 27 l 2
 362 20 366 16 374 16 c 1
 371 0 l 1
EndSplineSet
Back
398.926 0 m 1
 225.098 0 l 1
 230.957 28.8086 l 1
 249.023 28.8086 l 2
 253.906 28.8086 256.348 29.7852 256.836 32.2266 c 0
 256.836 32.7148 256.836 33.2031 256.348 34.1797 c 0
 256.348 34.668 255.859 35.6445 255.859 37.1094 c 1
 189.941 161.133 l 1
 167.969 57.1289 l 1
 165.527 41.0156 173.828 32.2266 192.871 29.7852 c 2
 215.82 27.832 l 1
 209.961 0 l 1
 23.9258 0 l 1
 29.7852 27.832 l 1
 56.6406 31.25 70.8008 33.6914 71.7773 35.1562 c 0
 76.6602 38.5742 80.5664 42.4805 83.4961 47.3633 c 0
 86.4258 52.7344 88.8672 59.5703 90.8203 68.8477 c 2
 165.039 419.922 l 1
 166.992 428.223 167.969 434.082 168.457 438.477 c 0
 168.945 442.871 168.457 445.801 167.969 446.777 c 0
 167.48 449.219 166.016 450.684 164.551 452.637 c 0
 162.598 454.102 159.18 455.078 153.809 455.078 c 2
 120.117 452.148 l 1
 125.977 479.004 l 1
 250.977 515.137 l 1
 265.137 511.23 l 1
 203.125 221.191 l 1
 300.781 294.922 l 2
 305.664 298.828 309.57 302.246 312.012 304.688 c 0
 314.453 306.641 316.406 309.082 316.895 311.035 c 0
 317.871 314.941 306.152 316.895 282.227 316.895 c 1
 289.062 346.191 l 1
 454.102 346.191 l 1
 446.777 315.918 l 1
 432.129 315.918 420.41 314.941 411.133 312.988 c 0
 401.855 311.035 393.555 308.105 386.23 305.176 c 0
 380.859 302.246 372.559 297.363 360.84 290.527 c 0
 349.609 283.691 337.402 275.391 324.219 266.113 c 2
 251.953 212.891 l 1
 330.078 78.125 l 2
 338.867 62.5 349.121 50.7812 360.84 42.4805 c 0
 373.047 34.1797 387.695 29.7852 404.785 28.8086 c 1
 398.926 0 l 1
EndSplineSet
EndChar
StartChar: l
Encoding: 108 108 77
Width: 189
Flags: W
HStem: 0 16<14 174> 445 17<106 112>
DStem: 132 406 239 462 58 57 153 57
Fore
174 0 m 1
 11 0 l 1
 14 16 l 1
 37 16 54 36 58 57 c 2
 132 406 l 2
 133 410.2 133.52 414.28 133.52 418.12 c 0
 133.52 433.48 125.2 445 106 445 c 1
 109 462 l 1
 239 462 l 1
 153 57 l 2
 152.139 52.4797 151.649 48.0058 151.649 43.7677 c 0
 151.649 28.3166 158.166 16 177 16 c 1
 174 0 l 1
EndSplineSet
Back
194.824 0 m 1
 17.0898 0 l 1
 22.9492 25.8789 l 1
 42.9688 28.8086 57.1289 33.2031 65.918 39.5508 c 0
 74.707 45.8984 80.5664 56.6406 83.9844 71.7773 c 2
 158.203 419.922 l 1
 162.109 436.523 163.574 446.289 162.109 449.219 c 0
 160.645 453.613 156.25 456.055 148.926 456.055 c 2
 110.84 453.125 l 1
 117.188 481.934 l 1
 123.047 483.398 132.812 485.84 145.996 489.258 c 0
 159.18 493.164 173.34 497.07 187.5 501.465 c 0
 201.66 505.859 215.332 509.766 228.027 513.672 c 0
 240.723 517.09 249.512 519.531 254.883 520.996 c 1
 159.18 70.8008 l 1
 152.832 41.5039 166.992 26.8555 201.172 26.8555 c 1
 194.824 0 l 1
EndSplineSet
EndChar
StartChar: m
Encoding: 109 109 78
Width: 568
Flags: W
HStem: 0 21G<11 175 205 365 393 556> 277 46<259 309> 295 20G<78 208>
VStem: 477.637 95.2992<238 257>
DStem: 103 258 194 238 60 57 155 55 286 225 384 238 250 55 345 55 475 225 570 227 439 55 534 55
Fore
556 0 m 1
 393 0 l 1
 396 16 l 1
 425 17 434 31 439 55 c 2
 475 225 l 2
 476.498 232.79 477.637 240.58 477.637 247.67 c 0
 477.637 264.246 471.413 277 449 277 c 0
 435 277 387 253 384 238 c 2
 345 55 l 2
 343.79 49.6762 343.107 44.7623 343.107 40.3434 c 0
 343.107 26.5015 349.808 17.516 368 16 c 1
 365 0 l 1
 205 0 l 1
 208 16 l 1
 236 18 245 31 250 55 c 2
 286 225 l 2
 287.417 232.366 288.432 239.732 288.432 246.506 c 0
 288.432 263.645 281.934 277 259 277 c 0
 244 277 197 253 194 238 c 2
 155 55 l 2
 153.79 49.4342 153.107 44.3954 153.107 39.9262 c 0
 153.107 25.927 159.808 17.516 178 16 c 1
 175 0 l 1
 11 0 l 1
 14 16 l 1
 42 21 54 28 60 57 c 2
 103 258 l 2
 104.24 264.2 104.882 269.417 104.882 273.82 c 0
 104.882 290.722 95.4202 295.62 74 298 c 1
 78 315 l 1
 208 315 l 1
 198 266 l 1
 200 266 l 1
 227 300 268 323 309 323 c 0
 356 323 375 304 385 264 c 1
 418 297 455 323 499 323 c 0
 547.511 323 572.936 295.018 572.936 253.096 c 0
 572.936 244.896 571.963 236.162 570 227 c 2
 534 55 l 2
 532.386 48.2748 531.423 42.418 531.423 37.4295 c 0
 531.423 23.8742 538.532 16.731 559 16 c 1
 556 0 l 1
EndSplineSet
Back
601.074 0 m 1
 421.875 0 l 1
 428.223 26.8555 l 1
 459.473 26.8555 478.516 42.9688 485.84 75.1953 c 1
 517.09 222.168 l 1
 522.461 245.117 523.926 262.207 521.973 272.949 c 0
 518.066 287.109 506.836 293.945 488.77 293.945 c 0
 460.449 293.945 434.082 281.25 410.156 255.859 c 1
 372.07 75.1953 l 2
 368.652 59.5703 369.629 47.8516 375 39.5508 c 0
 380.371 31.25 393.555 26.8555 414.062 26.8555 c 1
 408.203 0 l 1
 225.098 0 l 1
 230.957 26.8555 l 1
 249.023 26.8555 262.695 31.25 271.973 39.5508 c 0
 281.25 47.8516 287.598 59.5703 291.016 75.1953 c 2
 323.242 226.074 l 1
 333.008 271.484 324.219 293.945 295.898 293.945 c 0
 275.879 293.945 256.836 287.598 237.793 274.902 c 0
 231.445 270.508 226.074 266.602 221.68 264.16 c 0
 217.285 261.23 214.844 259.277 214.844 257.812 c 1
 175.781 75.1953 l 2
 172.852 59.5703 173.828 47.8516 179.688 39.5508 c 0
 185.059 31.25 197.266 26.8555 215.82 26.8555 c 1
 209.961 0 l 1
 27.832 0 l 1
 34.1797 26.8555 l 1
 67.3828 26.8555 87.8906 42.9688 95.2148 75.1953 c 1
 134.766 263.184 l 2
 136.23 268.555 137.207 272.461 137.207 275.879 c 0
 137.207 279.785 135.742 283.691 132.812 287.109 c 0
 132.324 287.598 130.371 288.086 126.953 288.086 c 0
 123.535 288.086 118.652 287.598 112.305 287.109 c 0
 105.957 286.133 98.6328 285.156 89.8438 284.18 c 1
 97.168 312.988 l 1
 115.234 318.359 129.883 322.754 142.09 326.172 c 0
 153.809 329.102 164.551 332.52 172.852 334.961 c 0
 181.641 337.891 188.965 339.844 194.824 341.309 c 0
 201.172 343.262 207.031 345.215 212.891 347.168 c 1
 229.98 347.168 l 1
 220.215 299.805 l 1
 244.141 313.477 261.719 322.754 273.438 328.613 c 0
 285.156 333.984 292.48 337.891 295.898 338.867 c 0
 304.199 342.285 311.035 344.727 316.895 345.703 c 0
 323.242 346.68 328.613 347.168 333.984 347.168 c 0
 371.094 347.168 395.02 330.078 404.785 295.898 c 1
 446.777 330.078 488.77 347.168 529.785 347.168 c 0
 593.262 347.168 615.234 301.27 596.191 209.961 c 2
 566.895 75.1953 l 2
 563.477 59.5703 564.941 47.8516 570.801 39.5508 c 0
 577.148 31.25 588.867 26.8555 606.934 26.8555 c 1
 601.074 0 l 1
EndSplineSet
EndChar
StartChar: n
Encoding: 110 110 79
Width: 379
Flags: W
HStem: 0 21G<14 179 208 368> 277 46<261 312> 295 20G<81 212>
VStem: 290.484 95.3863<237 257>
DStem: 106 258 196 238 63 57 157 55 287 221 383 227 252 55 347 55
Fore
368 0 m 1
 208 0 l 1
 211 16 l 1
 235 18 247 33 252 55 c 2
 287 221 l 2
 288.954 229.468 290.484 238.36 290.484 246.502 c 0
 290.484 263.359 283.926 277 261 277 c 0
 247 277 199 253 196 238 c 2
 157 55 l 2
 155.936 49.8914 155.37 45.3266 155.37 41.2765 c 0
 155.37 26.2992 163.109 18.3614 182 16 c 1
 179 0 l 1
 14 0 l 1
 17 16 l 1
 47 22 57 27 63 57 c 2
 106 258 l 2
 107.24 263.993 107.882 269.047 107.882 273.328 c 0
 107.882 289.765 98.4202 294.827 77 298 c 1
 81 315 l 1
 212 315 l 1
 202 266 l 1
 203 266 l 1
 231 301 271 323 312 323 c 0
 359.865 323 385.87 294.793 385.87 252.592 c 0
 385.87 244.538 384.923 235.975 383 227 c 2
 347 55 l 2
 345.669 48.6136 344.835 42.9352 344.835 38.0215 c 0
 344.835 24.4697 351.185 16.7339 371 16 c 1
 368 0 l 1
EndSplineSet
Back
381.836 0 m 1
 216.797 0 l 1
 223.145 25.8789 l 1
 241.699 28.8086 252.93 31.7383 256.836 35.1562 c 0
 265.625 39.5508 272.461 54.1992 277.832 79.1016 c 2
 310.059 229.004 l 1
 317.871 269.043 307.129 289.062 277.832 289.062 c 0
 261.23 289.062 238.281 277.832 208.984 254.883 c 1
 166.992 57.1289 l 1
 164.551 40.5273 177.734 29.7852 207.031 25.8789 c 1
 201.172 0 l 1
 32.2266 0 l 1
 38.0859 25.8789 l 1
 42.4805 25.8789 47.3633 26.3672 52.7344 26.8555 c 0
 57.6172 27.832 62.5 28.8086 66.8945 30.7617 c 0
 78.125 35.6445 86.9141 49.8047 92.7734 73.2422 c 1
 129.883 250.977 l 1
 133.789 267.09 134.766 277.832 132.812 283.203 c 0
 132.812 284.18 131.348 285.156 128.418 285.645 c 0
 125.488 285.645 122.07 286.133 118.164 286.133 c 0
 115.234 286.133 111.328 285.156 105.469 284.18 c 0
 99.6094 282.715 94.7266 281.25 89.8438 279.785 c 1
 97.168 312.988 l 1
 104.98 314.941 114.258 317.383 125 319.824 c 0
 135.742 322.754 146.484 325.684 157.715 329.102 c 0
 168.457 332.52 178.711 335.449 187.988 338.379 c 0
 197.266 341.309 204.59 344.238 209.961 346.191 c 1
 227.051 346.191 l 1
 216.797 299.805 l 1
 225.098 307.129 232.422 313.477 238.77 317.871 c 0
 245.605 322.754 251.465 326.66 256.836 330.078 c 0
 267.578 335.938 278.32 340.332 289.062 342.285 c 0
 299.805 344.727 310.547 346.191 321.777 346.191 c 0
 382.812 346.191 404.785 307.129 389.16 229.98 c 1
 354.004 66.8945 l 1
 352.539 59.082 351.562 52.2461 351.074 46.875 c 0
 350.098 41.5039 351.074 37.5977 353.027 35.1562 c 0
 356.445 32.2266 367.676 28.8086 387.207 24.9023 c 1
 381.836 0 l 1
EndSplineSet
EndChar
StartChar: o
Encoding: 111 111 80
Width: 341
Flags: W
HStem: -10 22<167 177> 302 21<233 242>
VStem: 45.7157 90.1476<66.7057 116.325> 272.049 90.3588<196.768 247.643>
Fore
362.407 196.768 m 0
 362.407 83.8093 268.063 -10 169 -10 c 0
 90.0708 -10 45.7157 44.7423 45.7157 116.325 c 0
 45.7157 229.398 142.271 323 240 323 c 4
 319.395 323 362.407 268.068 362.407 196.768 c 0
258 156 m 0
 262.171 176.332 272.049 215.144 272.049 247.643 c 0
 272.049 277.483 263.721 302 235 302 c 0
 175 302 158 195 150 156 c 0
 145.406 135.074 135.863 97.9961 135.863 66.7057 c 0
 135.863 36.6902 144.645 12 175 12 c 0
 234 12 250 118 258 156 c 0
EndSplineSet
Back
58.1055 170.898 m 0
 53.2227 146.973 52.7344 124.512 56.1523 103.027 c 0
 59.5703 81.543 66.4062 62.9883 77.6367 46.875 c 0
 88.3789 30.7617 103.027 18.5547 121.582 8.78906 c 0
 139.648 -0.488281 161.133 -4.88281 186.035 -4.88281 c 0
 210.449 -4.88281 234.375 -0.488281 256.348 8.78906 c 0
 278.809 18.5547 298.828 30.7617 316.895 46.875 c 0
 334.961 62.9883 350.586 81.543 363.281 103.027 c 0
 376.465 124.512 385.254 146.973 390.137 170.898 c 0
 395.508 194.824 395.996 217.773 392.578 238.77 c 0
 388.672 260.254 381.348 278.809 370.117 294.922 c 0
 358.887 311.035 343.75 323.73 325.684 333.008 c 0
 307.129 342.285 285.645 347.168 261.23 347.168 c 0
 236.328 347.168 212.891 342.285 190.918 333.008 c 0
 168.945 323.73 148.926 311.035 130.859 294.922 c 0
 112.793 278.809 97.6562 260.254 84.9609 238.77 c 0
 72.2656 217.773 63.4766 194.824 58.1055 170.898 c 0
140.137 169.922 m 0
 144.043 189.453 149.414 207.52 156.738 224.121 c 0
 163.574 240.723 171.875 255.371 181.641 268.555 c 0
 191.406 281.738 202.148 291.504 213.867 298.828 c 0
 226.074 306.152 238.77 310.059 252.93 310.059 c 0
 267.578 310.059 279.297 306.152 288.086 298.828 c 0
 296.875 291.504 303.223 281.738 307.129 268.555 c 0
 311.035 255.371 312.988 240.723 312.5 224.121 c 0
 312.012 207.52 310.059 189.453 306.152 169.922 c 0
 301.758 150.879 296.875 132.324 290.039 115.723 c 0
 283.203 98.6328 275.391 83.4961 265.625 70.3125 c 0
 255.859 57.6172 245.117 47.3633 232.91 40.0391 c 0
 221.191 32.7148 207.52 28.8086 192.871 28.8086 c 0
 179.199 28.8086 167.48 32.7148 159.18 40.0391 c 0
 150.391 47.3633 144.043 57.6172 139.648 70.3125 c 0
 135.254 83.4961 133.301 98.6328 133.301 115.723 c 0
 133.789 132.324 136.23 150.879 140.137 169.922 c 0
EndSplineSet
EndChar
StartChar: p
Encoding: 112 112 81
Width: 379
Flags: W
HStem: -9 38<205 225> 284 39<263 302> 295 20G<81 212>
VStem: 300.024 97.8169<209 229>
DStem: 106 258 196 236 33 -84 161 70 106 258 153 32 33 -84 132 -64
Fore
397.841 209.711 m 0
 397.841 104.536 321.801 -9 225 -9 c 0
 189 -9 173 8 153 32 c 1
 132 -64 l 2
 129.791 -74.5553 128.546 -83.544 128.546 -91.1286 c 0
 128.546 -114.442 140.31 -124.491 172 -126 c 1
 169 -140 l 1
 -17 -140 l 1
 -13 -124 l 1
 17 -119 27 -113 33 -84 c 2
 106 258 l 2
 107.298 264.058 107.988 269.227 107.988 273.638 c 0
 107.988 289.614 98.9418 295.649 77 298 c 1
 81 315 l 1
 212 315 l 1
 202 270 l 1
 203 270 l 1
 230 306 260 323 302 323 c 0
 370.198 323 397.841 269.57 397.841 209.711 c 0
289 152 m 0
 292.872 169.908 300.024 201.404 300.024 229.139 c 0
 300.024 258.706 291.896 284 263 284 c 0
 244 284 200 256 196 236 c 2
 161 70 l 2
 160.761 68.867 160.647 67.7233 160.647 66.5743 c 0
 160.647 48.4544 189.014 29 205 29 c 0
 261 29 281 113 289 152 c 0
EndSplineSet
Back
128.906 -74.2188 m 2
 147.949 14.1602 l 1
 164.551 1.46484 184.57 -4.88281 208.008 -4.88281 c 0
 233.398 -4.88281 256.836 0.488281 278.809 11.2305 c 0
 300.781 21.4844 320.801 36.1328 337.891 54.1992 c 0
 355.469 71.7773 369.629 92.2852 381.348 115.723 c 0
 393.066 138.672 401.855 162.109 407.227 187.012 c 0
 411.133 207.031 412.598 227.051 412.109 246.582 c 0
 411.133 266.113 407.715 283.691 400.391 299.316 c 0
 393.555 314.941 382.812 327.637 369.141 337.402 c 0
 354.98 347.168 337.402 352.051 315.918 352.051 c 0
 297.363 352.051 279.297 348.633 261.719 342.285 c 0
 243.652 335.938 226.562 326.172 208.984 312.012 c 1
 210.449 319.336 211.426 326.66 212.402 333.496 c 0
 213.379 340.332 214.844 347.656 215.82 354.98 c 1
 173.34 340.332 130.371 326.172 86.9141 312.988 c 1
 81.0547 287.109 l 1
 112.793 289.062 l 2
 120.117 289.062 124.512 286.621 125 282.227 c 0
 125 276.855 123.535 267.09 121.094 253.906 c 2
 49.8047 -80.0781 l 1
 46.875 -93.2617 41.0156 -103.027 33.6914 -108.398 c 0
 25.8789 -114.258 12.207 -117.188 -6.83594 -117.188 c 1
 -13.1836 -145.996 l 1
 175.781 -145.996 l 1
 183.105 -115.234 l 1
 153.809 -115.234 136.719 -112.793 131.836 -107.91 c 0
 125.977 -103.516 125 -91.7969 128.906 -74.2188 c 2
323.242 164.062 m 0
 314.941 128.906 303.223 99.1211 287.109 76.1719 c 0
 268.555 47.8516 245.117 34.1797 216.797 34.1797 c 0
 205.566 34.1797 192.871 38.0859 179.199 45.8984 c 0
 165.039 53.2227 159.18 62.5 161.133 73.2422 c 2
 198.242 250.977 l 1
 203.125 262.207 213.379 271.973 227.539 279.297 c 0
 241.699 287.109 255.859 291.016 269.043 291.016 c 0
 283.691 291.016 295.41 287.109 304.199 279.297 c 0
 312.5 271.973 318.848 261.719 322.266 249.512 c 0
 326.172 237.305 328.125 223.145 328.125 208.008 c 0
 328.125 193.359 326.172 178.711 323.242 164.062 c 0
EndSplineSet
EndChar
StartChar: q
Encoding: 113 113 82
Width: 379
Flags: W
HStem: -10 37<150 193> 301 22<241 259> 302 20G<386 396>
VStem: 50.1746 97.8797<83 105>
DStem: 240 29 396 322 220 -66 310 -84 286 246 396 322 248 67 310 -84
Fore
50.1746 103.494 m 0
 50.1746 226.725 141.854 323 247 323 c 0
 281 323 305 306 325 284 c 1
 386 322 l 1
 396 322 l 1
 310 -84 l 2
 308.875 -89.625 308.312 -94.3711 308.312 -98.4031 c 0
 308.312 -115.875 318.875 -119.938 340 -124 c 1
 336 -140 l 1
 154 -140 l 1
 158 -123 l 1
 200 -116 211 -110 220 -66 c 2
 240 29 l 1
 214 6 181 -10 150 -10 c 0
 76.6354 -10 50.1746 41.7769 50.1746 103.494 c 0
248 67 m 2
 286 246 l 2
 287.1 251.132 287.662 256.231 287.662 261.136 c 0
 287.662 282.991 276.501 301 252 301 c 0
 191 301 167 206 158 163 c 0
 153.68 143.993 148.054 116.03 148.054 90.3941 c 0
 148.054 56.6843 157.782 27 193 27 c 0
 211 27 244 47 248 67 c 2
EndSplineSet
Back
329.102 -154.785 m 1
 334.961 -126.953 l 1
 305.176 -121.582 291.992 -110.352 295.898 -92.7734 c 1
 389.16 345.215 l 1
 382.812 353.027 l 1
 373.047 351.074 l 1
 332.031 328.125 l 1
 318.848 336.426 305.664 342.773 293.457 346.68 c 0
 281.25 350.098 268.555 352.051 255.859 352.051 c 0
 229.98 352.051 205.566 347.168 183.105 336.914 c 0
 160.156 327.148 139.648 313.477 121.582 295.898 c 0
 103.027 278.809 87.8906 258.301 75.1953 235.352 c 0
 62.5 212.402 53.2227 188.477 47.8516 163.086 c 0
 43.457 141.602 41.0156 120.605 41.0156 100.098 c 0
 41.0156 80.0781 44.4336 62.0117 51.2695 46.3867 c 0
 58.5938 30.7617 68.8477 18.5547 83.0078 8.78906 c 0
 97.168 -0.488281 115.723 -4.88281 139.16 -4.88281 c 0
 148.438 -4.88281 159.668 -3.90625 172.852 -0.976562 c 0
 186.523 1.46484 199.219 5.85938 210.938 12.207 c 0
 223.145 18.0664 234.863 24.9023 246.094 33.2031 c 1
 223.145 -77.1484 l 2
 216.309 -108.398 191.406 -124.023 147.949 -124.023 c 1
 141.113 -154.785 l 1
 329.102 -154.785 l 1
250 76.1719 m 1
 235.352 62.0117 214.355 55.1758 187.012 55.1758 c 0
 172.363 55.1758 160.645 59.082 151.367 66.8945 c 0
 142.578 75.1953 136.23 84.9609 132.324 97.6562 c 0
 128.906 109.863 126.953 123.535 127.441 139.16 c 0
 127.93 154.297 129.395 168.945 131.836 183.105 c 0
 135.254 198.242 140.137 213.867 145.996 229.492 c 0
 151.855 245.117 159.668 259.277 168.945 271.973 c 0
 178.223 284.668 189.453 294.922 202.148 303.223 c 0
 214.844 311.035 229.004 314.941 245.117 314.941 c 0
 285.645 314.941 301.758 293.945 292.969 251.953 c 1
 261.23 104.004 l 1
 250 76.1719 l 1
EndSplineSet
EndChar
StartChar: r
Encoding: 114 114 83
Width: 303
Flags: W
HStem: 0 21G<20 201> 224 99<299 311> 295 20G<87 216>
DStem: 112 258 194 199 69 57 167 70
Fore
354.398 282.337 m 0
 354.398 251.036 330.764 224 301 224 c 0
 262 224 269 264 248 264 c 0
 219 264 199 221 194 199 c 2
 167 70 l 2
 164.679 59.4269 163.356 50.8488 163.356 43.9057 c 0
 163.356 23.9251 174.315 17.4842 204 16 c 1
 201 0 l 1
 20 0 l 1
 23 16 l 1
 51 21 63 27 69 57 c 2
 112 258 l 2
 113.184 263.725 113.784 268.631 113.784 272.842 c 0
 113.784 289.964 103.868 295.592 83 298 c 1
 87 315 l 1
 216 315 l 1
 204 261 l 1
 205 261 l 1
 233 291 269 323 309 323 c 0
 335.814 323 354.398 307.288 354.398 282.337 c 0
EndSplineSet
Back
334.961 299.805 m 0
 331.543 286.621 325.684 276.855 317.383 270.02 c 0
 309.082 263.184 299.805 259.766 290.039 259.766 c 0
 277.344 259.766 267.09 264.648 259.766 273.926 c 0
 257.812 276.855 256.836 279.297 255.859 282.227 c 0
 255.371 284.668 252.93 286.133 249.023 286.133 c 0
 241.211 286.133 230.957 279.785 219.238 268.066 c 0
 207.031 255.859 200.195 245.117 198.242 234.863 c 2
 164.062 74.2188 l 1
 156.738 42.4805 172.852 26.8555 212.891 26.8555 c 1
 207.031 0 l 1
 20.9961 0 l 1
 25.8789 24.9023 l 1
 38.5742 27.832 48.8281 29.7852 57.1289 32.2266 c 0
 64.9414 34.1797 70.3125 35.6445 73.2422 37.1094 c 0
 74.2188 38.5742 76.1719 41.9922 78.6133 47.8516 c 0
 81.0547 54.1992 83.0078 61.0352 84.9609 68.8477 c 1
 123.047 249.023 l 1
 126.953 271.484 125.488 283.203 118.164 283.203 c 2
 83.0078 279.785 l 1
 87.8906 306.152 l 1
 111.328 313.965 133.789 321.289 155.762 328.613 c 0
 178.223 335.449 195.801 341.797 208.984 347.168 c 1
 222.168 347.168 l 1
 211.914 300.781 l 1
 242.676 331.543 271.484 347.168 297.852 347.168 c 0
 328.613 347.168 340.82 331.543 334.961 299.805 c 0
EndSplineSet
EndChar
StartChar: s
Encoding: 115 115 84
Width: 265
Flags: W
HStem: -10 114<39 137> -9 21G<15 32> 10 4<55 135> 10 94<39 55> 223 100<196 279> 300 23<190 198> 322 21G<285 300>
VStem: 62.9659 79.0511<204.239 253.161> 194.735 73.6954<65.9358 117.3>
Fore
194 300 m 0
 171.065 300 142.017 281.606 142.017 253.161 c 0
 142.017 197.433 268.431 201.133 268.431 117.3 c 0
 268.431 110.756 267.66 103.68 266 96 c 0
 253 31 201 -10 137 -10 c 0
 107 -10 75 10 55 10 c 0
 45 10 38 -2 32 -9 c 1
 15 -9 l 1
 39 104 l 1
 58 104 l 1
 58 53 79 14 135 14 c 0
 162.99 14 194.735 36.3755 194.735 65.9358 c 0
 194.735 118.121 62.9659 120.904 62.9659 204.239 c 0
 62.9659 210.082 63.6137 216.32 65 223 c 0
 79 285 136 323 196 323 c 0
 226.979 323 274.392 290.175 285 322 c 1
 300 322 l 1
 279 223 l 1
 262 223 l 1
 259 262 239 300 194 300 c 0
EndSplineSet
Back
272.949 94.2383 m 0
 266.113 62.0117 250.488 37.5977 225.586 20.5078 c 0
 200.684 3.41797 172.852 -4.88281 142.09 -4.88281 c 0
 131.348 -4.88281 116.211 -2.92969 97.168 0.976562 c 2
 62.9883 7.8125 l 2
 60.5469 7.8125 56.1523 5.37109 50.7812 0 c 1
 28.8086 0 l 1
 56.1523 126.953 l 1
 85.9375 126.953 l 1
 85.4492 110.352 85.4492 97.6562 86.4258 89.3555 c 0
 87.4023 81.0547 89.3555 70.3125 91.7969 57.1289 c 0
 94.7266 45.8984 101.074 37.5977 110.352 33.2031 c 0
 120.117 28.3203 131.348 25.8789 144.043 25.8789 c 0
 175.781 25.8789 194.824 40.5273 201.172 68.8477 c 0
 204.102 87.8906 196.777 103.027 179.199 115.234 c 0
 163.086 126.953 150.391 136.719 140.625 144.043 c 0
 130.859 151.367 123.047 157.715 117.188 162.598 c 0
 110.84 167.48 106.445 171.387 103.516 174.316 c 0
 100.586 177.734 98.1445 180.176 96.1914 183.105 c 0
 89.8438 192.383 85.4492 202.148 82.0312 212.891 c 0
 78.6133 223.633 78.6133 236.328 82.0312 250.977 c 0
 85.4492 265.625 91.3086 278.809 99.6094 290.527 c 0
 107.91 302.246 117.676 312.012 129.395 320.312 c 0
 141.113 328.613 153.809 335.449 167.969 339.844 c 0
 182.129 344.727 195.801 347.168 209.961 347.168 c 0
 222.168 347.168 230.957 346.191 237.305 345.215 c 0
 243.652 343.75 247.559 342.285 249.023 340.82 c 2
 270.996 332.031 l 2
 271.484 332.52 272.461 333.496 272.949 334.961 c 0
 273.438 336.426 275.391 338.867 277.832 341.797 c 1
 300.781 341.797 l 1
 279.785 226.074 l 1
 250.977 226.074 l 1
 250.977 284.668 234.375 313.965 201.172 313.965 c 0
 188.477 313.965 177.246 311.035 167.48 304.688 c 0
 157.715 298.34 151.367 288.086 147.949 273.926 c 0
 145.996 263.184 146.484 254.883 148.926 249.023 c 0
 151.855 243.164 156.738 237.305 164.062 231.934 c 2
 230.957 186.035 l 2
 240.234 179.199 248.047 173.34 253.418 167.48 c 0
 259.277 161.621 263.672 156.25 267.09 150.879 c 0
 272.461 143.066 275.391 134.277 275.879 125.488 c 0
 276.855 116.699 275.879 105.957 272.949 94.2383 c 0
EndSplineSet
EndChar
StartChar: t
Encoding: 116 116 85
Width: 227
Flags: W
HStem: -8 48<124 180> 285 30<211 269>
DStem: 110 285 205 285 63 64 161 79
Fore
241 68 m 1
 211 25 177 -8 124 -8 c 0
 85.0888 -8 60.4884 9.17295 60.4884 43.5188 c 0
 60.4884 49.7759 61.3049 56.603 63 64 c 2
 110 285 l 1
 75 285 l 1
 78 303 l 1
 130 341 175 383 218 430 c 1
 235 430 l 1
 211 315 l 1
 275 315 l 1
 269 285 l 1
 205 285 l 1
 161 79 l 2
 159.755 73.3964 158.8 67.502 158.8 62.041 c 0
 158.8 49.9601 163.471 40 180 40 c 0
 200 40 215 61 226 76 c 1
 241 68 l 1
EndSplineSet
Back
227.051 59.082 m 1
 214.844 41.0156 198.73 25.8789 178.711 13.6719 c 0
 158.203 0.976562 139.16 -4.88281 122.07 -4.88281 c 0
 75.1953 -4.88281 59.082 27.832 73.2422 94.2383 c 2
 117.188 303.223 l 1
 82.0312 303.223 l 1
 79.1016 318.848 l 1
 86.4258 324.219 93.2617 329.59 100.586 334.961 c 0
 107.422 340.332 114.746 346.191 122.07 352.051 c 0
 136.23 363.77 149.902 377.441 164.062 393.066 c 0
 178.223 408.203 193.848 426.758 211.914 449.219 c 1
 215.82 417.969 l 1
 200.195 344.238 l 1
 270.02 344.238 l 1
 261.23 303.223 l 1
 190.918 303.223 l 1
 148.926 104.98 l 2
 141.113 66.8945 145.508 47.8516 163.086 47.8516 c 0
 174.316 47.8516 190.43 58.1055 211.914 78.125 c 1
 227.051 59.082 l 1
EndSplineSet
EndChar
StartChar: u
Encoding: 117 117 86
Width: 379
Flags: W
HStem: -10 45<135 185> 295 20G<78 206 258 395>
VStem: 59.0725 95.0819<52 71>
DStem: 99 258 206 315 62 86 157 83 289 258 395 315 248 65 343 69
Fore
370 14 m 1
 324 9 279 5 232 -9 c 1
 242 36 l 1
 208 11 175 -10 135 -10 c 0
 84.7728 -10 59.0725 15.9285 59.0725 58.9862 c 0
 59.0725 67.3639 60.0454 76.3901 62 86 c 2
 99 258 l 2
 100.472 264.625 101.282 270.166 101.282 274.815 c 0
 101.282 289.116 93.6206 294.981 74 298 c 1
 78 315 l 1
 206 315 l 1
 157 83 l 2
 155.294 75.3247 154.154 68.1343 154.154 61.7733 c 0
 154.154 45.7577 161.381 35 185 35 c 0
 208 35 228 49 248 65 c 1
 289 258 l 2
 290.296 264.294 290.941 269.56 290.941 273.975 c 0
 290.941 293.412 278.447 296.37 254 298 c 1
 258 315 l 1
 395 315 l 1
 343 69 l 2
 341.711 62.9856 341.022 57.7556 341.022 53.2406 c 0
 341.022 36.7358 350.229 29.7852 373 29 c 1
 370 14 l 1
EndSplineSet
Back
379.883 26.8555 m 1
 373.535 25.8789 365.234 23.9258 355.957 22.4609 c 0
 346.68 20.9961 337.402 18.5547 328.125 15.1367 c 2
 255.859 -7.8125 l 1
 264.16 41.9922 l 1
 246.094 26.8555 l 2
 231.934 16.1133 217.773 8.30078 204.102 2.92969 c 0
 189.941 -2.44141 174.805 -4.88281 159.18 -4.88281 c 0
 147.461 -4.88281 136.719 -3.41797 126.465 -0.488281 c 0
 116.211 2.44141 107.422 6.83594 100.098 13.1836 c 0
 88.8672 20.9961 82.5195 32.2266 81.0547 46.875 c 0
 79.5898 61.5234 80.5664 77.6367 83.9844 95.2148 c 1
 123.047 275.879 l 1
 125.488 290.527 124.512 300.781 119.141 306.152 c 0
 116.211 308.594 112.793 310.547 107.91 312.012 c 0
 103.516 313.477 96.1914 313.965 86.9141 313.965 c 1
 91.7969 339.844 l 1
 213.867 339.844 l 1
 163.086 99.1211 l 1
 161.621 90.8203 161.621 83.0078 163.574 74.707 c 0
 165.039 66.4062 169.434 60.5469 175.781 57.1289 c 0
 179.199 55.6641 183.105 54.6875 187.5 54.1992 c 0
 191.895 53.2227 195.801 53.2227 200.195 53.2227 c 0
 209.961 53.2227 220.215 55.1758 230.469 59.5703 c 0
 240.723 63.9648 251.465 69.8242 262.207 77.1484 c 0
 266.602 80.5664 270.508 89.8438 272.949 104.98 c 1
 309.082 274.902 l 2
 312.5 290.527 310.547 300.293 304.199 304.688 c 0
 297.363 308.594 284.18 311.035 264.16 311.035 c 1
 270.02 339.844 l 1
 402.832 339.844 l 1
 349.121 85.9375 l 2
 346.191 72.7539 347.168 63.9648 351.562 60.0586 c 0
 355.957 56.1523 367.188 54.1992 384.766 54.1992 c 1
 379.883 26.8555 l 1
EndSplineSet
EndChar
StartChar: v
Encoding: 118 118 87
Width: 341
Flags: W
HStem: -10 21G<163 180> 298 17<295 309.031>
Fore
394 298 m 1
 369 296 360 283 347 261 c 2
 180 -10 l 1
 163 -10 l 1
 124 193 l 2
 118 222 112 252 103 280 c 0
 98 296 94 296 77 298 c 1
 81 315 l 1
 252 315 l 1
 248 298 l 1
 234.522 296.963 208.759 297.606 208.759 277.041 c 0
 208.759 254.299 232.163 138.021 235 121 c 1
 251 147 318 244 325 276 c 0
 325.324 277.781 325.477 279.418 325.477 280.922 c 0
 325.477 298 305.705 298 291 298 c 1
 295 315 l 1
 398 315 l 1
 394 298 l 1
EndSplineSet
Back
419.922 312.012 m 1
 413.574 312.012 406.738 311.035 399.902 308.594 c 0
 393.555 306.152 388.184 302.246 384.766 296.875 c 2
 194.824 -13.1836 l 1
 170.898 3.90625 l 1
 111.816 290.039 l 1
 110.84 291.992 109.375 294.434 108.398 297.363 c 0
 107.422 300.293 105.957 302.734 104.004 304.199 c 0
 100.586 307.129 97.168 309.57 92.7734 310.547 c 0
 88.8672 311.523 83.0078 312.012 75.1953 312.012 c 1
 81.0547 339.844 l 1
 238.77 339.844 l 1
 233.887 312.988 l 1
 226.562 312.5 220.703 311.523 215.332 311.035 c 0
 210.449 310.547 206.055 308.105 202.148 305.176 c 0
 200.195 303.711 198.242 300.781 196.777 295.898 c 0
 196.289 292.48 196.777 287.598 198.242 280.762 c 2
 229.004 116.211 l 1
 331.055 284.18 l 2
 333.496 288.086 334.961 291.016 334.961 292.969 c 0
 336.426 298.34 335.449 302.734 333.008 306.152 c 0
 331.055 309.57 327.637 311.035 323.73 311.523 c 0
 319.336 312.012 312.012 312.012 301.758 312.012 c 1
 308.105 339.844 l 1
 425.781 339.844 l 1
 419.922 312.012 l 1
EndSplineSet
EndChar
StartChar: w
Encoding: 119 119 88
Width: 492
Flags: W
HStem: -10 21G<154 170 325 341> 298 17<268 424>
DStem: 295 237 297 197 225 120 170 -10
Fore
546 298 m 1
 524 294 516 284 505 264 c 2
 341 -10 l 1
 325 -10 l 1
 301 197 l 1
 297 197 l 1
 170 -10 l 1
 154 -10 l 1
 107 246 l 2
 103 266 102 294 79 298 c 1
 83 315 l 1
 234 315 l 1
 230 298 l 1
 216.23 296.941 199.741 293.246 199.741 274.152 c 0
 199.741 248.176 221.234 139.771 225 120 c 1
 295 237 l 1
 293 268 299 294 264 298 c 1
 268 315 l 1
 428 315 l 1
 424 298 l 1
 412 298 391 298 388 281 c 0
 387.389 278.403 387.128 273.611 387.128 267.256 c 0
 387.128 233.855 396.293 144.784 397 125 c 1
 409 148 478 257 481 273 c 0
 481.665 275.925 481.976 278.479 481.976 280.713 c 0
 481.976 295.284 468.74 296.266 454 298 c 1
 458 315 l 1
 550 315 l 1
 546 298 l 1
EndSplineSet
Back
589.844 313.965 m 1
 576.66 310.547 563.965 299.316 551.758 279.785 c 2
 373.047 -11.2305 l 1
 351.074 9.76562 l 1
 317.871 182.129 l 1
 187.988 -11.2305 l 1
 162.109 9.76562 l 1
 106.934 293.945 l 2
 104.98 304.688 97.168 311.035 83.9844 312.988 c 1
 88.8672 339.844 l 1
 237.793 339.844 l 1
 232.91 312.988 l 1
 209.473 311.035 196.777 305.664 194.824 296.875 c 0
 194.336 293.457 194.336 288.086 194.824 280.273 c 0
 195.801 272.949 196.777 262.207 199.219 249.023 c 1
 223.145 112.793 l 1
 305.176 232.91 l 1
 294.922 293.945 l 1
 294.434 299.805 290.039 304.688 282.715 308.105 c 0
 274.902 311.523 266.113 312.988 256.836 312.988 c 1
 262.207 339.844 l 1
 429.199 339.844 l 1
 423.828 313.965 l 1
 384.766 305.176 l 1
 381.836 302.246 378.906 298.828 376.953 293.945 c 0
 376.953 291.504 378.906 276.367 382.812 249.023 c 2
 402.832 112.793 l 1
 486.816 249.023 l 2
 490.234 254.395 493.652 260.742 496.582 268.066 c 0
 499.512 275.391 501.465 281.738 502.93 287.109 c 0
 506.836 304.199 500.488 312.988 482.91 312.988 c 1
 487.793 339.844 l 1
 595.215 339.844 l 1
 589.844 313.965 l 1
EndSplineSet
EndChar
StartChar: x
Encoding: 120 120 89
Width: 341
Flags: W
HStem: 0 21G<10 125 166 330> 298 17<75 242 278 283>
Fore
330 0 m 1
 166 0 l 1
 169 16 l 1
 179.281 17.0281 204.204 18.5099 204.204 33.194 c 0
 204.204 50.1496 175.724 102.689 170 117 c 1
 157 103 101 48 98 34 c 0
 97.8115 32.9317 97.7217 31.9305 97.7217 30.9919 c 0
 97.7217 16.996 117.691 16.9372 128 16 c 1
 125 0 l 1
 10 0 l 1
 13 16 l 1
 62 22 127 103 160 137 c 1
 102 272 l 2
 94 287 90 296 71 298 c 1
 75 315 l 5
 246 315 l 1
 242 298 l 1
 232.369 298 207.776 297.808 207.776 282.731 c 0
 207.776 266.744 233.303 218.393 239 207 c 1
 250 218 303 266 306 281 c 0
 306.313 282.487 306.461 283.846 306.461 285.087 c 0
 306.461 296.942 292.981 298.06 281.495 298.06 c 0
 278.824 298.06 276.261 298 274 298 c 1
 278 315 l 1
 393 315 l 1
 389 298 l 1
 370 296 351 287 336 272 c 2
 249 186 l 1
 316 30 l 2
 320 22 326 19 333 16 c 1
 330 0 l 1
EndSplineSet
Back
375 0 m 1
 211.914 0 l 1
 216.797 24.9023 l 1
 241.211 28.8086 l 2
 244.141 30.2734 246.094 33.2031 247.07 38.0859 c 0
 248.535 40.5273 247.07 46.875 243.164 56.1523 c 2
 208.984 132.812 l 1
 144.043 57.1289 l 2
 139.16 51.7578 135.742 46.875 132.324 42.4805 c 0
 129.395 38.0859 127.441 34.1797 125.977 30.7617 c 0
 124.512 28.8086 126.465 27.3438 131.348 26.3672 c 0
 136.719 25.3906 143.555 24.9023 152.832 24.9023 c 1
 147.949 0 l 1
 25.8789 0 l 1
 30.7617 24.9023 l 1
 39.5508 26.3672 46.3867 27.832 50.7812 28.8086 c 0
 55.6641 30.2734 59.082 31.7383 61.0352 33.2031 c 0
 70.8008 38.5742 81.543 47.8516 92.7734 61.0352 c 2
 194.824 174.805 l 1
 152.832 272.949 l 2
 149.902 280.273 146.484 287.598 143.066 294.922 c 0
 139.648 302.246 134.766 306.641 127.93 308.105 c 2
 97.168 312.012 l 1
 103.027 339.844 l 1
 270.02 339.844 l 1
 264.16 312.012 l 1
 243.164 312.012 232.91 309.57 231.934 304.199 c 0
 229.98 297.852 236.816 277.344 251.953 242.188 c 1
 267.09 259.277 279.297 272.949 288.086 283.691 c 0
 296.875 293.945 301.758 300.781 303.223 304.199 c 0
 303.711 309.57 294.434 312.012 275.879 312.012 c 1
 282.227 339.844 l 1
 413.086 339.844 l 1
 407.227 312.012 l 1
 379.883 312.012 358.398 303.223 342.773 285.156 c 1
 268.066 203.125 l 1
 329.102 65.918 l 2
 339.844 41.5039 356.445 27.832 379.883 24.9023 c 1
 375 0 l 1
EndSplineSet
EndChar
StartChar: y
Encoding: 121 121 90
Width: 341
Flags: W
HStem: -140 39<44 83> -140 98<38 56> 298 17<78 245 292 305.737>
VStem: -8.38246 85.3184<-98 -64>
Fore
76.9359 -64.3346 m 0
 76.9359 -75.0388 65.103 -101 83 -101 c 0
 114 -101 148 -30 159 -9 c 1
 120 193 l 1
 115 222 109 252 100 280 c 0
 94 296 91 296 74 298 c 1
 78 315 l 1
 249 315 l 1
 245 298 l 1
 231.749 298 204.789 297.435 204.789 277.371 c 0
 204.789 253.955 232 116.857 232 114 c 1
 248 142 314 246 321 276 c 0
 321.337 277.854 321.497 279.551 321.497 281.106 c 0
 321.497 298 302.652 298 288 298 c 1
 292 315 l 1
 395 315 l 1
 391 298 l 1
 366 295 356 283 343 261 c 2
 184 -10 l 2
 150 -69 119 -140 44 -140 c 0
 16.6404 -140 -8.38246 -125.2 -8.38246 -98.351 c 0
 -8.38246 -67.3567 17.0495 -42 47 -42 c 0
 70.4649 -42 76.9359 -50.9217 76.9359 -64.3346 c 0
EndSplineSet
Back
228.027 -6.83594 m 1
 401.855 291.016 l 2
 406.738 299.805 412.598 306.152 419.922 311.035 c 0
 427.246 315.43 435.059 317.871 442.871 317.871 c 1
 449.219 346.191 l 1
 333.008 346.191 l 1
 327.148 317.871 l 1
 339.844 317.871 348.633 316.406 354.004 312.988 c 0
 355.469 311.523 356.445 310.059 356.934 307.617 c 0
 357.91 305.176 357.91 303.223 356.934 301.758 c 2
 255.859 119.141 l 1
 216.797 287.109 l 1
 214.844 292.969 214.844 298.828 215.82 305.176 c 0
 217.773 313.477 232.91 317.871 261.23 317.871 c 1
 267.09 346.191 l 1
 101.074 346.191 l 1
 95.2148 317.871 l 1
 113.77 313.965 124.512 308.105 127.93 299.805 c 1
 193.848 19.043 l 1
 162.109 -35.1562 l 2
 152.832 -50.7812 143.555 -62.9883 134.277 -70.8008 c 0
 125.488 -79.1016 117.676 -83.0078 110.84 -83.0078 c 0
 108.398 -83.0078 105.469 -82.5195 102.539 -81.0547 c 0
 99.6094 -79.5898 96.6797 -78.125 94.2383 -77.1484 c 0
 88.8672 -74.2188 83.4961 -72.2656 79.1016 -70.8008 c 0
 74.2188 -69.8242 68.8477 -68.8477 62.0117 -68.8477 c 0
 46.875 -68.8477 34.1797 -73.7305 24.9023 -83.4961 c 0
 15.625 -93.2617 9.76562 -103.516 7.8125 -115.234 c 0
 4.88281 -128.906 7.32422 -140.625 15.625 -149.414 c 0
 23.9258 -158.691 38.5742 -163.086 60.0586 -163.086 c 0
 109.375 -163.086 165.527 -110.84 228.027 -6.83594 c 1
EndSplineSet
EndChar
StartChar: z
Encoding: 122 122 91
Width: 303
Flags: W
HStem: 0 20.9701<131 276> 293 22<98 236>
DStem: 236 293 347 297 18 17 131 22
Fore
310 109 m 1
 276 0 l 1
 14 0 l 1
 18 17 l 1
 236 293 l 1
 166 292 126 297 90 218 c 1
 72 218 l 1
 98 315 l 1
 351 315 l 1
 347 297 l 1
 131 22 l 1
 139.965 21.6102 148.586 20.9701 157.792 20.9701 c 0
 219.743 20.9701 262.576 45.2918 291 109 c 1
 310 109 l 1
EndSplineSet
Back
345.215 109.863 m 1
 312.012 0 l 1
 26.8555 0 l 1
 30.7617 20.0195 l 1
 272.949 299.805 l 1
 189.941 299.805 l 2
 170.898 299.805 156.738 293.945 147.461 282.227 c 0
 138.672 270.02 131.348 254.883 125.977 236.816 c 1
 91.7969 236.816 l 1
 118.164 339.844 l 1
 383.789 339.844 l 1
 379.883 317.871 l 1
 136.23 39.0625 l 1
 216.797 39.0625 l 2
 244.141 39.0625 265.137 44.4336 278.809 56.1523 c 0
 292.969 67.3828 305.664 88.3789 316.895 119.141 c 1
 345.215 109.863 l 1
EndSplineSet
EndChar
StartChar: braceleft
Encoding: 123 123 92
Width: 269
Flags: W
VStem: 79.4111 71.2598<-57 -50> 112.419 70.4492<118 127>
DStem: 109 99 179 89 83 -23 154 -27 169 380 242 384 143 257 217 267
Fore
83 -23 m 2
 109 99 l 2
 111.189 108.849 112.419 117.548 112.419 125.265 c 0
 112.419 152.809 96.7436 167.845 53 178 c 1
 115 191 133 212 143 257 c 2
 169 380 l 2
 186 463 242 477 333 477 c 1
 331 468 l 1
 274 458 252 432 242 384 c 2
 217 267 l 2
 206 218 189 191 120 179 c 1
 120 178 l 1
 167.931 168.11 182.868 150.116 182.868 120.495 c 0
 182.868 111.182 181.392 100.721 179 89 c 2
 154 -27 l 2
 151.85 -37.1043 150.671 -46.3305 150.671 -54.6785 c 0
 150.671 -85.161 166.394 -103.935 208 -111 c 1
 207 -119 l 1
 128.214 -119 79.4111 -109.256 79.4111 -52.7756 c 0
 79.4111 -44.0196 80.584 -34.1403 83 -23 c 2
EndSplineSet
Back
174.805 -121.094 m 1
 153.809 -121.094 135.742 -119.629 121.582 -117.188 c 0
 106.934 -114.258 96.1914 -109.375 88.8672 -102.051 c 0
 71.7773 -85.9375 66.8945 -57.6172 75.1953 -17.0898 c 1
 100.098 101.074 l 2
 104.492 122.559 103.027 138.184 94.7266 148.926 c 0
 85.9375 159.668 68.3594 169.434 41.0156 179.199 c 1
 70.8008 187.012 92.7734 196.777 106.445 208.008 c 0
 120.117 219.238 128.906 234.863 132.812 254.883 c 1
 159.18 376.953 l 1
 163.574 396.973 169.922 414.062 177.734 427.734 c 0
 185.059 441.406 195.801 452.148 208.984 459.961 c 0
 228.516 473.145 259.766 479.98 303.223 479.98 c 1
 297.852 456.055 l 1
 274.902 450.684 257.812 442.383 247.559 431.152 c 0
 237.305 419.434 229.492 402.832 225.098 379.883 c 2
 201.172 266.113 l 1
 194.824 239.258 186.523 218.262 175.781 203.125 c 1
 166.016 191.895 154.297 183.594 141.113 179.199 c 1
 155.762 170.41 164.551 159.668 166.992 147.461 c 0
 169.434 135.254 168.457 116.211 163.086 90.8203 c 2
 140.137 -20.9961 l 1
 134.766 -43.457 134.766 -60.5469 141.113 -71.2891 c 0
 146.973 -82.5195 160.156 -91.3086 180.176 -98.1445 c 1
 174.805 -121.094 l 1
EndSplineSet
EndChar
StartChar: bar
Encoding: 124 124 93
Width: 150
Flags: W
HStem: 452 20G<145 205>
DStem: 145 472 205 472 17 -130 77 -130
Fore
17 -130 m 1
 145 472 l 1
 205 472 l 1
 77 -130 l 1
 17 -130 l 1
EndSplineSet
Back
21.9727 -117.188 m 1
 -13.1836 -117.188 l 1
 112.793 477.051 l 1
 147.949 477.051 l 1
 21.9727 -117.188 l 1
EndSplineSet
EndChar
StartChar: braceright
Encoding: 125 125 94
Width: 269
Flags: W
VStem: 162.132 70.4492<229 238> 194.319 70.971<407 413>
DStem: 128 90 202 100 103 -27 176 -23 191 384 262 380 166 268 236 258
Fore
12 -119 m 1
 13 -111 l 1
 71 -101 93 -74 103 -27 c 2
 128 90 l 2
 139 139 156 166 225 178 c 1
 225 180 l 1
 177.069 189.13 162.132 206.942 162.132 236.519 c 0
 162.132 245.818 163.608 256.279 166 268 c 2
 191 384 l 2
 193.141 394.276 194.319 403.59 194.319 411.97 c 0
 194.319 442.736 178.439 460.927 136 468 c 1
 138 477 l 1
 217.156 477 265.29 466.407 265.29 409.023 c 0
 265.29 400.436 264.213 390.803 262 380 c 2
 236 258 l 2
 233.811 248.151 232.581 239.452 232.581 231.735 c 0
 232.581 204.191 248.256 189.155 292 179 c 1
 230 166 212 145 202 100 c 2
 176 -23 l 2
 158 -106 103 -119 12 -119 c 1
EndSplineSet
Back
215.82 169.922 m 1
 196.777 164.551 182.617 157.227 173.34 146.973 c 0
 164.551 137.207 157.715 121.582 152.832 101.074 c 1
 127.93 -17.0898 l 1
 120.117 -56.1523 104.004 -84.4727 80.0781 -102.051 c 0
 70.8008 -108.887 58.1055 -113.281 41.9922 -116.699 c 0
 25.8789 -119.629 6.83594 -121.094 -15.1367 -121.094 c 1
 -9.76562 -98.1445 l 1
 31.25 -87.4023 56.1523 -61.5234 64.9414 -20.9961 c 1
 87.8906 90.8203 l 1
 94.2383 118.164 102.051 138.672 111.816 151.855 c 2
 110.84 150.879 l 2
 119.141 162.109 130.859 171.387 145.996 178.223 c 1
 131.836 186.035 124.023 196.289 121.582 209.473 c 0
 119.141 222.656 120.605 241.211 125.977 266.113 c 2
 149.902 379.883 l 2
 154.785 401.855 153.809 418.945 147.949 430.664 c 0
 142.09 442.383 128.906 450.684 107.91 456.055 c 1
 112.793 479.98 l 1
 158.203 479.98 187.5 473.145 201.172 459.961 c 0
 216.797 444.824 220.703 416.504 211.914 375.977 c 2
 186.035 254.883 l 2
 178.711 219.727 189.941 196.777 220.215 187.012 c 1
 215.82 169.922 l 1
EndSplineSet
EndChar
StartChar: asciitilde
Encoding: 126 126 95
Width: 355
Flags: W
Fore
359 227 m 1
 373 180 l 1
 347 151 318 121 276 121 c 0
 251 121 231 131 210 143 c 0
 191 156 168 167 137 167 c 0
 107 167 85 142 69 118 c 1
 55 166 l 1
 76 195 107 225 153 225 c 0
 176 225 200 214 224 203 c 0
 247 192 270 178 289 178 c 0
 316 178 338 203 359 227 c 1
EndSplineSet
Back
382.812 168.945 m 1
 354.98 143.066 l 1
 336.914 128.906 l 2
 320.312 117.188 300.781 110.84 277.832 110.84 c 0
 270.02 110.84 260.254 112.305 248.535 115.723 c 0
 236.816 118.652 223.145 123.535 208.008 130.859 c 0
 182.129 143.555 160.156 149.902 143.066 149.902 c 0
 126.465 149.902 104.492 133.789 78.125 101.074 c 1
 51.7578 145.02 l 1
 83.4961 184.57 118.164 204.102 157.227 204.102 c 0
 174.316 204.102 198.242 196.777 228.027 183.105 c 0
 241.211 176.758 253.418 172.363 264.16 169.434 c 0
 274.902 166.504 283.203 164.551 290.039 164.062 c 0
 305.176 164.062 327.637 180.176 356.934 212.891 c 1
 382.812 168.945 l 1
EndSplineSet
EndChar
StartChar: uni0E10.descless
Encoding: 128 63232 96
Width: 366
Flags: W
HStem: 0 21G<184 258> 103 31<127 136> 201 31<148 165> 308 46<298 320> 333 60<202 217> 368 20G<359 398>
Fore
301 201 m 1
 258 0 l 1
 184 0 l 1
 199 72 200 122 189 155 c 1
 180 127 154 103 127 103 c 0
 98 103 84 138 91 166 c 0
 99 204 124 232 165 232 c 0
 193 232 213 222 227 201 c 1
 231 231 217 251 187 261 c 0
 163 269 127 273 79 273 c 1
 103 338 158 393 217 393 c 0
 237 393 254 392 272 381 c 2
 286 373 l 2
 298 365 312 354 320 354 c 0
 335 354 346 369 359 388 c 1
 398 388 l 1
 373 335 339 308 298 308 c 0
 285 308 257 316 236 323 c 0
 220 328 207 333 202 333 c 0
 177 333 157 326 144 310 c 1
 166 310 l 2
 206 310 238 304 262 288 c 0
 294 268 309 238 301 201 c 1
116 167 m 0
 112 148 118 134 134 134 c 0
 166 134 182 201 148 201 c 0
 133 201 120 187 116 167 c 0
EndSplineSet
Back
294.922 196.777 m 2
 298.828 214.844 297.363 230.957 290.527 245.605 c 0
 283.691 259.766 272.461 271.973 256.836 282.227 c 0
 245.117 290.039 230.957 295.898 215.332 298.828 c 0
 199.707 302.246 182.129 304.199 163.086 304.199 c 2
 141.113 304.199 l 1
 154.297 318.848 173.34 326.172 198.242 326.172 c 0
 200.684 326.172 204.59 325.195 210.449 323.242 c 0
 216.309 320.801 223.145 318.848 230.957 315.918 c 0
 241.699 312.5 252.93 309.57 264.648 306.641 c 0
 276.367 303.711 285.156 301.758 291.992 301.758 c 0
 332.031 301.758 364.746 328.125 390.137 379.883 c 1
 352.051 379.883 l 1
 345.215 370.605 338.867 362.793 333.008 356.445 c 0
 327.148 350.098 320.312 347.168 312.988 347.168 c 0
 309.57 347.168 304.688 349.121 298.34 353.027 c 0
 291.992 356.934 286.133 360.84 279.785 365.234 c 2
 266.113 373.047 l 2
 257.324 378.418 248.535 381.836 240.234 382.812 c 0
 231.445 384.277 222.168 384.766 212.891 384.766 c 0
 199.219 384.766 185.059 381.836 170.898 375.488 c 0
 157.227 369.141 144.043 360.84 131.836 350.098 c 0
 120.117 339.355 109.375 326.66 100.098 312.5 c 0
 90.8203 298.34 83.0078 283.203 77.1484 267.09 c 1
 124.512 267.09 159.668 263.184 183.105 255.859 c 0
 212.891 246.094 226.074 226.562 222.168 196.777 c 1
 209.473 216.797 189.453 227.051 162.109 227.051 c 0
 141.113 227.051 125 221.191 112.793 208.984 c 0
 101.074 196.777 92.7734 181.641 88.8672 163.086 c 0
 85.4492 148.926 87.4023 135.254 93.2617 121.582 c 0
 99.6094 107.91 109.863 101.074 124.023 101.074 c 0
 137.207 101.074 149.902 105.957 161.133 116.211 c 0
 172.363 125.977 180.176 138.184 185.059 151.855 c 1
 190.43 135.254 192.871 114.746 191.895 89.8438 c 0
 191.406 65.4297 187.5 35.1562 180.176 0 c 1
 252.93 0 l 1
 294.922 196.777 l 2
113.77 164.062 m 0
 116.211 173.34 119.629 181.152 125.488 187.5 c 0
 131.348 193.848 137.695 196.777 145.02 196.777 c 0
 152.344 196.777 157.715 193.848 161.133 187.5 c 0
 164.551 181.152 165.039 173.34 163.086 164.062 c 0
 161.133 154.785 157.227 146.973 150.879 140.625 c 0
 145.02 134.277 138.184 130.859 130.859 130.859 c 0
 123.535 130.859 118.652 134.277 115.723 140.625 c 0
 112.305 146.973 111.816 154.785 113.77 164.062 c 0
EndSplineSet
KernsSLIF: 212 20 0 0 215 20 0 0 214 20 0 0 213 20 0 0
EndChar
StartChar: uni0E34.left
Encoding: 129 63233 97
Width: 0
Flags: W
HStem: 454 40<-225 -191> 520 49<-193 -172>
Fore
-143 487 m 0
 -124 482 -110 477 -95 470 c 1
 -110 494 -142 520 -180 520 c 0
 -199 520 -228 517 -232 500 c 0
 -233 493 -217 494 -205 494 c 0
 -178 494 -163 491 -143 487 c 0
-66 409 m 1
 -86 425 -113 436 -145 444 c 0
 -164 449 -187 454 -210 454 c 2
 -229 454 l 2
 -236 454 -242 454 -247 453 c 0
 -272 453 -285 455 -294 465 c 1
 -301 470 -307 482 -304 491 c 0
 -299 515 -268 541 -247 552 c 0
 -226 564 -201 569 -174 569 c 0
 -105 569 -30 502 -49 416 c 1
 -66 409 l 1
EndSplineSet
Back
-140.137 477.051 m 0
 -130.859 474.121 -122.559 471.68 -115.234 469.238 c 0
 -107.91 466.309 -100.098 463.379 -92.7734 459.961 c 1
 -100.098 472.168 -111.328 483.398 -125.977 493.652 c 0
 -140.625 503.906 -157.227 508.789 -175.781 508.789 c 0
 -185.547 508.789 -195.801 507.812 -207.031 505.371 c 0
 -218.262 502.93 -225.098 498.047 -227.051 490.234 c 0
 -227.539 486.816 -225.098 484.863 -219.238 484.375 c 0
 -212.891 484.375 -207.031 483.887 -201.172 483.887 c 0
 -187.5 483.887 -176.758 483.398 -167.969 481.934 c 0
 -159.18 480.469 -149.902 479.004 -140.137 477.051 c 0
-64.9414 400.879 m 1
 -74.2188 408.203 -85.4492 415.039 -99.1211 420.41 c 0
 -112.305 426.27 -126.465 431.152 -142.09 435.059 c 0
 -151.367 437.5 -161.621 439.941 -172.363 441.895 c 0
 -183.594 443.848 -194.824 444.824 -206.055 444.824 c 0
 -211.426 444.824 -217.285 444.824 -224.121 444.824 c 0
 -230.469 444.824 -236.816 444.824 -242.188 443.848 c 0
 -253.906 443.848 -263.672 444.824 -270.508 445.801 c 0
 -277.344 447.266 -283.203 450.195 -288.086 455.078 c 0
 -291.504 457.52 -293.945 461.426 -296.387 466.309 c 0
 -298.828 471.68 -299.316 476.562 -297.852 480.957 c 0
 -295.41 492.188 -287.598 503.906 -275.391 515.625 c 0
 -263.184 527.344 -251.953 535.645 -242.188 541.016 c 0
 -220.703 551.758 -196.777 557.129 -169.922 557.129 c 0
 -153.32 557.129 -136.719 553.223 -120.117 545.41 c 0
 -103.516 537.598 -88.8672 527.344 -77.1484 514.16 c 0
 -64.9414 500.488 -56.1523 484.863 -49.8047 466.309 c 0
 -43.9453 448.242 -43.457 428.223 -47.8516 407.227 c 1
 -64.9414 400.879 l 1
EndSplineSet
EndChar
StartChar: uni0E35.left
Encoding: 130 63234 98
Width: 0
Flags: W
HStem: 463 40<-223 -201> 530 49<-191 -169>
DStem: -79 612 -22 612 -91 550 -49 485
Fore
-22 612 m 1
 -49 485 l 1
 -42 465 -44 440 -51 406 c 1
 -79 428 -114 443 -143 452 c 0
 -162 457 -186 463 -209 463 c 2
 -227 463 l 2
 -234 463 -240 463 -245 462 c 0
 -270 462 -282 464 -293 473 c 0
 -300 478 -305 491 -302 500 c 0
 -297 524 -265 552 -245 563 c 0
 -224 574 -198 579 -171 579 c 0
 -141 579 -114 568 -91 550 c 1
 -79 612 l 1
 -22 612 l 1
-141 496 m 0
 -122 491 -107 486 -94 478 c 1
 -109 503 -140 530 -178 530 c 0
 -197 530 -227 526 -230 510 c 0
 -231 502 -215 503 -203 503 c 0
 -176 503 -161 500 -141 496 c 0
EndSplineSet
Back
-21.9727 599.121 m 1
 -77.1484 599.121 l 1
 -88.8672 539.062 l 1
 -100.098 547.852 -112.305 554.688 -125.488 559.57 c 0
 -138.672 564.453 -152.344 566.895 -166.992 566.895 c 0
 -194.336 566.895 -218.75 561.523 -240.234 550.781 c 0
 -245.117 548.34 -250.977 544.434 -256.348 540.039 c 0
 -262.207 535.156 -268.066 530.273 -273.438 524.902 c 0
 -279.297 519.531 -284.18 514.16 -288.086 507.812 c 0
 -291.992 501.953 -294.434 496.094 -295.898 490.234 c 0
 -297.363 485.352 -296.875 480.469 -294.922 475.098 c 0
 -292.969 469.727 -290.527 465.82 -287.109 462.891 c 0
 -281.738 458.496 -275.391 455.566 -268.555 454.102 c 0
 -261.719 452.637 -251.953 452.148 -240.234 452.148 c 0
 -234.863 452.637 -228.516 453.125 -222.168 453.125 c 0
 -215.82 453.125 -210.449 453.125 -205.078 453.125 c 0
 -193.848 453.125 -182.129 452.148 -170.898 450.195 c 0
 -159.668 448.242 -149.414 445.801 -140.137 442.871 c 0
 -125.977 438.477 -110.84 432.129 -94.7266 424.805 c 0
 -78.125 417.48 -63.4766 408.691 -49.8047 397.949 c 1
 -46.875 414.551 -44.4336 429.199 -43.9453 441.406 c 0
 -43.457 453.613 -44.4336 464.844 -47.8516 475.098 c 1
 -21.9727 599.121 l 1
-138.184 485.84 m 0
 -147.949 487.793 -157.227 489.746 -166.016 491.211 c 0
 -174.805 492.188 -185.547 493.164 -199.219 493.164 c 0
 -205.078 493.164 -210.938 493.164 -216.797 493.652 c 0
 -223.145 493.652 -225.586 495.605 -225.098 499.023 c 0
 -223.633 506.836 -217.285 512.207 -205.566 515.137 c 0
 -193.848 517.578 -183.105 519.043 -173.828 519.043 c 0
 -155.273 519.043 -138.672 513.672 -124.512 502.93 c 0
 -110.352 492.188 -99.1211 480.469 -91.7969 467.773 c 1
 -98.6328 472.168 -105.469 475.098 -112.793 478.027 c 0
 -120.117 480.469 -128.906 483.398 -138.184 485.84 c 0
EndSplineSet
EndChar
StartChar: uni0E36.left
Encoding: 131 63235 99
Width: 0
Flags: W
HStem: 463 40<-223 -201> 530 49<-191 -169> 572 40<-80 -69>
Fore
-48 423 m 1
 -64 417 l 1
 -84 432 -113 443 -143 452 c 0
 -162 457 -186 463 -209 463 c 2
 -227 463 l 2
 -234 463 -240 463 -245 462 c 0
 -270 462 -282 464 -293 473 c 0
 -300 478 -305 491 -302 500 c 0
 -297 524 -265 552 -245 563 c 0
 -224 574 -198 579 -171 579 c 0
 -159 579 -147 577 -136 573 c 1
 -120 596 -95 612 -69 612 c 0
 -37 612 -13 584 -20 551 c 0
 -25 532 -38 515 -55 503 c 1
 -44 480 -42 453 -48 423 c 1
-141 496 m 0
 -122 491 -107 486 -94 478 c 1
 -109 503 -140 530 -178 530 c 0
 -197 530 -227 526 -230 510 c 0
 -231 502 -215 503 -203 503 c 0
 -176 503 -161 500 -141 496 c 0
-101 551 m 0
 -104 540 -97 532 -86 532 c 0
 -75 532 -66 538 -63 551 c 0
 -60 563 -66 572 -78 572 c 0
 -89 572 -98 563 -101 551 c 0
EndSplineSet
Back
-46.875 414.062 m 1
 -41.0156 443.848 -43.457 470.215 -54.1992 493.164 c 1
 -45.4102 498.535 -38.0859 505.371 -32.2266 513.672 c 0
 -25.8789 521.973 -21.9727 530.762 -20.0195 540.039 c 0
 -16.6016 556.152 -20.0195 569.824 -29.2969 581.543 c 0
 -39.0625 593.262 -51.7578 599.121 -67.8711 599.121 c 0
 -80.5664 599.121 -92.7734 595.703 -104.492 588.379 c 0
 -116.211 581.543 -125.488 572.266 -132.812 561.035 c 1
 -144.531 564.941 -155.762 566.895 -166.992 566.895 c 0
 -194.336 566.895 -218.75 561.523 -240.234 550.781 c 0
 -245.117 548.34 -250.977 544.434 -256.348 540.039 c 0
 -262.207 535.156 -268.066 530.273 -273.438 524.902 c 0
 -279.297 519.531 -284.18 514.16 -288.086 507.812 c 0
 -291.992 501.953 -294.434 496.094 -295.898 490.234 c 0
 -297.363 485.352 -296.875 480.469 -294.922 475.098 c 0
 -292.969 469.727 -290.527 465.82 -287.109 462.891 c 0
 -281.738 458.496 -275.391 455.566 -268.555 454.102 c 0
 -261.719 452.637 -251.953 452.148 -240.234 452.148 c 0
 -234.863 452.637 -228.516 453.125 -222.168 453.125 c 0
 -215.82 453.125 -210.449 453.125 -205.078 453.125 c 0
 -193.848 453.125 -182.129 452.148 -170.898 450.195 c 0
 -159.668 448.242 -149.414 445.801 -140.137 442.871 c 0
 -125.488 438.477 -111.328 433.105 -97.6562 427.734 c 0
 -83.9844 421.875 -72.2656 415.527 -62.9883 408.203 c 1
 -46.875 414.062 l 1
-138.184 485.84 m 0
 -147.949 487.793 -157.227 489.746 -166.016 491.211 c 0
 -174.805 492.188 -185.547 493.164 -199.219 493.164 c 0
 -205.078 493.164 -210.938 493.164 -216.797 493.652 c 0
 -223.145 493.652 -225.586 495.605 -225.098 499.023 c 0
 -223.633 506.836 -217.285 512.207 -205.566 515.137 c 0
 -193.848 517.578 -183.105 519.043 -173.828 519.043 c 0
 -155.273 519.043 -138.672 513.672 -124.512 502.93 c 0
 -110.352 492.188 -99.1211 480.469 -91.7969 467.773 c 1
 -98.6328 472.168 -105.469 475.098 -112.793 478.027 c 0
 -120.117 480.469 -128.906 483.398 -138.184 485.84 c 0
-99.1211 540.039 m 0
 -97.6562 545.41 -94.7266 549.805 -90.332 554.199 c 0
 -85.9375 558.105 -81.543 560.059 -76.1719 560.059 c 0
 -70.8008 560.059 -66.8945 558.105 -63.9648 554.199 c 0
 -61.5234 549.805 -60.5469 545.41 -62.0117 540.039 c 0
 -65.4297 527.344 -72.7539 520.996 -83.9844 520.996 c 0
 -89.3555 520.996 -93.2617 522.949 -96.6797 526.367 c 0
 -99.6094 530.273 -100.098 534.668 -99.1211 540.039 c 0
EndSplineSet
EndChar
StartChar: uni0E37.left
Encoding: 132 63236 100
Width: 0
Flags: W
HStem: 462 41<-245 -203> 463 40<-223 -201>
DStem: -67 612 -22 612 -82 541 -49 485
Fore
-171 579 m 2
 -155 578 l 1
 -140 575 l 1
 -133 612 l 1
 -88 612 l 1
 -99 556 l 1
 -96 553 -95 553 -92 550 c 2
 -82 541 l 1
 -67 612 l 1
 -22 612 l 1
 -49 485 l 1
 -42 465 -44 440 -51 406 c 1
 -79 428 -114 443 -143 452 c 0
 -162 457 -186 463 -209 463 c 0
 -221 463 -234 462 -245 462 c 0
 -270 462 -282 465 -293 473 c 0
 -300 478 -305 491 -302 500 c 0
 -297 524 -265 552 -245 563 c 0
 -225 574 -198 582 -171 579 c 2
-141 496 m 0
 -122 491 -107 486 -94 478 c 1
 -109 503 -140 530 -178 530 c 0
 -197 530 -227 526 -230 510 c 0
 -231 502 -215 503 -203 503 c 0
 -176 503 -161 501 -141 496 c 0
EndSplineSet
Back
-166.992 566.895 m 2
 -180.176 568.359 -193.359 567.383 -206.055 563.965 c 0
 -218.75 560.547 -229.98 556.152 -240.234 550.781 c 0
 -245.117 548.34 -250.977 544.434 -256.348 540.039 c 0
 -262.207 535.156 -268.066 530.273 -273.438 524.902 c 0
 -279.297 519.531 -284.18 514.16 -288.086 507.812 c 0
 -291.992 501.953 -294.434 496.094 -295.898 490.234 c 0
 -297.363 485.352 -296.875 480.469 -294.922 475.098 c 0
 -292.969 469.727 -290.527 465.82 -287.109 462.891 c 0
 -281.738 458.984 -275.391 456.055 -268.555 454.59 c 0
 -261.719 452.637 -251.953 452.148 -240.234 452.148 c 0
 -234.863 452.148 -229.004 452.148 -222.656 452.637 c 0
 -216.309 452.637 -210.449 453.125 -205.078 453.125 c 0
 -193.848 453.125 -182.129 452.148 -170.898 450.195 c 0
 -159.668 448.242 -149.414 445.801 -140.137 442.871 c 0
 -125.977 438.477 -110.84 432.129 -94.7266 424.805 c 0
 -78.125 417.48 -63.4766 408.691 -49.8047 397.949 c 1
 -46.875 414.551 -44.4336 429.199 -43.9453 441.406 c 0
 -43.457 453.613 -44.4336 464.844 -47.8516 475.098 c 1
 -21.9727 599.121 l 1
 -65.918 599.121 l 1
 -80.0781 529.785 l 1
 -89.8438 539.062 l 2
 -91.3086 540.527 -92.2852 541.504 -93.2617 541.992 c 0
 -94.7266 542.48 -95.7031 543.457 -97.168 544.922 c 1
 -85.9375 599.121 l 1
 -129.883 599.121 l 1
 -137.207 562.988 l 1
 -151.855 565.918 l 1
 -166.992 566.895 l 2
-138.184 485.84 m 0
 -147.949 488.77 -157.227 490.723 -166.016 491.699 c 0
 -174.805 492.676 -185.547 493.164 -199.219 493.164 c 0
 -205.078 493.164 -210.938 493.164 -216.797 493.652 c 0
 -223.145 493.652 -225.586 495.605 -225.098 499.023 c 0
 -223.633 506.836 -217.285 512.207 -205.566 515.137 c 0
 -193.848 517.578 -183.105 519.043 -173.828 519.043 c 0
 -155.273 519.043 -138.672 513.672 -124.512 502.93 c 0
 -110.352 492.188 -99.1211 480.469 -91.7969 467.773 c 1
 -98.6328 472.168 -105.469 475.098 -112.793 478.027 c 0
 -120.117 480.469 -128.906 483.398 -138.184 485.84 c 0
EndSplineSet
EndChar
StartChar: ellipsis
Encoding: 133 8230 101
Width: 501
Flags: W
HStem: -29 20<69.1547 99.5269 236.155 266.527 403.155 433.527>
Ref: 46 46 N 1 0 0 1 334 0
Ref: 46 46 N 1 0 0 1 167 0
Ref: 46 46 N 1 0 0 1 0 0
Back
315.918 32.2266 m 0
 311.523 10.7422 293.457 -1.95312 263.184 -5.85938 c 1
 233.887 -5.85938 220.215 6.34766 223.145 30.7617 c 0
 227.539 57.6172 246.094 70.8008 277.832 70.8008 c 0
 291.504 70.8008 301.758 66.8945 310.059 59.082 c 0
 315.918 51.7578 317.871 42.4805 315.918 32.2266 c 0
461.914 32.2266 m 1
 457.52 10.7422 439.453 -1.95312 408.203 -5.85938 c 1
 379.395 -5.85938 366.211 6.34766 369.141 30.7617 c 0
 373.535 57.6172 391.602 70.8008 422.852 70.8008 c 0
 436.523 70.8008 447.266 66.8945 456.055 59.082 c 1
 460.449 51.7578 462.891 42.4805 461.914 32.2266 c 1
170.898 32.2266 m 0
 165.039 6.83594 146.484 -5.85938 116.211 -5.85938 c 0
 84.4727 -5.85938 71.7773 6.83594 78.125 32.2266 c 0
 83.4961 58.1055 101.562 70.8008 131.836 70.8008 c 0
 163.574 70.8008 176.27 58.1055 170.898 32.2266 c 0
EndSplineSet
EndChar
StartChar: uni0E48.low_left
Encoding: 134 63237 102
Width: 0
Flags: W
DStem: -95 592 -34 592 -106 529 -50 528
Fore
-34 592 m 1
 -50 528 l 1
 -75 452 l 1
 -78 444 -91 437 -98 437 c 0
 -107 437 -116 444 -115 452 c 2
 -106 529 l 1
 -95 592 l 1
 -34 592 l 1
EndSplineSet
Back
-33.2031 580.078 m 1
 -48.8281 517.09 l 1
 -73.2422 442.871 l 2
 -74.2188 438.965 -77.6367 435.547 -83.0078 432.617 c 0
 -88.3789 429.688 -92.7734 428.223 -96.1914 428.223 c 0
 -100.586 428.223 -104.98 429.688 -108.398 432.617 c 0
 -112.305 435.547 -113.77 438.965 -112.793 442.871 c 1
 -104.004 518.066 l 1
 -92.7734 580.078 l 1
 -33.2031 580.078 l 1
EndSplineSet
EndChar
StartChar: uni0E49.low_left
Encoding: 135 63238 103
Width: 0
Flags: W
HStem: 564 25<-184 -177>
Fore
-12 589 m 1
 -25 535 -51 493 -92 466 c 0
 -128 442 -162 428 -204 428 c 2
 -263 428 l 1
 -256 461 l 1
 -240 462 -226 467 -213 476 c 1
 -237 481 -244 500 -237 533 c 0
 -230 561 -205 589 -177 589 c 0
 -149 589 -133 563 -140 534 c 0
 -146 505 -157 483 -175 468 c 1
 -152 472 -134 482 -118 499 c 1
 -99 519 -85 549 -76 589 c 1
 -12 589 l 1
-206 532 m 0
 -210 515 -206 500 -195 500 c 0
 -184 500 -175 515 -171 532 c 0
 -167 549 -171 564 -182 564 c 0
 -193 564 -203 549 -206 532 c 0
EndSplineSet
Back
-12.207 577.148 m 1
 -74.2188 577.148 l 1
 -82.5195 537.598 -96.6797 508.301 -116.211 488.77 c 1
 -130.859 472.168 -148.926 461.914 -170.898 458.008 c 1
 -154.297 473.145 -143.066 495.117 -137.207 522.949 c 0
 -133.789 537.109 -135.742 549.316 -142.578 560.547 c 0
 -149.414 571.289 -159.668 577.148 -172.852 577.148 c 0
 -187.012 577.148 -199.707 571.289 -210.449 559.57 c 0
 -221.68 547.852 -228.516 535.156 -231.934 521.973 c 0
 -239.258 490.234 -231.445 471.191 -208.984 465.82 c 1
 -221.191 457.52 -234.863 452.148 -250.977 451.172 c 1
 -257.812 418.945 l 1
 -200.195 418.945 l 2
 -179.199 418.945 -160.156 422.363 -142.578 429.199 c 0
 -125 435.547 -107.422 444.824 -89.8438 456.055 c 0
 -49.8047 483.398 -23.9258 523.438 -12.207 577.148 c 1
-202.148 520.996 m 0
 -200.684 529.785 -197.754 537.109 -192.871 542.969 c 0
 -188.477 548.828 -183.105 551.758 -178.223 551.758 c 0
 -172.852 551.758 -168.945 548.828 -167.48 542.969 c 0
 -166.016 537.109 -165.527 529.785 -166.992 520.996 c 0
 -168.945 512.207 -172.363 504.883 -176.27 499.023 c 0
 -180.664 493.164 -185.547 490.234 -190.918 490.234 c 0
 -196.289 490.234 -200.195 493.164 -202.148 499.023 c 0
 -204.102 504.883 -204.102 512.207 -202.148 520.996 c 0
EndSplineSet
EndChar
